<mxfile host="app.diagrams.net" agent="Mozilla/5.0 (Windows NT 10.0; Win64; x64) AppleWebKit/537.36 (KHTML, like Gecko) Chrome/128.0.0.0 Safari/537.36" version="24.7.5">
  <diagram name="Page-1" id="eftqkyBaK_-FWKP6W5ud">
    <mxGraphModel dx="1700" dy="1857" grid="1" gridSize="10" guides="1" tooltips="1" connect="1" arrows="1" fold="1" page="1" pageScale="1" pageWidth="850" pageHeight="1100" math="0" shadow="0">
      <root>
        <mxCell id="0" />
        <mxCell id="1" parent="0" />
        <mxCell id="u9gYeWFBhmN_tFq3CWo4-4" value="" style="shape=image;verticalLabelPosition=bottom;labelBackgroundColor=default;verticalAlign=top;aspect=fixed;imageAspect=0;image=data:image/png,iVBORw0KGgoAAAANSUhEUgAAA4kAAANYCAYAAABpTKjfAAAAAXNSR0IArs4c6QAAAARnQU1BAACxjwv8YQUAAAAJcEhZcwAADsMAAA7DAcdvqGQAAP+lSURBVHhe7N0FfNVlFwfws40YObq7O6QFaQWkpENKuqVRUEJEpFFEFOlSWpRG8gVBQOnu7hgdi/f+zp6N2uDe7S7uvb/v+9m7//P8Lzi2u3v/5/+c5xw3fwshIiIiIiIisnA3n4mIiIiIiIgYJBIREREREdFzDBKJiIiIiIgoCINEIiIiIiIiCsIgkYiIiIiIiIIwSCQiIiIiIqIgDBKJiIiIiIgoCINEIiIiIiIiCsIgkYiIiIiIiIIwSCQiIiIiIqIgDBKJiIiIiIgoCINEIiIiIiIiCsIgkYiIiIiIiIIwSCQicmIbN24UNzc3/RwRBg0apP89Z4F/C/5Njmb69On6te/atcvMhKxs2bL64Uwi+nlPRORsGCQSETmgwCAg8MPT01OyZcsmnTt3lqtXr5pHhc2KFSuCDZAePnyo81HxAvzPP/+UMmXKSLJkySR27NiSKVMmqV+/vqxatco8Imq7efOm9O7dW7Jnz64/00SJEkmlSpVk2bJl5hHh79KlS/rz3bNnj5mJOCE950Ly448/6u8CERHZF4NEIiIH9tVXX8msWbPkhx9+kHfffVcmTpwoJUqU0EAurHDBPnjwYDN6Dn835oMLEr/44gt59OiRGUWsUaNGSY0aNTRo/vzzz2Xs2LFSp04dOX78uPz222/mUVHX0aNHJX/+/PL9999LuXLl9Gfar18/uXbtmlSvXl2Dx/CwZs0a/QiEIBE/38gKEoN7zoUkpCCxdOnS+jzEZyIish2DRCIiB1alShVp0qSJtG7dWi+Wu3XrJqdPn5alS5eaR0SsaNGi6QpYRPPx8ZEhQ4bI+++/r8Fr9+7dpV27djJy5EjZvXu3jBgxwjwy8jx48MAcve7Zs2dSt25duX37tmzevFl++ukn/Zn26tVLU0YbNGigQfC8efPMnwje48ePxc/Pz4ysEyNGDP1wJu7u7vo8xGciIrIdXz2JiJxI+fLl9TMCxTdZsGCBFCpUSGLFiiVJkiTRQPPixYvmrEiLFi1kwoQJevxiWuuZM2ckadKkOo8Vn8D5wBRBfMb4RRgjDfb333+XPHnySMyYMSV37tzBpoAiwCtcuLBe4GfOnFl+/vnnYP/OV924cUPu3r0rJUuWNDMvQ/rpi7A616pVK0mePLn+t7CCN2PGDHM2ZGfPnpWOHTtqOii+d4kTJ5Z69erp9+VFgenAmzZt0sfjv58mTRpz9nWLFi2SAwcOyGeffSbFihUzswE8PDz0+5AgQYKXUjHxvcJ/A6ukWMFNnTq1ptji+xAIq74IlvF1xo8fX5o1a6aB6Ite3JOIv7NIkSJ6/Mknn+jfj4/A1TqsymJ1NkWKFPp9w7+pYcOG4u3tredD8r///U+/T+nSpdOff9q0aTWQf3HVOaTnXEgyZMggBw8e1O9x4GNf/HdgjM+BcA7Pv3379mlKMr5XWbJkkYULF+p5/D343uPnip/vX3/9pfMvwu9Iy5Yt9XkT+DyeOnWqOfvcuXPn5MiRI2ZEROR4GCQSETmRkydP6mcEBSHBBT/26SH4GDZsmLRp00YWL14spUqVkjt37uhjEFhgVQ6Qzhr4gQARKa1Qq1atoPnatWvrXEi2bNmiwRICCqzqYcULwQb24AXCil/lypV1DgEogjik0yK4fBsEYbi4x57EW7dumdngITBBwICv++OPP9bVRi8vLw1SvvvuO/Oo4O3cuVP+/vtv/XcgLbR9+/aybt06/fuCS/HFv/nQoUMyYMAADQBDgq8bEMQFB19fzZo1NfA4ceKEmQ2AFdTly5frquM333zz0qoggvPDhw9rcIm/e86cOfLRRx+Jv7+/ecTLcubMqd9zaNu2bdDPF2mbT58+1f2R27dvly5dumhAh8ecOnUq6HkTEtyUwPenQ4cOMn78eP178PnFf29Iz7mQjBs3ToPUHDlyBD22f//+5mzwECBXq1ZNg0E8DxHo4WeJFVp8/vDDD+Xbb7/VVV+s7N67d8/8SdG9vsWLF9fgEd9XPFcQZOJ5iq/lRfh34XtJROSwLG8URETkYKZNm4arfH/LBav/9evX/c+fP+//22+/+VuCQ39LsOR/4cIFfdyGDRv0cfgMlgt9f0tA5Z8nTx5/S7Ckc7Bs2TJ9nCWYMTP+/p06ddK5V+G/h/mBAweamecw9+qfwdgSuPhbghsz4++/d+9enbcECmbG37969er+sWPH9r948aKZ8fc/fvy4f7Ro0YL9Ol6Frx2PixMnjn+VKlX8hw4d6v/vv/+as89ZLuj1cbNnzzYzAd+XEiVK+MeNG9f/7t27Zjbga3/x32kJdMzRc9u2bdPHzZw508w8//lYAm9/Hx8fMxuyAgUK+FsCQTMK3pgxY/Tv/OOPP3Qc+LPNlCnTa19X4H+/UKFC+m8LZAmMdH7p0qVmxt+/TJky+hHIEgjrY/B3vMgSxOu8JeAzM9YL7vs2bNgwfzc3N/+zZ8+amZCfcyHJnTv3S197oFef94DHYW7u3Llmxt/fEnTrnLu7u78l+DWz/v6rV6/W+Re/B5Zg0D9lypT+N27cMDMBLMGl/uxe/DcG/reIiBwVVxKJiBxYxYoVdXUP6XtYCbEEObJkyRJNPQwO9rch1RIrXC/uHaxataquyGBFKjzg60T6aKB8+fJp+iNWocDX11dXaLDKlSpVKp0DrNRg36U1sPpoCQCkYMGCYrnI11UlpNS+8847upoWCMVRkC7ZqFEjMyMSPXp06dq1q9y/f1/TDkOC1cpA2EeIVU98jUgF/e+//8yZ57BKixXbt8GKVbx48cwoeIHnX0wnhebNm7/0db0IK334twXCSh72jeJ7YCusZgK+t1gVtMWLXx9W6ZAe/O677yKK0hXkiILfD/yeBEJaKX52WPV7Mc038Djw+YmvEynBKCCEY3z9gR9YFUW67Ys/f6S54nFERI6KQWIUgCIFeOPBhRH2UFiTWvUqvGkjDQYXEbhgRBrXq3tkiMj5IOVv7dq1smHDBk1rxEUtLlpDgj11gIvjVyFIDDxvb9iL9qqECRMG7Y9D4Io0UARcrwpuLiQI/LD/DX8vKnY2btxYgxC8xiLFFfBvzJo162tFTQLTA9/0PcDXiNRRBOVIVcR+TrzmIt0yuH15GTNmNEdvhtfuF1MbgxN4/tVg8k3/Dfw7X4QgKWXKlKF6f8B/p0ePHjJ58mT9d+N5huff2/YjAvboIZ0XLT3wNeB7VqZMGT1nzZ+3F6Sn4n32RQh+8fN8UWBAHPj8vH79uv6MJ02apF/7ix/Yuwl4DhMROQsGiVEA7qqiaELghn1boUAF9qqgYAVKliNgxN3Nt+0RIiLHV7RoUV2lw544BDlRtZpjSKtp4bXaglVK7G/DHjystGGv5j///GPOhh724g0dOlT3dM6fP18DUQTp2AMaXFXRkFb4XoWfHYIlBFMhQcEVyJUrl34OZO1/wx5Gjx6tXwdacyBgxuorirdcuHDBPOJ1WCXGzwKr1H379tUbofieBRbDsbUaa1iE9Dx82/Mz8GtEgSd87cF9hFQ0iYjIETFIjAKQSvX1119rEYjgPHnyRAsSIH0sTpw4mgbzYsW2f//9V9+E8XcgnQupVXg8AkakQxERBUqfPr1+Rk++V2Eu8Dy8uuISKKT5sEDhGaS/vlqUBYKbswWqpcLly5f1M/6NqNL5anASWI3yxe/Bq1AJE0EngiUUNkHw82LBn9BCMRWYOXOmfn4VUkzR1gSrvbasrOLf+SKk0+L7gMqgIXnbzzdv3rxaTRVZMFi1RcVPtOwIyf79++XYsWP6PUOQiJuauLHxYlpxIFufW+HxXAwOVgyxgov3WnztwX28WkGXiMiRMUh0AKiitm3bNi1zjju4KCOOCoCBb/7Yc4PVg2nTpukbGO5Go8ob3rRe3ItCRISACRezuKjHDahAK1eu1H172JsYCDel4NUACK0DIKyB0YuwkoPXLKwyoZl7IASI+NreBnvk8DoZnMA/H5hiiwqWV65ceannIPosotomUiED0yCDg6/z1dVP/Dm89oYFAk6sEKKyJvaNvgjBLPYSIvVx4MCBZtY6SI988WYhKtPi3/qmfZ4h/dwRqOLPvggBI95/XnwuvSpwle7F7xuOg6skG9J/OyR4vD2fhyHBvwHbOAJblbwK6agvYgsMInJ0DBKjOLzRIPhD+fD33ntPVwqxSog715gH7BNByhPSf7BHBpvwkfqDVCgiohfhxtHw4cODesXhQh2vHQhSsLqE3nWBcAMKkFKItE3cqAKkNyKgQZD1448/6nxwF862QpsGBCFI20N7ArTnwNeI3nZvgyARhVBKlCihBWzQu27MmDHaugFFWlAQBwVtAMVckN6JPXJ4Pf3hhx80QN26datmZLy65+9FWPHDTbhu3bppAIb9aGiF8aaWI9ZA2wqsUiJNFq/vCAqnTJmiq2/oW4iCPD179nyp6Io10LaiQoUK+m9EqizacODvr1GjhnnE6/A+g/cR3EjA14CfL7Y1rF+/Pug5gmATwTH+7sAAKiRY/Qx870KLDnwt2B4RXIpqSM+5kODxeC7j54bH4msMLwjgsZ8T2TyBP3/MIfX41T2+bIFBRA7Pn6IU/EiWLFliRs/L0seJE+elD5SEt7wx6WMuX77snzVrVv/evXv7//fff/6bNm3S8tuWN29/Pz8/fQwROReU5sdrA9oVvElwrQDAEuD5W4Im/5gxY/onSpTI/+OPPw5qmxEIrRssgYV/0qRJtVXBi28Zf//9t7ZXQGsLzAe2iQipBQZaG7wqffr0/s2bNzejAOvWrdOvC3+vJbDwnzx5sr8lOPL39PQ0jwjes2fP/H/55Rd/SzCofy/+XWingb9r5MiR/k+ePDGPDHD16lV/S4DnnyRJEv1v5c2b97WWD/Divw1u374d9Ofixo3rX6lSJW2j8Oq/xdqfz6uuXbvm36NHD/8sWbLov8ESrPlbAtigthcvCvzZBteSIvC/j/cDS1DsnzBhQv168XO+efOmeVQAvF/g40VokZErV66g9iP4+06dOuXfsmVL/bng54HnTbly5bQNy9scOnRI/x34GvC9a9OmTVAblBe/7296zgXnypUr/lWrVvW3BPb62MB/R3DPe5xDy4xX4WeHv+NV+POvPm/xvMFc2rRp/aNHj+6fIkUKfa+1BIzmEQHw33rb105EFJW54f8sL2QURWB/BcrX46434E49mj0fPHgwKGUnENKiUMb9yy+/lFWrVmmT50C4Q4tqbUi/QtVTIiJHhddDvAa+ur+OiIiIwgfTTaM4pEdhrwtKa6NYwYsfCBABaVavVjQMDCgjsmocEVFYoWLmixAYIl0U1VuJiIgoYngMwiYQilSoNof+Ziik8PPPP+t+B+z5wV6STJkyaeEG7HlBnzFU/8NFEyrgoYhAtmzZdI8R9kVgFRLV4tDjC/s5sLcH+zRYvIaIHAVe59CgHnvgkFXRvn17ncc+wLDu+yMiIiLrMN00CkA7i3LlypnRcyizjj5SqEyHYA+BIUqNo4kxUkhRnAGV5QAb9lHoAWXGUXkQxRtQnAIFA4iIHAUKwWzYsEFvmqEQF17LUOwErX2IiIgoYjBIJCIiIiIioiDck0hERERERERBGCQSERERERFREKabRhJUHb106ZI2bUbBGSIiIiIiopAgbLt3754Wqny1s4G9MUiMJIF9DImIiIiIiKx1/vx5SZMmjRmFDwaJkcTb21sSJEigP+T48eObWdeBiq1r1qyRDz74gC06KNT4PKKw4nOI7IHPIworPofIGmh/h0WmO3fuiJeXl5kNHwwSIwl+yPjhIlh01SARDbI//PBDvhhSqPF5RGHF5xDZA59HFFZ8DpE1IjJ+YOGaUBo2bJgUKVJE9xQmS5ZMPvroIzl69Kg5S0RERERE5JgYJIbSpk2bpFOnTrJ9+3ZZu3at3gFCisCDBw/MI4iIiIiIiBwPg8RQWrVqlbRo0UJy584t+fPnl+nTp8u5c+fk33//NY8gIiIiIiJyPNyTaCcnTpyQrFmzyv79+yVPnjxm9rknT57oR6DAjac3btxw2T2JWIF9//33mXtPocbnEYUVn0NkD3weUVjxOUTWQPyQJEmSCNmTyCDRDtDzsEaNGlppaMuWLWb2ZYMGDZLBgweb0XNz586V2LFjmxEREREREdHrHj58KI0bN2aQ6Cg6dOggK1eu1AAxpJ4lXEl8Ge+YkT3weURhxecQ2QOfRxRWfA6RNbiS6EA6d+4sS5culc2bN0vGjBnN7NtFZAnbqAgvhiz1TGHF5xGFFZ9DZA98HlFY8TlE1ojI+IGFa0IJsTUCxCVLlsj69ettChCJiIiIiIiiKgaJoYT2F7Nnz9Y9heiVeOXKFf149OiReQQREREREZHjYZAYShMnTtSl3rJly0rKlCmDPubNm2ceQURERERE5HgYJIYS0k2D+0DvRCIiIiIiIkfFIJGIiIiIiIiCMEgkIiIiIiKiIAwSiYiIiIiIKAiDRCIiIiIiIgrCIJGIiIiIiIiCMEgkIiIiIiKiIAwSiYiIiIiIKAiDRCIiIiIiIgrCIJGIiIiIiIiCMEgkIiIiIiKiIAwSiYiIiIiIKAiDRCIiIiIiIgrCIJGIiIiIiIiCMEgkIiIiIiKiIAwSiYiIiIiIKAiDRCIiIiIiIgrCIJGIiIiIiIiCMEgkIiIiIiKiIAwSiYiIiIiIKAiDRCIioijIx8dH7t+/L7t27ZLVq1fLpUuX9PPQoUOlf//++pi+fftKhw4dZPz48bJnzx75+OOPpX79+rJu3ToZN26cfPjhh1K1alX9u9q0aSONGjXSP3/8+HFp27atdOzYUTZu3ChLly6VL7/8UsaMGSOPHz+W9evXy+bNm+X06dPi5+enH0RE5DoYJBIREYUTBFywaNEiDcDmz5+vwVflypWlSJEismzZMqldu7YkT55c0qVLp4/F5xQpUkjDhg1l7dq10qxZMw0K//vvP9m9e7cGg1evXtXH+vv7i6enp8SOHVvixIkjWbNmlfz580vSpEklX758Uq1aNalSpYq4u7vrOGfOnJImTRqJFi2axIsXTz8DglEEhPjaEFCOHTtWOnfuLN26dZN///1XUqdOrV/T119/Ld27d9djfFy4cEGD0LJly+r8tWvX5KuvvpIpU6bIyZMnGVwSETkoN8sbjL85pgh09+5d8fLyEm9vb4kfP76ZdR3Pnj2TFStW6F3u6NGjm1ki2/B5RGEVlufQgQMHZO/evfpaHjduXBk0aJAGb0OGDJE5c+bI33//rfMIlsqVK6ev9e+//75+YKUuffr0Urx4cUmQIIEGcY4mMABEEHns2DH9N5QsWVL69OkjN27ckHr16un87Nmz9XE7d+6Upk2bypMnT6RYsWK6comguWDBglKoUCGJESOGPs4R8bWIworPIbJGRMYPDBIjCYNEvhhS2PF5RGH1pufQrVu39BxW8BDw/PLLL7J8+XINZs6fP68rcwjwsFpXq1Yt+eeffyRPnjySK1cuhw54whNWK/ft26eBIgLDTp066Wok0mSRTougMWHChBpgT5w4UVdYEXhiBTQq42sRhRWfQ2QNBokugEEiXwwp7Pg8orA6e/asjBo1Sh49eiSTJk3SAO/27dtSuHBhTbVEemX27Nk19TJZsmSSJEmSoBRNsj+kumKFFgH4559/rquUiRIlknbt2knjxo01tfabb77R90+k8pYvX17PRza+FlFY8TlE1mCQ6AIYJPLFkMKOzyOyFlI+T5w4oXvrkPJ4+fJl6dmzp65eochLhQoVZPjw4Rp4uOJrsqPAqiOC9MWLF2tKL8b42SKQx6ouVnxRkAeprxhHFL4WUVjxOUTWYJDoAhgk8sWQwo7PIwoO0kORGrpjxw5NX6xTp46+5mLVCauG2Bv33nvv6aoUn0PO4eHDh/K///1P01jxM+3atat+njx5shb68fDwkJo1a2o6cHjg84jCis8hskZExg+sbkpERA4JFTnREgJvmnnz5tV0UOxxO3z4sK42IVUUxWEQJJw6dUoDBqwuoXAMAkRyHqjuWqlSJalRo4beFLh48aJWWsU4U6ZMmrbavn17LaiTMmVKKVOmjCxZskTTW4mI6HUMEomIKMrDxTx6+TVv3lwrg6LtAto9jB49WiuIosjJlStXZMKECVoEBX0D0fqB+wepSZMmmp66ZcsW3VN69OhRadmypcSMGVP69eunNxcyZMigQSWeY3fu3DF/kojIdTFIJCKiKAmBXsWKFTUgRBoWWkug2mWWLFm0yij2Fa5Zs0b3n5UqVcoh20hQxEOKFm42IK1vxIgRGhxiXyoCyKlTp2rxIvSxRLVaBJHHjx83f5KIyHXwHZWIiCIV+u0hZXTevHmaNopG8GiVcOTIES1EggIlSBvctWuXXtQHNp0nspfMmTPrTQasJKKY0apVqzSYPHPmjKYnY75Nmzby6aefavoyEZGzY5BIREQRDvsGUUkUq4JYHUQjeuwdw+ohGtJnzJhRU0fR+iAiq1QSBUJvxrlz52qgiKI3WH1EgZzevXtrymq2bNm0QA5uaBARORsGiUREFO4QFOLCGqsxSOurW7euNpz/888/5fr16zJmzBgpUqSIlC1blmmjFCUhpRlVc9euXastN2bNmqXFk1BV9ZNPPpE+ffroHlmsjBMROTq+ExMRkd2hf93MmTPl4MGDmj6K/V9oTTFy5EitMIl5BINYrSFyRMWKFdM9jM2aNdPgsVq1arJ7925dIU+TJo2uPm7evNk8mojIsTBIJCKiMMPqCYrLoMgHGtPjAnrDhg0aBCJ9FCl5jRo1YuooOSVU0S1durTMnj1b23Fg32LRokXl2LFj0r17d8mfP7/up3369Kn5E0REURuDRCIiChW0CkBgiPQ7rBZ+9tlnWikSY/SpmzZtmq4WMn2UXA1Sqvv37y+tW7fWFNShQ4fK1q1b9RxunKBnI6umElFUxnduIiKyGiqMIl20ZMmSui9r4cKFunKIfYX79u3TeQaFRM/h9wGpqKiQin24v//+u87jJgqCx+rVqwcFkEREUQXfyYmIKERIIz179qwsWrRIV0caN26sqaNIJUUaKfZkcbWQyHq4ufLTTz/JN998oy01ULAJK463bt3SCqrcx0hEUQHf1YmI6CUIDPFRq1YtTSPt1q2bVKlSRfvHYY8VLmqxIkJEYRM3blwZMGCAVv/Ffl201Wjbtq20aNFC1q9frx9ERJGBQSIRESmkkhYvXlwDQ6xm9OrVS1cLlyxZosU4GBgShR+sxmMf45EjR2T69Oni7e0tnTt3lmTJkun+X6zoExFFFAaJREQubMaMGVK4cGEpU6aMeHp66kUp9heiXyH2F6JqIxFFPKzkHzp0SNvJYMURe39Tpkwp48ePN48gIgo/DBKJiFzMsmXL5N1339UqpP/++682Accewzx58kiTJk24v5AoCsEKPm7WnDhxQnbu3KmtNTp16iSZMmWSr776Snx8fMwjiYjsh1cCREQu4MCBA/Ltt9/KH3/8If369ZOWLVvqysT3338v9evXZ2BI5ADQpB89SCdMmCDz58/X1NT79+9LiRIltB0NEZG98KqAiMhJoVUF+hYidbRq1ari6+srNWrU0FYVqKbIwJDIcSFNfO7cuRI/fnzp0KGD9O7dW1cWV69erb/3RERhwSsEIiIng0qJqJKYK1cu2bZtm/z1119a9AJFMYjIueBmT7NmzeTgwYNaKRW/80gdRxGqwErFRES2YpBIROQEcGGI4jM5cuSQ1KlTy+TJk3U1oWbNmiw+Q+RCBg0apL/7KEqF1wVUR0V/U64uEpEtGCQSETmox48f6+rgpEmT5Pfff5e6detqNUSkn5UuXdo8iohcEZr2o0LxqVOnJGHChNrjFHuRUbCKiOhtGCQSETkYpJWhWEW6dOm0IE25cuVk+PDh0qVLF+4zJKKX4KYRCt2UKlVKi1Whzc2HH36oe5afPn1qHkVE9DJeTRAROYg5c+ZoKimKzyAYRPrY0qVLJWvWrOYRREQh+/jjj+Xo0aPaBue3336TFClSSLVq1fSmExHRixgkEhFFYf/884/uNaxXr55kyZJF1q9fLydPnpTYsWObRxAR2QY3mbCieOXKFW2fgeI2KHSzZcsW8wgicnUMEomIohhcsGGf4blz57Ssfe3atWXevHnaHw37jIiI7AGN+rGvGSmpHTt2lKZNm8qwYcPkwoUL5hFE5KoYJBIRRSG4k588eXKZMmWKPHv2TDZv3iyffvop9xoSUbhCG43Tp0/L559/Ll27dtXXoaFDh5qzRORqeNVBRBTJjh8/LpUrV5acOXNKgQIFtDAN0kwzZ85sHkFEFHEWL14s27dvl+jRo8uvv/4qbdu2lYcPH5qzROQKGCQSEUUSFI9YuHChjB07VvcF7d+/X+LGjat9zYiIIlPGjBmlT58+UqVKFS1skyZNGi2W5ePjYx5BRM6MQSIRUQTCfkNcZKF9BfYbenl5yY8//igDBw5k03siinISJEggc+fO1QARN7FQEbVOnTraQoOInBeDRCKiCIB+ZNhbiFVCVBTctWuXHD58WN5//33zCCKiqAs3sVBV+dKlS9qKZ8GCBfLzzz/rmIicD4NEIqJwhDStGTNm6AXV+fPn5ciRI5q2xZRSInJEqIj6/fffS4cOHfSGV968eaVly5bmLBE5CwaJREThpEePHppWum3bNm1ijWIQSZIkMWeJiBwb0uSvXr0qrVq1ksGDB0v9+vXl7t275iwROTIGiUREdoT+YqhUioIPaICPVKyffvrJnCUici5IQy1ZsqS2zsD+xRw5cui+a6TYE5HjYpBIRGQHaGOBC6P33ntPChUqJN98841WLPX09DSPICJyXkhDnTRpkt4oQ1o9Ctx06dKF1VCJHBSDRCKiMEBwWLhwYSlVqpQ2osYHGlCzUikRuSJ3d3fJkyePnDp1Ss6dO6f9FlesWGHOEpGjYJBIRBQKZ8+elfbt28uDBw+0aAP25WTNmtWcJSJybUg9Xbp0qbz77rsyZMgQrYi6cuVKc5aIojoGiURENsJ+Q6SUZsiQQQoUKCAdO3Y0Z4iI6EVYWUTxrvnz54uvr6/uXdyzZ485S0RRFYNEIiIr3LlzR2rXri0NGzaUrl27amPpzz77zJwlIqI3QXGbatWqSe7cuaVSpUpa8ZmIoi4GiUREb/Dw4UMNECtWrKjpUrNnz9Y+h7g7TkREtmnSpIlcvnxZ+vXrp1kZyMTw8/MzZ4koquBVDhFRMFCRD5X5EBBiH82uXbtk/PjxLEhDRBRGuMmGFcUBAwZocZts2bKZM0QUVTBIJCJ6Ae5of/vtt7p6ePPmTa3Q16hRI3OWiIjsJW7cuLJs2TI5cOCAZmnkypVLjh49as4SUWRikEhEZGzevFlSpkwpq1at0p5fc+fO1Qp9REQUftBPFmmoPXr0kHLlysndu3fZX5EokjFIJCKXt3XrVvnwww8lffr0snr1atm4caPEjx/fnCUioojQunVruXTpkly/fl2SJ0+uzfmJKHIwSCQil/bpp59K/fr1pU2bNhokoqUFERFFnsyZM8uOHTtk3Lhx8t9//2kBMSKKWAwSicjlPH36VJo3by7Vq1fXJs8XL16UWrVqmbNERG+H/cvo+4fXk9u3b8v9+/d1DuNnz56xYmcYIVA8dOiQ5MiRQ2/gderUid9TogjEIJGIXAr2uZQvX16ePHkiCxYsYFopkYs6f/68NnnHB4I83DDq2bOnbNiwQX7//Xe9iVSjRg25ceOG9O7dW8e9evXSglaYR9/UP//8U9PT8ed++eUX7Z86bNgw7afarVs3DRzxWPxZ7HFeu3atjvFx5swZLZLVqlUr/YzXphkzZsiKFSvk7Nmz8ujRI3nw4IH5ap2L731vub/vH7mzabncXr9U7vxvhTw8tl/8nj4xj3guduzYcvr0aTl58qR+D/HzIKLw5+ZvYY4pAmFTtpeXl3h7e7vkRSrusuKNEPvAokePbmaJbGPL8wj7DtG8GR9Dhw41s+Tq+FrkfBBsIehDcIEbQQjGypQpI7du3ZLp06frYxCM4RhBWMaMGfXG0cGDBzVwhA8++EC2b9+urxtubm4yZswYLayC9+73339fG8MPGjRIH/vll1/qY2fNmiWpUqXSABOPxfs7/rtVqlSRzz77TP8efMbXg0AU1wBfffWVfh1YfSxevLgGQidOnJDChQvrebTdQarld999J3PmzNH9ennz5pV27drJ33//LenSpZO0adM6RN/WxxdOya1V8+Tu9nXy7MYVM/sKy78jZppMkrBsdUlYoZZE80pkTjyHFUZ84PuMn7Gz4GsRWSMi4wcGiZGEQSJfDCnsrHkeoZUFKpW+9957MnjwYKlWrZo5Q8TXIkeGVM8LFy7o6tzhw4e1MTuCuWPHjkmxYsWka9eusnjxYs0aQIBWuXJlfezy5cu13ymCrrp162qgUbVqVQ3MULgqUaJEUqFCBV3JQ/CGNg2oeoy/B68l+LteZc3zCJdb+Hj8+LFeA+AD/QHXrVsnV69elcSJE2sLCPwbsFqGfdIIGJcsWSJx4sSRmTNnarCIlEsEqvi3YMURgWi8ePE02MTfh1VNrHYmTZpUrzMi26MzR+Xy5G/lwYGdliDQQ8TP15x5A3yPLY9NYAkWUzbvIdHiJzQnAtJ8O3furMExvkdJkiQxZxwbX4vIGgwSXQCDRL4YUti97XmEO/24qEKKEu7mE72Kr0VRH1YGjxw5oj1LK1WqpIEdLl2wWpc/f37ZudMSfFggeGjRooXuN8aqIQIprAgiyEJAgWOsuMWKFUuDLnsK7+cR0lYRrG7ZskUDQwSFWbNm1TRY+OKLL3SVcc+ePRo0IlD+3//+J2nSpNEUWaxIFixYUG+WIXiMCP4+z+Taoilybd7EgAlrgsNXWQJFj9hxJXWnQeJV4n0z+RwKjeEaCt97fH8cGV+LyBoMEl0Ag0S+GFLYhfQ8+ueffzQdCU3wf/31V6e500z2x9eiqAftD5YuXapVLbFShD1/V65c0YCwVKlSGuhhte348eO6eohzSOFE0FSzZk1d/YsZM6b52yJGZD+PcCmH4BFBIj5jFRVVm/G9QFCdLFkyDTBxswwB5MKFCyVLliwyevRoXbXE+eBWSEPL99EDOTu0szw4sMsyCuNlJr4uy78vae1Wkrxpt9e+TqycAtJ+HbmvLV+LyBoMEl0Ag0S+GFLYvfo8wu/VRx99pKsO2COE/TpEb8LXosiFFTLsrdu8ebPs3btXSpQooauBWAVDGui5c+d0jGAQKZkIclAUBmmmCHI8PDzM3xS5ourzCF8XvsdIP505c6buu0SRHKSqYt8mCuig4A7SWlFcBx/43mLVMbSBtt+TR3J6YBt5eGwflnfNrH0kqdlcUrToFWxAi1VS/HtXrVrlkMEiX4vIGhEZP7C6KRE5BaSUYTUBFze4yGGASBT1IGBZs2aN7gdE+igCQAQu2CuMlS9UB8XKIS7y0ScPrQ+wf3DChAm6+oVKoEgVzZ49e5QJEKMyBBsJEybUgBpFchYtWqQrrriZljt3bq3sOmDAAH0sbq7t379fg6wGDRro6ym+53gMUn6tdeGHAeESIMKNpTPk9tpFZvQy3FjAXtLu3bvrCioRhQ1XEiMJVxJ5x4zCDs8j3AUfO3asrjpgbxIKSxBZi69F4QvFZZD+vXLlSmnbtq1MmTJF3/tQTRT7BrFfGIEjgkYcFy1aVIMYe6Y+RgRHfx5hPyfSd/E6iiAdP4tMmTLpvk9UEcXrKiqqzp8/XwMxVFgNrqKq9/a/5Ny33cwofLjF8JRsP/whMZKlMjOvK1u2rK6EokWJo7wn8LWIrMGVRCKit8BFzdSpU3X/EsrKI1WNASJR5MNqINpBoM3Ev//+qyuHqCyKFUGs8qOCKC50sA8O+8iwbxgBBwISVOd0tADRGeD7j9VZFPhp2rSpBvX9+vXTthyoEI0bcPi5IUNj2rRpsmvXLv25/fHHH0G9HH3v35WLPwwM2EMYjlAQB6uVb7J+/Xr9tzRu3NjMEJGtGCQSkcPBBQBK0uNCBtXtmjVrZs4QUURDQtKBAwe0xQzubmNlH1CJ9NChQxpgIB0crSWQ2oh0RuwfQ7oj08KjrtSpU2vA/vPPP+vPDEE8fl7oJfn111/rzw+FclBZFT/30b26yPnrN7TITLjy85UH+7bLo5OHzMTrEPROnjxZ02UrVqyoac24sUhE1mOQSEQOA/3FkK6GggvYW4NG2UQU8RAYYpUQTeFx0wYX5OXKldMUUhSYQfoojtGOAQHiqFGjNP2PQaHjws8P6cCBr71IOcXzAD0q8boc7fgemXj4muy4/kD23Hoo5x+E475Adw+5uXKeGbwZUjjxnETlWyKyHoNEInIIuCOMO9tYlahTp46WwieiiIOAAFWDUcQEKzPYn4YG8Gg6j4twrOyj3QxWFLHyhMbwGTNmZBq4E0LAiFXGgQMH6s+6edniktr3vtx66iO/n7st95/5ytRj12Xg7ovyzM9fLtg7YPTzlTub/hS/p0/MRMjw/MNzE21VUL113Lhx5gwRvQmDRCKK0rB3afbs2XLv3j1dtfjpp5/MGSKKCFjBR5sKNKdHIRD01UPxElQnRYENFFH47rvvZNiwYdrkHXvByLX4nT0iuRLFkQnF00v33MmlWNK44u7uJg98/GT9ZW+ZfPy6tN92Vg7efiS+dkpH9X/2VB6fPWZGb4cUVBQ6+/HHH/UmBxG9GYNEIoqykLKWIUMGTWf65JNPJF++fOYMEYW36dOna6VF7EnD716XLl10X+GTJwGrN5MmTZKcOXPq/kIUoSHX9eL+wKSe0SW6JUD8Mn8qy0dKyRjXU6qlSSAJY3jItcfPdIWx+45zsuHyXfMnQsnN7Y37EoOTIkUKOXbsmPaKbN26tWamEFHwGCQSUZSDkviB+0i2bt0qQ4cONWeIKLygsEdgj7yzZ89Kjhw55PPPP5d69eppMRqsHH788cfauxDFotB/jwgenT6KJ5AZPecVI5pk8/KUwkniyKe5ksvp+0+lYabEki2+p1x99EzO3Hss3+y7rCuMNndkc/eQJ+dPmoFtECzieY2quwgYieh1DBKJKErBPicUt0Bw2KNHD12pIKLwc+XKFVm2bJmu2O/evVuGDx+u7SrQngI3awDHaFKOi2uiV/k/eWSOQpYiVnRpmTWJxIvuIeVTxpdLliBx+42HUj5FPFl6/rYGkCh68+CZr/kTb+Mvfo/f/t8NCarvnj59WovxjB8/Xh4+fGjOEBEwSCSiKAH7ntB0Gxepmzdv5uohUTjCqiHSRrGPsFu3bhIrVixdwd+/f78GialSpdJVRZzHMdEbudl2OZndy1N65E4hDTMm0qDx+mMfmXL8utx+6iN9/70gc0/dtGJl0U1XE8MCzcjLly+vbT2wtQH9H4koAINEIop0gY2PUX0OF6V58uQxZ4jInhAYTpgwQT744AO9IYO9voUKFdJVFA8PDxk5cqRMnDhRK1diTGQNj7jxzZHtcieMJWOLppMeuVJI+ZTxxM8SGz7y8ZO/Lt2VztvPyuqL3uKDyWB4xIlrjsJmxIgRMmPGDM1gweoiETFIJKJIhNWMc+fOyaxZs+T333+Xb775xpwhInsKbIAOyZMn176FCA779u2rrSpQoKZw4cLaZobIVrGy5LZEbNHMKHQSe0aT6O7u8n2xdJIpXkxJFiu6VE+bQE7de6wVUX89dVPuvpiK6usjnhlzmEHYValSRT799FOpUaOGVK1alc33yeUxSCSiSHHw4EEtgIGVi2nTpknJkiXNGSKyF6SQ/vHHH9KnTx9tW3H06FFdMUHzc/Q7xDEuiLlqSGGhQaKvtXsJ3yyau5uUSxlf8ieKLVnje8r1x74y5uBVSWYJIj/bdV7+vnY/qI1GbPx37Wzv3r0SO3ZsGT16tJkhck0MEokowmH/IVYw8CaMggFEZF/r1q2TatWqaRuZcuXK6U0YpHVjf+HMmTP19w77EInsIU7uwpb/t7E6qRWwojigQCrpnSeFZIgbU575iZx/8FQmH70uX+y/Loeu3jaPtB/0U1ywYIH07NlTMmbMqEWdiFwRg0QiijBojP/OO+9Iu3bt9I23fv365gwRhRUKfaDZPfrA3bt3T8aNG6dl/vE5SZIkupqIz2xdQfbmmSaTxM5VCBGWmbEvrC5mju8pP5ZIJ3GiuUujLEklf7ESsnPXLjl58qRs377dPNJ+ECxinzz27QZW+SVyJQwSiSjCYK8H9n0gxY2I7Ac3YFCM5sCBA5IgQQK9aMb+KrS3QPuKhg0bSvTo0c2jiewvSdXGwfZKtCfsWayWNoHEswSKBavVkcWLF8uWLVtk3rx5UqtWLbu3sciXL58WssF+XfQI5T5FciUMEokoXOFNFXdiGzVqJBs3bmRrCyI7we/Wb7/9JjVr1tQ9VD/99JMGiyjr/9FHH8ny5cu1KA1RRIhfvEJAIZkwtqV4Kzd3SVLtY6nVuKmsXLlSV8uRFoqiS9evX5fGjRvL33//bR4cdnHjxtUVeGyTyJIli9y6dcucIXJuDBKJKFxVrFhRLl68yNVDIjtBWil+pzZs2CCXLl2SX3/9VVdTPvvsMw0OPT09pXjx4ubRRBHDzSOapO02TNsXhht3d4meNIWkaPqpDtGqBTdIunbtqqvl06dPl4EDB2rF7E2bNsmdO3f0cWGF1NNFixbpXvqnT5/Kf//9Z84QOS8GiUQULnDhGriXY82aNRIjRgxzhohCC2mk1atX1wvWggULytWrV2XQoEFSpkwZLbZRrFgx80iiiOeZPqslgOtuRnZmCQixipi2+7fiHvP1okulSpXSABGVetFaCYWa0OoFK4vHjx83jwob7KdHCjdufqJCMJEzY5BIRHbXsWNH6dWrl/Tr109XNYgobFCWHwEimuGjMilWDJcsWSKVK1fWRuBYUSGKCpLUbC5JPmphRnaiAaKbpOs9SuLkfMdMBg8poSiMhhsneA/CGL8/+/bt05sqYVWgQAHZs2eP/PDDD9pGhshZMUgkIrtB6tuwYcN0BfHs2bOSNWtWc4aIQqtLly7y3Xff6Z4r9Bdt06aNrpS0atVK21sQRSW4YZGieU9J1qgTRpoiGibuHuIWI6ak7zdevIpXNJNvhq+hfPnyepMyb968MnHiRP3dwe/Mt99+ax4VeunSpZPdu3fr34VWMyxoQ86IQSIR2cXChQsld+7cEi9ePClSpIhEixbNnCEiW6FIxvDhw7VaKVZDkGLq6+srefLkkdWrV2tqHVFUhSAteYMOkmnodImeJIVlIhSXm+bPxMlTWLL98KfEL1xGx7bAXkIUtsHvTO3atSVbtmySNGlS2b9/v+6TD2twh99N/F7y95GcEYNEIgozbOK/du2aVpTr3LmzmSWi0Hjw4IGuTqBiIy62sXJ46NAhSZYsmZQuXVr3XBE5gji5C0m28UsleePOEi1h0oBJj7fcQDTPb8+M2SVN928l4+DJEiNpSp0LLdy0jBkzpu7fxf5EpG7fvHlTf8+Qwh1aCEJRYXXOnDkyZswYuXDhgjlD5PgYJBJRqN2/f1/7SKHiG/Yh5syZ05whIlthdaNu3bp6jItOVC9Fmum0adOkf//+WsWRyNGgyEyyem0lx+S/NGU0UYVa4pkhm+XEyzc73GJ6Suyc70iSak0k86jfJOuYBZKwTDW9UWIvaA+DFFHceIFMmTLJ5cuXpUOHDnqjM7RwQwd/N94Pd+7caWaJHJubP2ppU4RDLysvLy/x9vbWFxZX8+zZM616+eGHH7LBs4NCmg4qyWHjPvYhRgY+jyisosJzCG/Dx44dk6+//lq++eYbLa6BrwWNwUuUKGEeRVEZX4ts52f5nvk+8BZ/y2f3GDHFI14CcQvr/kUboXcvMmCQLooevj///LNkyJDBnLUdKqoGtqOxtaI3n0NkjYiMH7iSSEQ2GzdunO7tGDJkSKQFiETO4M8//9Q9U/h96tatm7Ru3VorJ+bPn58BIjk1d0sgFD1BEk0ljeaVKMIDRChbtqzuK0TvQ6SOoq9io0aNZNeuXeYRtkGxnAEDBmjRtsmTJ5tZIsfEIJGIbII7rUiBw91XIgodFLvAqsM///yjv09ILcVeQ6SZIlAkooiDvodTp07V1hlIR8WN0LC8x23dulW++OILWbt2rZkhcjwMEonIKkhxwF3Spk2bysmTJ7WIBhHZBsHh2LFjpVOnTvr7VLRoUWnevLnEiRNH+68lSZLEPJKIIlLKlCk1sEPhKLRzwh5F3LBBYRpbpUmTRk6dOqU9Gnv27GlmiRwLg0QieqvDhw9L5syZtTkximcgLYeIbIMAccGCBRI3bly9GMVqQ/r06XUfUrFixcyjiCgy5cqVS5YvX65BHtrQICV8yZIl5qz18F6ZNm1a+euvv6Rq1apmlshx8EqPiN5o0aJFkjBhQvntt9+0UA0R2QbBIcrjf/7559KwYUMtSoHqigkSJNC9h7YWuCCi8BUrVizp0aOH7lU8ceKEri52795d+wHbAq030HQfxXCQjcOm++RIGCQSUYjatm0rXbt21eMKFSroZyKyHiqXYq8TqtC1a9dOe4oiMMTep9y5c5tHEVFUhBRUrCoi9RSr/9iniCb8tkDmzYQJE3RVsnDhwgwUyWEwSCSi16Ctxa1bt+Ts2bNy+vRpSZEihTlDRNbAhSCKX6ACMFYNUZTm008/lUSJEknBggXZEJ/IQWDlH6uK6Nd48OBB/d398ssvZfXq1eYR1kGLDfQSrlSpkpkhitoYJBLRS3DHFA2GUXkRb4JMhSOyHSqWenp66mo8Cj1hT+/SpUvD1IONiCIPbvAgA+DixYt64+f333+3uc0Fqhdjf2Pv3r21DypRVMYgkYheUqRIEe3XVrduXTNDRNb6448/tIQ+9i8hVa1Jkyby+PFjKV26NFcPiRwcVhX79u2r+/SPHz8uqVOnlpEjR9rUVxGFqyB79uy6T5EoqmKQSEQKdziRDnP06FFNrSEi22DfEfodtmrVSlfknzx5ovuZuPeQyLnEixdPbwitWrVKatasKSNGjJB58+aZs2+HwBKrkZs3b+YeRYqyGCQSke6vQGDYuHFjTZEjIuvt379fA0Rc9KHnYYMGDeT8+fNSv359iRkzpnkUETkTtLhAWjn27GNFMGPGjDJz5ky5ceOGecSbDRgwQFcTkYJ+584dM0sUdTBIJHJxBw4ckFSpUum+KbzJEZH10PcQF3t16tTRSqZr167VFYVChQqZRxCRM0Pl4ilTpsiwYcO0iT5uDqEKqjWyZs0qHTp0kLx583JFkaIcBolELgoVTIsWLSp9+vTRN6nAfRJE9HaPHj3SIhbvvfeeTJs2TXr16iVr1qzRghRJkyY1jyIiV4C9iYsXL9bKxVgZjBMnjmzbts2qwA/9U/Hagab79+/fN7NEkY9BIpGLQopprly5ZMWKFWaGiKyB5to1atTQVFKkmmEvL260VK9e3TyCiFwNWmSgoE2zZs2kZ8+esmfPHl1VvH37tnlEyNAa499//5UuXbqwmA1FGQwSiVwM0krRzBsXttOnTzezRGSNS5cu6UUf0svOnDmje5BQhKJkyZLmEUTkysqWLauriihog2wdbOmwpt0FVhQrV64s/fr1MzNEkYtBIpELwZsVWlx89tln4u7OX38ia/n6+upF3JgxY/R3CMEhAka0uCAiehH2KSLtHFWO0RexZcuW8ttvv5mzIUPRK7zGII0drXOIIhOvEolcxLp16yRJkiSycuVKadSokZklordBQZotW7ZoShj2HqJYDaoBDxw4kDdbiChY6Kk4atQoLWr1ww8/aLsLa/opxogRQ29EoZgNagcQRRa+uxG5gEmTJuneCG9vbylWrJiZJaK3QXp2w4YN9c5+jhw55OOPP5Y8efJo+XsiordBKjpaXBw5ckTHrVu3llu3bulxSLCaiH6r+HOsekqRhUEikZPDGwyCxL1792pPJiKyzrlz57QgDVYDcBwtWjTda4QVRSIia2XJkkUzEFARGa8pdevWlevXr5uzwcO2kO+//15KlCjBQJEiBYNEIifWvn17TY9Digv6NxGRdWbNmqX7in7//XdtmI3xO++8I15eXuYRRETWS5w4sQwaNEiOHj0qxYsX15tOb+un+NVXX+lrTuPGjc0MUcRhkEjkpJo3b677qL799lszQ0RvgwI13bp10zYXCBL/+ecfTS9FyxgiorBCTYCUKVPqe/O4ceNkxowZ5kzwVq1apemns2fPNjNEEYNBIpGTQVoKqql17txZ9u3bp5vgiejt0CAfH1WrVtWUMNxoKV26tLRo0cI8gogobNBPEf0QhwwZov1WL1++LE+ePAkxpRTFsQL7sXbv3t3MEoU/BolETgRvMti/8NNPP2l1NFZeJLLOzZs3pXbt2nL8+HHJly+fpnehX5mHh4d5BBGR/eAGboECBWTNmjWyaNEibZPx7Nkzc/ZleC/fvXu3riqirQZRROAVJJETwcb4tGnTyurVq80MEVkDd+mHDRsm9+7d09L1LFBDROENqezouZotWzapVq3aG1NPPT095fDhw/qYefPmmVmi8MMgkcgJoOlu/vz5dRVx4cKFZpaI3gZ359euXat7fo4dOyYTJkyQWLFiSYIECcwjiIjCD4rKFSpUSObPn6/v42i6/6bKpx999JGmw6PvIlF4YpBI5OCePn2q/dvKly8v6dKlM7NE9DYbNmzQaoOoNIhUbewNmjNnjgaJREQRBfsUUUF569atkihRImnQoIGcOXPGnH1Z1qxZZfny5bJ+/XozQxQ+GCQSObD79+9rs2/0Uho7dqyZJaK3QUCYKlUq+fXXX2XlypV6F//TTz/VsvRERBEtZsyY+hqE1UQ04Mdq4sOHD83ZlyFrCH0UM2fO/NbG/EShxSCRyEHdvXtXVxCXLl2qFdKIyDrYz9O3b1/dBzRx4kQNDBs2bGjOEhFFDqwoJkuWTPdFo0crXpe2bdtmzr4MexTbtWun/Vt9fHzMLJH9MEgkclDNmjWTtm3b6t1EIrLOhQsXZN26dTJp0iT5888/dW8PqpoSEUUFCBQHDBggFSpUkB9//FG+/vpruXHjhjn7sj59+mjBLdw0JrI3BolEDgZvFqiChruMeCMhIuv8/PPP2iwfxWlQbh69yWLHjm3OEhFFHagzgFVEFLZBi56NGzeaMy9Dc/6mTZvKJ598YmaI7INBIpEDuXPnjuTNm1fKlCljZojIGiNGjND9uyjuhF6I9erV0w8ioqgKr1HYn/jHH39o3QH0VAwOtp2gkM20adPMDFHYMUgkchBoc4FiG0gv7d27t5klord59OiRlpgfMmSING/eXPf81KpVy5wlIoq6sLWkV69eurJ47tw58ff3N2eew75qtPOpUqVKiHsYiWzFIDGU0J+mevXqWh0P+eNI/SMKL6himiVLFn2DQPUzIrIO7r6jOA0usBAg4s58kiRJzFkioqgP15np06fXtj0DBw7UlcVXoXUG0lI//PBDzZogCisGiaH04MEDLVOMvS1E4a1IkSK636BSpUpmhojeZtmyZVqopmPHjnL69GltmI+be0REjgZN9FHtFAXrZsyYIX///bc581zu3Lnlhx9+kPr165sZotBjkBhKWNJHxSmmLFF4QoopVkE2bdqkqXJEZB30PsTqISr/oagD9iEi84OIyFHhJhcqmcaLF08DwkOHDpkzz3388ceyc+dO+fbbb80MUegwSCSKotD3KE+ePHpxiz1URGSdKVOmaDoW+ogtWLBAGjduzFV4InIKuXLlkrJly0r//v11r+KOHTvMmefc3d11GxRWHYlCy80/uB2wZBPkii9ZskRTAUKCUuv4CIQ7QWnTptV2BvHjxzezruPZs2eydu1aef/997VpLL0OVcq2b9+uZfspeHwe0auePn0qI0eO1AJP48aN0z28KOoQEj6HyB74PKKwsvU5hOtH3ESeNWuWbn3CteiL8FpYtGhRraHhiteZzgrxA/bVe3t7h/vPlUGiHVgTJA4aNEgGDx5sRs/NnTuXfbroJX5+froxvX379pI6dWozS0Rvs2fPHrl3756UKlVK9+xgBR5FHIiInNHy5cvl9u3bWtQmY8aM2lPxVbNnz5Z3331XMmXKZGbIkT18+FCzYxgkOgiuJNqOd11DhrQ4pIpgTxW9GZ9HFAh7cIYOHSq//fabviajb5g1xRv4HCJ74POIwiq0zyEsQCD9FK9/SLXHteWLcC3RqlUrOXbsmMSNG9fMkqPiSqKDsSZIfBV+yF5eXhHyQ46K8GK4YsUKvcvPN9Tn0Opi/Pjx0rdvXw0U6c34PCJAgSekXaFRPlYQkyZNKo0aNTJn34zPIbIHPo8orMLyHEJ7rD///FMKFy6sKaavpp5+/vnnWuMARW3IsUVk/MCr0FDCxTxSm/ABKK+OY/yiEoVGmzZtpE6dOvpizgCRyDpocVGjRg3JkSOHVgE+cOCAloknInIV2JqyZcsWuXLlimZQ4MbZi1DlGRVRcQOayFq8Eg2lXbt2ScGCBfUDevTooccDBgzQMZEtfvzxR1m3bp3uLyAi66ACMNKo0CYGTaSLFSsWbAEHIiJn5uHhocXubt26pa+JrVu3llcTBStWrKiPwWolkTUYJIYS8r/xC/jqx/Tp080jiKyDUv21a9eWffv2vbEKIxE9h8p9J06c0FR/BIvohZggQQKm+hGRS0LLn08++UT++usvDRRR8wLXpYFQJHHNmjV6nsgaDBKJIhGKa+BFHRVNuaGcyDq48OnUqZMcPXpUL4yQQjVz5kyJGTOmeQQRkWvq3r27DBkyRH766ScZPXq0mQ1QoEABzXgrUaKEXncQvQmDRKJI9MUXX2gPo1SpUpkZInqbjRs36h7EChUqyP/+9z9ZvHixpEyZ0pwlInJd2J+IABE9Yo8cOSL//vuvORMAGRcofNKkSRMzQxQ8BolEkQCVGFGoZv/+/ZI7d24zS0Rvs3r1aq3Sh7vlLVu21P2HLPRERPRctmzZ9PoCWRfooYhg8UXLli3TQJHoTfjOShTBsLEcjW3RC4mIrLdjxw4tUoM74eiLWKVKFSldurQ5S0REgUqWLCm5cuWSyZMnS8eOHeXatWvmjGj9A7yWomUG9i4SBYdBIlEE+/vvv6VPnz5WNfomoueQZoo+iKgCnCxZMt3PS0REwUPl/Q4dOkivXr3k559/NrPP1a1bV8qUKWNGRC9jkEgUgbBZHAVqevfubWaI6G3Q8+ubb77RmyuoaIoy7mnTpjVniYgoOEjHxzUH9ihWq1ZNXztfrHj62WefSeXKlbVaNNGrGCQSRZB69epJjBgxtH0KEVkHFzRdu3bVqnywZ88evdBhuxgiordDD8WpU6fK119/LdevX5cxY8aYMwFQARWp+2jGT/QiBolEEeDu3bt6F2/Dhg1mhois8ejRI3nvvfe0kmnPnj21WE2iRInMWSIiepskSZLIggULNJvp3r178uzZM3MmwMCBA6VWrVqatUEUiEEiUTjDHqqCBQtK8+bNWYWRyAbbtm2TX3/9VRvlY28NVuGRPkVERLbB9cfJkyfFx8dHZs+eLZcuXTJnRAuAIfX06tWrZoaIQSJRuMILMkr1r1+/3swQkTUuX76sfUSRpu3r6yvlypWT6tWrm7NERGSrFi1ayMOHDyVDhgzSunXrl1YUkanRr18/mTlzppkhV8cgkSicXLlyRVM3sIcKfYqIyHoPHjyQCRMmyIULF2TYsGFahY+IiMIGexLRRgg33c6fP29mAwwaNEi6deumrbqIGCQShQOkcxQtWlQ2bdok6dKlM7NEZA3sj8FexDRp0kiXLl30jjcREdlH8uTJZeHChXLq1ClZtGiRmRXJmjWrFrjBPBGDRKJw0L59e6lYsaI2sCUi6/3111+aaponTx4tyz5ixAhJkSKFOUtERGGVKlUq6du3r3h7e8uUKVPk6NGj5ozodcv8+fPl22+/NTPkqhgkEtkZUjlwYYuS00RkPbS78PLyknHjxmlfL5RkL1SokDlLRET28sEHH2i100aNGr1UxAbQfH/48OFy+vRpM0OuiEEikR1NnDhRg0Q0ryUi6/n5+enFSo4cOTTVac2aNdo2hoiIwkfSpEllzpw5EidOHBkyZIiZFUmWLJl89913cvjwYTNDrohBIpEdIW1jx44d2jSfiKyHu9bohYgbLLFjx9YbLmwZQ0QUfqJHj65ZG7huuXjxoqb7B2rWrJkGiUOHDjUz5Gr4DkxkB3fu3NHS0rt27dJcfyKyHtJMESCiQA3SnFAVmPsQiYjCH9phtGnTRvLnzy/37983swHQ33n06NFaZZpcD4NEojBCmlyxYsUkU6ZMZoaIrIVWF+iFWKRIEU0xffLkieTKlcucJSKi8BYzZkzZt2+ffv7000/1xh0kSZJEq53+73//0zG5FgaJRGGEqmCFCxeWAQMGmBkishYq7LVr106PUZYdRZ+IiChijRo1SrOhMmbMKD/++KOZDah2eu/ePd2jSK6FQSJRGOBFc8GCBbrxm4hsg7vVjRs31nYxTZs21Z6i2I9IREQRC8VrvvjiC4kXL54WtHkRioih0f61a9fMDLkCBolEofTPP//I4MGDtSciEdnm9u3b8sknn8i7774rM2fOlLx580qiRInMWSIiimhubm6aHYW00x49euh2GkCthc8//1x+//13HZNrYJBIFEr//fefriKiVDQR2aZbt27SoUMHPc6aNav07NlTj4mIKPJ89dVXsnXrVsmePbt8//33ZlakT58+cvDgQb2pR66BQSJRKKABbcmSJbUiIxHZBmmmWEUsWrSotGrVSvLlyyfRokUzZ4mIKLJ4enrq3nC0I3q15zMyp7p3764VqMn5MUgkslGnTp00BQMXtkRkm1u3bknXrl2lbNmyMnfuXK0K/OqFCBERRa4TJ07oPsWBAweKr6+vzuXMmVPatm0ru3fv1jE5NwaJRDZKmTKlbNq0yYyIyBaoZopiNYA9iEhhIiKiqAV7ENH6AvsRX0w7HTZsmG612blzp5khZ8UgkchKly5d0qaz/fr103QMIrIN0kyrVKkixYsX115cWE2MHj26OUtERFFFjBgxtBUGWmKgoM2LsN2mfv36ZkTOikEikRWQXooXxV69eom7O39tiGz16NEjLa9eu3ZtrZDn5eUlsWLFMmeJiCgq+uOPPyR//vy6mhjYZL9OnTpa2ObkyZM6JufEq10iKyBIxAVu586dzQwR2WLIkCG6gghPnz7VFXkiIorahg4dKlOmTNG2RYsXLzazIqtWrZLZs2fL/fv3zQw5GwaJRG+xcOHCoCqMRGQ73H1Go/zq1avr3ejKlSszZZuIyAEg62PWrFlStWrV1wrW3LhxQ+rVq2dG5GwYJBK9wbVr17SSF14gich2CBBHjx6tpdMPHDgg27dv14sOIiJyDNiTOHLkSGnQoIEsWbLEzIp899132nz/7t27ZoacCYNEojfA/kM0js2dO7eZISJbIB0psOjBjh079EKDiIgcy6hRo+Sbb76RpUuXyn///adzuEY6deqUpp6S82GQSBQCrHx069ZNqlWrZmaIyFbHjx+XLl26yMqVKzVdKXXq1OYMERE5irRp08r06dO1NQZunr8I+xZRCZWcC4NEomCsXr1aUyqmTp1qZojIVqiKh0bMDx8+lDFjxkjixInNGSIicjRYOezYsaMMHjxYtw8EQu0GzJFzYZBI9IrHjx9Ljhw5ZO3atdoniIhsd+TIEfn111/Fw8NDli9fLv3795do0aKZs0RE5GjQ1xaZIbjph163gZVNs2bNKgcPHpQrV67omJwDg0SiV5QrV05XQPLly2dmiMhWKJk+bNgwOXfunJQpU0Yb5xMRkWOrWbOmtGjRQnr06KHVqgMlSJBA6zcwUHQeDBKJXoBKXbdu3dI7ZUQUOseOHZOvv/5aMmTIIL1799bVeSIicnwoRBY3blyZP3++1m24d++eziNTBNdO9evX1zE5PgaJRAYuZEuWLCkbNmwwM0RkKx8fH+nQoYN+/vfffyVNmjSSJUsWc5aIiBxd0qRJJWHChPL777/rHsVAAwYMkJ49e5oROToGiUQWfn5+miaBXj+pUqUys0RkK/QUbdiwoTbLz5w5s6acEhGRc/niiy8kW7ZsGixu3bpV51DYJleuXJI3b14dk2NjkEhk0alTJ0mfPr2UL1/ezBCRrZ4+faqpRp988omWSEfhGhZ/IiJyPkmSJJFHjx7Ju+++q4VrAuH4yZMnsmjRIjNDjopBIrk8XNjWrl1bVqxYYWaIKDRGjBghf//9t6aaool+69atzRkiInI277zzjvzyyy+yZs0abbIfaMaMGXLt2jUzIkfFIJFcGtJMUVwjU6ZMmh5HRKGDC4Jt27ZJxYoVtYABLhxQLp2IiJxTnDhxpF27dloNfvz48eLr66vzJUqU0OOff/5Zx+SYGCSSS2vSpIkUL15c904RUeihH+LYsWO1bxYK1+DGCxEROTdsMThz5oxu2wmsdArvv/++7lvEzXhyTAwSyWXhhQv9flDGmYhC7+zZszJ58mQtYoA2MtWrVzdniIjI2T179kyOHj2qaabYwgPZs2fXvtPIMCHHxCCRXBL2TKVLl04qVKigqXFEFHqoYFqpUiU9xgoig0QiIteBug779u3T/olTpkwxs6I34bdv3x4UOJJjYZBILqlu3bpStmxZrc5FRKHn7++v7WMKFCigq4lVq1bVZstEROQa8Jo/Z84cKVOmjJw+fdrMBkCQ+Omnn5oRORIGieSSsOqBEv1EFDZoc4Fmyihcg+p2Xl5e5gwREbkSvBf06dNHduzYYWZEi5gtXryYexMdEINEcilIM0U6XNOmTbXpKxGFHooV/PHHH1q0ZsuWLdKrVy9zhoiIXAlWExEkIij8/PPPtVciJEiQQPetX7hwQcfkOHiVTC4FwWHhwoU1b56IwgariLgY8Pb21pRTpBoREZFrQjFAXGehcvzcuXPNbABsSXj8+LEZkSNgkEguBdW2Xn3hIiLb3bhxQ0ue58+fXyZMmCAnTpwwZ4iIyBVhNfH8+fP6/tCwYUPN3gL0oa5cubJ07txZx+QYGCSSS0AuPO5iIVee1UyJwm7w4MEaGCKlaOPGjfLhhx+aM0RE5KqKFSsmq1ev1roPyDYJNGnSJKlRo4YZkSNgkEguAXevkidPLrFjxzYzRBRaN2/elHPnzsk777yjN10WLlzIiqZERKT1Hr788kupWLGi9k0MLFiDbT5432jfvr2OKepjkEguY8mSJeaIiMIiXrx48uOPP2rvq1q1aumYiIgIsD993bp1mnHyYo/EFi1aaO9E9k10DAwSyenhbtaIESO4ikhkB48ePZIuXbpI6tSptS8WChVwFZGIiF509+5d3Zs4dOhQMxOwmtiqVSs5dOiQmaGojEEiObXRo0drahyrmRLZB/aZlCpVSo/Tpk0rH3/8sR4TEREFatOmje5XR0VTNNQPNHLkSJk6dSr7JjoABonk1Hbu3Cl//vmnGRFRWMWMGVOr1m3btk1ixYqlVeuIiIhe5OXlpauI9evXl71798qdOz6ya+dd+X3xdVm58l+pXKmvDB1yRoZ/e06mTb0sa9fckiOHH4iPj7/5GyiyMUgkp4Xy/GPGjJE0adKYGSIKCzTML126tESPHl3Gjh0rmTJlMmeIiIhedv36dfnqq1Fy53Y+6f/5Tpk/77ps335XypYeIv/+u1i8vX3l5o1nluDwoaz767ZMnXJFvv7qjKxedctyLqB9BkUeBonklLBh+vfff5cUKVKYGSIKq+HDh0vixInlwYMHkiFDBkmZMqU5Q0RE9ByCvLVrosupk09k+7b/ZOeuaTqPLNOECdNL82Z/yM2bAf11/f0D5uHhQz9Zv+62DB92TrZu8bbMc2UxsjBIJKc0fvx47c+DUsxEFHaXLl2SjBkzagrRmTNnNGAkIiJ61b6992Xk8HNy4vgjKVPmM0mfvrRcv3FEnj17bB6BVkonZP7C5mb0MgSNSDtd+vsN+WniJbl3j6uKkYFX0OR0Jk6cKN99952mxRGRfWD/IX6v7t27J3369GFFUyIies32bd4ye9ZVefrUX1cH48ZJKpv/N0KqfjhaokWLYR4lkjx5HokePbacOr3JzATv3NnH8sP3F3VPI0UsBonkVK5cuSL9+vXTlDgisg8Ehk2bNtXAcNasWdKsWTNzhoiIKMDu3fdk8aIbZvRckiTZ5czp/8nvSzuKP5YJjepVx0qihG/e245AE6mrP0+8KA8f+ppZiggMEsmpdOvWTXr27MmWF0R2NHv27KBWF3Xq1NEG+kRERIFu3XomC+dfN6OX5cpZXXx8n0jixJnl0uXdZjZgNXHFyl5y+/ZZMxM8BIq3b/vI70teD0Ap/DBIJKfx33//yahRo+SLL74wM0RkD8WKFdPgcNeuXbJ48WKJEeN5yhAREbk2FJeZ/9s18fUNvshMjBhxJVWqgpIxYxkz81y69O/KX+sGmVHIECju2X1fDh54YGYovDFIJKdRo0YNOXEioFIWEdkH+iFevnxZA8NffvlFypcvb84QERGJHDz4QE6deqyBXEj8LSePHl0h9+9fk8ePvc2syLvFO0m0aNb3212y+HqIwSjZF4NEcgrffvutluQvW7asmSEie5g0aZLkzp1bj/E5e/bsekxERARb/+ctb6tlljRpdrl795IlwHsqhw4vNbOWQMQ9mpQq1UP27P3VzLzZ3bu+2leRwh+DRHJ49+/fl9atW8uyZcvMDBHZAwoMoNcobsD8/fffQfsSiYiI4Nq1p7qK+EI9mhDVrDFBsmapKJcv7zUzAWLHTij/2zJa/N60FGkgGN265Y4ZUXhikEgOr27dujJmzBhJkCCBmSEiezh+/LgMGDBAj4cMGWJ5I4+tx0RERIBVPWs7Ivn7+8nylb2lSuUR8uTJPTMrEid2EkmYIL0cO7Fa/OLelWfZDsrjcqvkYb2Z8qDxZHnQcKo8rDFPnhTZIs9SnZUTZ+7Ls2dvDygpbBgkkkM7ePCgFqz5+uuvzQwR2UuPHj30zi6CxSxZsmivRCIiokAXLjyxOkiMFi2mRI8ey/Jndsrm/400s5bg0c1P6gzsL0n6HpZ7fQfIw6a/yJMya+RZnt3ik+OA+OTcJ8/e+UceV18oD9qPFe8+X8oc76lyw++K+RsoPDBIJIeWMGFCWbhwobi786lMZE8nT56U5MmTS5w4cSRz5swyevRoc4aIiCgAmt1bkSUapHChlhIvXgq5431e9yf6pDkj97sOk6fNZ8r8BlPlzon7AQ/0sPyl7v4iCEBxiYdxYDAa65Fsj/2n9H/SRn59+rM88X9sTpA98cqaHNbSpUu1qXfp0qXNDBHZS+rUqWXYsGG6L7F27dpse0FERK+5f9+2BvfJk+WS8xd2SMlSXeVh2T/kQdvvxC/hTT2XrUla2d73kB6/DVYfYZPvchn0uKOc8LXuz5H1GCSSw+rQoYMMHjzYjIjIXpBi2r17d0mWLJkWrMmXL585Q0RE9Jwtq4iBbnuflocVl8ruAzNE3PwDVgktCn6eVVKUTKTH1vK3/O+23JQxT/vJXt9/zCzZA4NEckioaIpKiyVLljQzRGQv27dvl6RJk+qxh4eHtGjRQo+JiIheZHmLsAlWADP1FDl7dIdc/eeWPPV+Zs6IRIvhLjETRJcDP502M9bxFz/xtXz89PQbOeS728xSWDFIJIfz9OlTrWg6cuTzTc9EZD83btyQxo0b6+/auXPnJFOmTOYMERHRc4kSRTdH1nn67kaJX/WyFOiZWTLXSyU39jxvrA/JiiaUvaNPmpEtsKboL5OeDpe7/rfNHIUFg0RyOG3btrW8KNmWjkBE1kGqaeLEiSVHjhyyevVquXDhgjlDRET0snTpPcXa2oG+Sa/I4/eXawGafd+fkljJPSVexpdbKyXOE19ipYgpj289NTPWQ5D4RB7J7KcTdD89hQ2DRHI4Z86ckalTp5oREdnT1q1bZd26dXq8YsUKadCggR4TERG9Kk3amFbvS3xUfYHl/wOCt0y1UsrpJZdl56Cj8vDqE50LVGNdSbm5764Z2cbP8r+9fv/Ifr+dZoZCi0EiORSU4V+8eLF4enqaGSKyp/nz50u9evXE19dXxo8fr1VOiYiIgpMnTxxxt2Jfom/yS+Kb8WRQkZoE2eNKusrJJEO15HJ2+ev9Dv/6+F/NbAkNd8v/1vksNSMKLQaJ5DDOnj2rJfnjx49vZojI3gYMGCA5c+bU1cQffvjBzBIREb0uThwPyZ8/7ltTTp8W2WqJFF9+UAyv6BI7paekKPHyFiIUsEmYM54c/uWcmbENVhOP+O2Tq34XzQyFBoNEchjdunWTXr16SbRo0cwMEdnT5s2bZfny5XqMFftq1arpMRERUUhKvef1xpRT7BV8lve/oFXEQNHjRZNTiy7JxY035Mmd51VOofSP+SR1uSRmZDusJv7n+7cZUWgwSCSHgFXEn3/+Wfr06WNmiMjeFi1aJMWKFdPj8uXLS5YsWfSYiIgoJGnTekrJUl7i5mYmXuHvdUf8Yz8yo+cS5Yonj28+lehxo8m5lVfNbIAE2eLKpg575eGVx2bGNtj5eNbveMCAQoVBIjkErGisXLlS3K0toUVENkuXLp1WNT106JBkzZrVzBIREb1ZlSqJxMsrWrCBom+q8+bodeWmFNQVQ+/jD8zMcwktQSQK24QGeiee9jtmRhQavOKmKG/jxo3i7e0tzZs3NzNEZG+XLl2SWrVqWd7g3WT69OlmloiI6O1ixHSXT1qmkBgx3F4LFP0S3LL8X/DLjFd33JajM89L7vYZxOexr5kNUHRgDl1pDK07cpOtMMKAQSJFefny5dNS/EQUfmbPni2nTp3S4yNHjkiBAgX0mIiIyBopU8WUtu1SSUxLwPhS4lc0HxH/4IPEZEUSyrWdd+TU4sty4a/rZjaAZ5IYkqdTRrl5IHTtMMBPXg48yXoMEilKQ4VFpJrmyZPHzBBReEDRmtKlS2vJ8SVLluiKIhERkS3SpvOULp+mllSpY5oZC59oIm7Br+i5e7hJrjbpJc0HSeT8mpeDRLi264780++wGdnOXazoz0HBYpBIUVqHDh3ks88+MyMiCi8oDBUjRgyZNGmSrF271swSERHZJmnSGNK5S2qpWi2xRIvmJm73vCwRR8hpnwlzxpUHFx5L1kav9+XN2zmDXP/vjhnZJp6gmA5veIYWg0SKsrCiUalSJalRo4aZIaLwgKqmx44FbPDH6n2JEiX0mIiIKDTc3d2kTNkE8uXA9FIpV14zG7wY8aLL4Snn5PH1p3L31MsFbKJ5RpNqq2x/T7KEppLRPbsZUWgwSKQoq169ejJy5EgzIqLwgvTS3Llz63HVqlXFy8tLj4mIiMIiViwPqVwkm8SUWGbmddh76PvET9yiiZx9pRUGPLn1VJZV2WZG1kGQmN6dbZzCgkEiRUlod7Fnzx7x9PQ0M0QUXrJlyybJkiWTo0ePchWRiIjsCimfBdyLv3F/4Pu/FpKU7wXfCiNFqURyc99d8fN5Q8f+V/hZ/pffI6DvL4UOg0SKkqZOnSo//PCDGRFReLlx44a0adNGj2fMmCH379/XYyIiInspF73qGyuNXt91Rw78cEqKf5NL/J69HAyiR3amOinl7qmHZubNNNXULZukdc9kZig0GCRSlLNr1y7p27evVKlSxcwQUXiZO3eu7N69W4/xuWDBgnpMRERkLxkQtLllsgQewYceifN7aSXTQ5PPysWNN8zscyVG5ZFzq15PRQ2Ov+V/5aOxnkVYMUikKKdZs2Zy9uxZMyKi8ITWF++9954ez58/X+/YEhER2RNSTj+O0UkDuOB4xHCXTLVSSqrSieXy/26a2eeiWc7vHnHirSmnCEKzuOeWwh4B72sUerwaoChl3759cu/ePalTp46ZIaLwNHDgQIkXL56sWbNGVqxYYWaJiIjsK6N7NvkgWm1NBw1OsqIJxcPTXVK8m8jMvCxB9rhydNYFMwqeh0STFtG7ibsbQ5yw4neQohQU0Ni2zbYKVkQUOigOderUKT1ev369ZM/OcuFERBR+qkdrLJnccuiK36ue3HkmJxdeEp/HfuLz8PX9ixVnF5KsDVKZUfCaRe8qSd1TmBGFBYNEijJQWTFHjhySJk0aM0NE4QlVhAPbXSRJkkTy5n1zLysiIqKwiO4WQ7rEHCTp3bKI2ythSNKCXnLjP2+5d/qhXN1x28w+Fyelpywsuln7aAenafTOUjRaGTOisGKQSFEGKix26tTJjIgovN28eVOKFSsmjx8/1kJRHh4hlycnIiKyh1husaV7zKFSxD1g32Bg+ql7dHcpP62gpCyZSK5ufz1IhJgJo8vJ+ZfNCIGMu8SSONI+Rj8pFa2SmSV7YJBIUUaFChWkZ8+eZkRE4cnf31/69esnsWLF0hTv5cuXmzNEREThK6abp7SK2Us6xOgvsSWumXWTU0su6/tTwT7BN8LP3z2zPLr22BLABNzUzOteRL7ynCgFPdjj194YJFKU0LFjR/nggw9YWZEoghw7dkwGDx6sxy9WOCUiIoooBTyKyzeek6Vx9I6Swi21xE0bS67uuCMbW+8V3ycv7ktEcqqHZKqdSsTXTQq7vyd9YozQIDO+W0LzGLInXpFTpEOq22+//SaFChUyM0QU3rB6+O677+rxxx9/zN8/IiKKFJ5usaVMtCoyKOaPMrzkT1Lcs4zkyZpXYu5LJKndMkg6t8yS272gVI5W1xIU9pM7c/wkw5YCktkjp7bWoPDBIJEi3bJly+Sjjz6SGDFimBkiCm+5cuWScuXKaVrPr7/+yt8/IiKKVAj48iQsIC3LdZB+Nb6SFrE+lQGe46W/5zjpGnOw1IzeRAp4lJAG9RrIhAkTzJ+i8MIgkSIVKlRhJXHq1KlmhogiAqoJJ0uWTM6ePSuXLz8vAkBERBSZxowZI6lTp9brw+D06tVLxo0bZ0YUXhgkUqSaOHGi/Pjjj2ZERBHB29s7qFANgsTSpUvrMRERUWQrXry47NixQ4YNG2ZmXhY3blypXbu2XLjw5sb6FDYMEilSjR49Wn744QczIqKIsHfv3qA9iAUKFJAGDRroMRERUWRDAIj3qHjx4sndu3fN7MvQV/u7774zIwoPDBIp0iDVdO3atfLOO++YGSKKCKhk2r17dz1u0qSJ+Pq+WEGOiIgo8iRNmlT3ymMhwdPT08y+rFu3bnL//n0zovDAIJEiTY8ePeT69etmREQRpXPnzvLgwQO9UYOPaNGimTNERESRb+PGjfo+hWAxOIULF5aiRYvK06dPzQzZG4NEihTnz5+X27dva945EUWsM2fOiJeXlzx58kS6du1qZomIiKKGzJkzS5w4cWTlypVm5nWTJ0/WFmoUPhgkUqRAkNiwYUMzIqKIgpYXFStW1OMTJ05I+vTp9ZiIiCiqwH7D5MmTS8qUKc3M6+rVqydz5841I7I3BokU4Xx8fGTKlClSpUoVM0NEEQUp3igKAH/++afcunVLj4mIiKKKDRs2aGHDAQMG6HVjcFq3bi1DhgwxI7I3BokU4UaOHCmXLl0yIyKKSGh9sXPnTj0+ePCgNtUnIiKKSvLkySP79u3Ta8ZDhw6Z2ZehFUbv3r3lxo0bZobsiUEiRbiFCxdqxSoiinhof5E/f349/vnnnyVBggR6TEREFFUkS5ZMKlSoILlz55YDBw6Y2dfhPQzvZWR/DBIpQqFxN9pecPWCKHK0a9dOMmbMqOk7ffv2NbNERERRCwLFUqVKSc6cOc3M65ByimtLsj8GiRSh6tatK0uWLDEjIopof/zxh7a8QNGakPpPERERRbalS5dqsbWjR4+amddVq1ZNGjRoYEZkTwwSKcLcvXtXTp8+La1atTIzRBSRHj16JDt27NBj9J8qX768HhORbfz8Hll+h3Za3tfWyJ07f1g+ftf5u3f/kvv3t4qPzx0dE1HoZc2aVY4fPy6zZs0yM8Fr27at7l8k+2KQSBEGTbunTp1qRkQU0S5evCgFCxbUY6TxMEgkejs/v6eWwG+7XLs2Qc6c+UQOHswpu3fHlSNHilouYCvJyZM1LfPN9bGnTtWRo0dLyd69CWX//gyWcUO5cmWkJXhcL76+9/UxRGSdFi1ayLvvvqtZL+jrG5LSpUvL9OnTzYjshUEiRZjKlStrWgARRQ70ROzfv78eDx06VG7evKnHRPS6p0/PycWLX8i+fSktgV8JOX++i+V3ZrY8fnzEctYv4EFv8PTpWbl9e6Hl7/jMEkxWsASOSeXs2fby8OFe8wgiepPHjx/LpEmTdCUxRowYZvZ1n332Ga8vwwGDRIoQ69ats7xZ3hZ3dz7liCLLiBEjZPv27XqMNjSpUqXSYyIK4O/vJ97eq+XEieq6Enjlyrfi6xvYS9Tf8hF8v7aQ+Vo+AgJKf//HcuPGFDl8uIAcOVJCbt2aK35+Ia+OELm6xIkTy+bNm2XZsmWyfv16M/u67Nmza/N9si9esVOE2Lhxo/Tr18+MiCgyHDt2TLJly6bHvXr14k0bohc8eLBLDh3KYwkQK1sCxVWWGQSFCPLsKSDIfPBgh5w+/bElEE0rd+4s1Tkieln06NG1Gnf8+PFD7JUYCO2dTp48aUZkD7xCoHD38OFDvcvTvHnAng0iihzYg4g7s2h/wTdTogBYzbt4sb8cOVJMHj8+ZmZtXTG0VcDqoo/PTcvv4kdy6tTHluPAFUsiCoQtEri5icb5b1KmTBlZuXKlGZE9MEikcDdw4ED5/feAym9EFHnSpEmjn8+fPy///fefHhO5soDVw/xy5cowywiBm71XDt8mIFi8fXueHDiQjauKRK/44osvdEURxWneZMaMGdK4cWMzIntgkEjhbs6cOTJy5EgzIqLIgNXD8ePH6/GZM2ckU6ZMekzkqq5cGaWrh0+enLCMkFoamXzF1/e2riqeOdNa/P3DeyWTyDHg5iYqc3fr1s3MBA8V9HPkyGFGZA8MEincbdiwQXPKiSjyXL58OahQTbly5d76hkvkrNCc+8KFzywXnr0to8hYPQxJwKrizZtTLcFibctF72MdE7kyVC1NkSKFHuN3NyTYY48KqNeuXTMzFFYMEilc1apVS/755x8zIqLIgr6ISNuBsWPHyu7du/WYyJXgIhOtLK5eHW5moiJ/8fZeLidOfMhAkVxe0qRJ5cqVK9KnTx9dLXyTHj16WH53vM2IwopBIoUb/DKjdHH9+vXNDBFFFvwuBharOXXqlCRKlEiPiVzJpUv95fr1CWYUlfnJvXubLL+r9SyB7TMzR+R67t69K4sWLZJHjx5pRsybVK1aVVasWGFGFFYMEincYMm/Tp064unpaWaIKLK8WKgma9asQek7RK7i6tXvTIEaR4Gejcvl7Nm2ZkzkelKnTi0XLlyQw4cPy5EjR8xs8OLFiyejR482IworBokUbiZNmiTff/+9GRFRZMLKfvr06fW4QoUKvHlDLuXRowOWC81eZuRI/OXmzely+/ZCMyZyLQj8JkyYoHvqL126ZGaDh8dgxZHsg0EihQv0RkSAyAtRoqiha9euki5dOj3+7LPP9DORK0Cl0NOnm5mRI3LT1cRnz66bMZFr+frrr6V27drStGlTMxOygwcPmiMKKwaJFC5GjRol7733nhkRUWRr1KiRfn5TdTgiZ3Tlykh59GiP5chR20r4i6/vXTl3rpMZE7mWEydOaPGaAQMGmJmQoTCbNY+jt2OQSOECKxWzZs0yIyKKKpB2+uWXX5oRkXNDmumlS7hgdPSbI75y584Cpp2SS8qdO7ckSJDgrXsSoVChQrJmzRozorBgkEh2h4I12bJlk7hx45oZIopsDRo00M83b97UIgBErsC5ir4g7bSd+Pk9NGMi19C7d2/tgViwYEEzEzL0VUySJIkZUVgwSCS7Q+54mTJlzIiIIhtWD5MnT67HCBD37t2rx0TO7MGDfy0f2yxHjppm+iqknd6SW7d+M2Mi1zBs2DBNOa1bt66ZCRlqYbRo0ULf9yhsGCSS3SVOnJj54ERRyJ07d4LSv9FoGGk7RM4uoB9itICB03CXa9e+495icim4rrx165b06mVdheKBAwfKP//8Y0YUWgwSya7Onj0rHh4ekjlzZjNDRJHt+vXrkjRpUj0uV66cdOvWTY+JnJWPz23LReUcHAVMOA0/efRonzx8uNOMiZxf5cqVJU2aNFbfHClQoIAsW7bMjCi0GCSSXQ0ZMkQuXrxoRkQUFaA/IvZ0wJw5c7ipn5weegv6+z8zI2cTTa5d+9EcEzm/+PHjy+3bt3Ul0ZpA8fPPP5datWqZEYUWg0Syq7Vr10r//v3NiIiigkOHDgWl3qCMOPuXkjPDReS1a+PNyBn5WC6Y54qPzy0zJnJup06dko0bN8qNGzfk3r17ZjZkuXLlksGDB5sRhRaDRLKbx48fy/HjxzUlgIiijvPnz2vKKaChftq0afWYyBk9e3Zenj49bTly3n17WCW9f3+rGRE5t9ixY8ujR49k69atcvXqVTMbMnd3d+5JtAMGiWQ37dq1Y/81oigI+4QDq5uih1SqVKn0mMgZoaqp84smDx+6wr+TKOB9q1OnTlp0DYXYrIF9+GjJRqHHIJHsBqmmXbp0MSMiiio++OADqVKlih6PHj1aU3aInFVA8ORsVU1f5WsJhlm8hlwDgr3p06dLv379NGC0xv79+3UvI4Ueg0SyG/SvYaopUdQzfvx42bJlix4jLTxmzJh6TOSMAoIn34CB0/K3BMM7zDGR8zt69Kj8+uuvQe9lbzNo0CBp1aqVGVFoMEgMowkTJkiGDBm0EESxYsVkxw7XfNGeNGmSVU1OiSji3b9/X+LGjavHbdu2FS8vLz0mcjYoWhMQPDl/H0Efnxvy7NllMyJyXnj/SpEihd7ktDbdtGzZsnLw4EEzotBgkBgG8+bNkx49emjTzv/++0/y588vlSpVcskc6G+++UabnRJR1IMbWIGr/IcPH9Y9ikTOyMfnqvj6WncR6QwePtxnjoicF/YiYk9ipkyZrL7WLFWqlJQoUcKMKDQYJIbBmDFjpE2bNvLJJ59oud2ffvpJKzBNnTrVPMI14M7O06dPJXfu3GaGiKISvKnitQkWL16sld+InJGv711z5Br8/Fzr30uuCRkCuNYuXLiw5MiRw8y+WYwYMbSaN4Wem+Ub7/w5GeEAQREuuhYuXCgfffSRmRVp3ry5LoUvXbrUzAR48uSJfgS6e/eulqFHAQlH31iL7wXgF9Jaz54900I377//vkSPHt3MEtmGzyPrdOvWTT+QGo8Gw0uWLDFniM8h5/Lo0QE5erSkGUUcP79YcuXKVEmRoqW4uz8ys+EvXbqfJVGihmZEjoyvRW+G966WLVtqOyd8tkbmzJm1v6IztX1C/JAkSRLx9vYO9/iBQWIoXbp0SVKnTi1///33S8vZffr0kU2bNr3WnwUbaINr7Dl37tygO/yOCikAvXv31gtQIop6kOVQp04dLQnu6+vLdFMiInIouN6OFSuWXn9XrVrVzL4Z2rKVKVNGKlasaGYc38OHD6Vx48YMEqMyW4NEZ11J9PHx0X/H5cu2bZ7nHTOyBz6PrHP27FlJmTKlrvZ36NBBJk6caM4Qn0PO5dGjg3L06LtmFHG4kkhhxdeiN1uxYoUUKFBAbt++bfX2puPHj0vChAl15c1ZcCXRAdiabvoq/JBRYTAifsjhCcEyyusPGzbMzFgHL4b4hf/www/5YkihxueRdVCF+eOPP9bN/zVr1nzr65Mr4XPIuTx+fEwOHsxuRhEHQeKlS79KqlSNIjRIzJRpgeUimJXFnQFfi96sRo0a8t133+mixLvvWncjaNeuXTJ8+HBZsGCBmXF8ERk/sHpBKOGOPBp6rlu3zszgTcJPx65UTWnmzJmabkpEURfeKLHqD9j4T+SsPDwSmCPX4OHBdjbkOk6fPm1Tqzlsg9q+fbsZka0YJIYB2l/88ssvMmPGDC0rjzSuBw8eaAUmVzF69GinWsYnckZYQYwWLZoeY0WRyFlFj57MEji5zntSrFgFzBGRc8M2CSzGuLm5mZm3w/Up9uJT6DBIDIMGDRrIqFGjZMCAAZonvWfPHlm1apUkT57cPMK5HT16VOLEiSOenp5mhoiiIrTrCWygjyqnRM4sTpyilv+3/kLSUUWLlsISFPMCmFwDCrChCE27du3MjHXQ0xzBJdmOQWIYde7cWYtCoCgNitWgabWryJ49uwbGRBS1oZ/rtWvXzIjIucWJg5RqZ6/g6275d7rO9Qa5NpRP2bt3r+zcudPmFk6VK1eWkydPmhHZgkEihRqCRDTSJ6KoDXuoURQBunbtqp+JnFXs2AgSA/bgOi83EwwTOT+0bsqYMaMWbUF1U1ukT59etmzZYkZkCwaJFCoIDvGLmiJFCjNDRFFVhQoVtL8UoO0O3nCJnFXs2IXMkTPzdZF/J5ElWHF31yr6iRIl0vZztmjfvr021SfbMUikUEGKLQtgEDkGrPoHllT/888/tRkvkbOKESOVeHrmsBw5775ENzdPiRu3pBkROTfc3EQWTM6cOaVcuXJm1jr58+eX3bt3mxHZgkEihcr//vc/+fzzz82IiKKy3377TW/sAPq7MkgkZ5csmTOnVUeTxImbi4eH4/ZYJrIFstdQJHHZsmWyfPlyM2sdtH9Cr2CyHYNECpX+/ftL3LhxzYiIojLsSXz69Kkef//99ywJTk4vUaImutrmnHwsv8MdzDGR88P1ZrVq1fQGJ2502gKrj9jLSLZjkEg2Q5VE9Fyz9ReViCJH8+bNJWvWrHo8adIkOXHihB4TOSsPj3iSJAl6Fgf0B3UeqGpa3PL+m9+MiZwfWligvRw6CKDlnC2wn3Hr1q1mRLZgkEg2Q2Puv/76y4yIKKo7fvy4nDp1So/v3btnc3U4IkcUsNrmbFVO/SRZsi7mmMg14MbmihUrxNvbO2h/vS3q1q1rjsgWDBLJZlWrVpVHjx6ZERFFdZcuXdJAEVDEBns7iJxdrFh5JF68CpYjZ1lNdNcG+gkS1DFjIteA4NDLy0tWrVoVqp6/uDF64cIFMyJrMUgkm6FKlK3L/UQUeZIkSRK0J7FSpUqSIUMGPSZydunT/yxubs4SJPpZfneni7t7TDMmcg0lSpSQRo0ayYMHDyROnDhm1npFihSRy5cvmxFZi0Ei2eT+/ftSuHBhzfEmIsfw4YcfBrWsQar4kiVL9JjI2cWMmVnSpBlhRo7MQxInbileXpXMmMh1bNy4Uc6dOycDBw7Upvq2+u677yRlypRmRNbilT7Z5ODBg1r4gogcx759+2Tw4MF6nDhxYu05ReQqkibtJHHilLIcOeqKItJMk0ratGPMmMi17N+/X7NhvvnmGy1iY6tx48bJl19+aUZkLQaJZJP27dvL4cOHzYiIHAHKhwcWq8mVK5eULVtWj4lcgZubu2TMON2B004D0kw9PLzMmMi1oKI+WjcdOnRIWzrZCm0wAnsFk/UYJJJNLl68KO+//74ZEZEjwJ7EQoUK6TECRhSyIXIlSDtNl26iGTmWZMk+ZZopubRu3bppmmmOHDnMjG3Kly8v9erVMyOyFoNEssn48eO5H5HIwcSPHz/ozdXDw0NmzJihx0SuJEmSFpI6tSPtT3STRImaSJo0TDMl19awYUPx9fWV3r17mxnbpE6dOqjCN1mPV/tktYkTJ8qVK1fMiIgcyVdffaWfkarz5MkTPSZyNSlS9JaUKR1hb5KbeHnVlAwZpmq6LJEre/bsmd7gbN26tZmxDdJV58yZY0ZkLb7ykNVmzpxpeYNNYUZE5Kj4ZkmuLFWqryR16uFmFDUlStRUMmdeYAkQbW8cTuRskCr68OFDiR07tpmxnZubmzkiazFIJKuhmWmtWrXMiIgcyZAhQ8yRyBdffGGOiFxTihR9JH36yZYLRxTBiCoFbTz0/5Mn7yMZMkxz4EI7RPbj7+8vadOm1eNWrVrp59DYsWOHOSJrMUgkqzx+/Fj71ISmqhQRRb6dO3fKvXv39PjatWvalJjIlSVJ0kpy5donceIEFHWKXO6W99c0ki3bJkmTZjhTTImMW7du6T56fPbyCn2F35o1a2obDbIeX4XIKtOmTZPGjRubERE5mqNHj8rly5f1+L333pO7d+/qMZEr8/TMLtmzb7UEZqMjaVUxYPUwWbLOloD1oMSLV1rHRBQAVfVReObff//Vnr+hdf/+fTl9+rQZkTUYJJJVVq1aJRUrVjQjInI06dKl0zux0LRp0zDt7SByJm5uHpI8eQ9LkLZf4sQpbmbDO1gM+Ptjxsyoq4dp034nHh5xdI6InsuSJYt07dpVzp8/H5R2GhpoA8Wbo7ZhkEhWKVOmjDRp0sSMiMjR4E22WLFierx27Vr5/fff9ZiIAnh6ZpMcOf5n+dgpiRM3NSuLKHZhz4IXWDlE5dIqkjXrasmd+yhXD4neAFudzp07J5988olei4bW8OHDJX369GZE1mCQSFY5c+aMpEmTxoyIyNFs2bJFxo4dq8f4Xb5w4YIeE9HL4sQprK0n8uW7rGmoMWK8eGFpa7XR54/38EgkKVJ8JnnznpEsWf6Q+PE/4N5DordAmikMHTpUP4fWZ599pq3cyHp8daK3OnDggKxYscKMiMgRITA8deqUHqOxfoUKFfSYiIIXLVoiSZ68u+TJc1Jy5z4mGTP+ahl/KnHjlhZ397jmUcHDKmTs2IUkadI2kj79FMmZc4/kz39FUqf+2hJ0pjOPIqK38fHx0RVAXIt6enqaWdslSpRIbt68aUZkDQaJ9Fbz5s2TIkWKmBEROSIEifnz59fjBAkSBAWMRPRmWO3z9MxquchsaPk9GinZs2+SAgW8NXjMkWOXZbxFMmf+Qx+bLdtGS0B5WAoWfGAJDHdJunQTJEmSlpaAMb/l72HPQyJb9enTR5InTy65cuUyM6FTp04d1tawEYNEequBAwfKL7/8YkZE5IiiRYtmuajNY0Yic+fONUdEZCsEjjFjZtL2GXHjlpR48QL2SsWOXdASUOawnGePQyJ7aNiwofj5+Un37t3NTOjg5mhghW+yDoNEeiukpoVliZ+Iogbs6UBjYogePTp7RhERUZT18OFDvf5EG4xBgwaZ2dA5ceKEzJo1y4zIGgwS6Y1w9wYlg7EKQUSODSk7aKQPv/76q8SIgeqNREREUQ9uZLZs2VKOHTsm2bNnN7OhkypVKrl3754ZkTUYJNIb4YKSOdxEzqF///4SP358Pf7zzz9lzZo1ekxERBTVXLlyRbJly6aFa6pWrWpmQ6do0aLyxx8Be4fJOgwS6Y1Onz6texKJyPHduHFD/v77bz1GpbeDBw/qMRERUVSzfPlybaJ/+PBhSZkypZkNHXd3dy1eQ9ZjkEhv9PnnnwddVBKRY8M+xA0bNugxKsUFrioSERFFNUgzzZIli0yZMiXMtTGwbQoBJ1mPQSK9ETb61qxZ04yIyJGhCNWdO3f0GHdlS5YsqcdERERRzeDBgyV16tTaKxE3OcMqXTr2KLUFg0R6ozFjxmhaGhE5vlixYsno0aPNSKRnz57miIiIKOpAJe5Ro0aJm5ubLFiwwMyGzezZs80RWYNBIoXo5MmT3ORL5GQaNWoU1PoC1U5RGICIiCgqOXfunLbAQEbb+PHjzWzYlCkT0M+UrMMgkUK0ePFi8fb2NiMicgZZs2bVfR7Qq1cvXV0kIiKKSm7evClly5aVPXv2SNKkSc0sRSQGiRQirCSWK1fOjIjIGdSqVSuoAEDcuHFl06ZNekxERBRVoK8h3q9QlbR48eJmNmyaNWtmjsgaDBIpRMgF79GjhxkRkTPImTOnXL16VY/jxIljt70eRERE9oI98w8ePNCCa3jfsgd7FL9xJQwSKUSZM2cWPz8/MyIiZ4A3yXHjxulx4sSJg/YnEhERRRWoxJ0gQQLp3bu3mQm7yZMnmyOyBoNEClZgcIhlfiJyHrFjx9a7s4F+++03rSJHREQUVXTr1k1u376tgaK9oFIqWY8RAAULFaUaN25sRkTkTKZNm2aORL7++mv5999/zYiIiChyHTp0SPfMI/OlX79+Zjbs1qxZY47IGgwSKVi7du2SypUrmxEROZPt27fLhg0b9LhgwYLyzz//6DEREVFkW7VqlWa8bNy4MajQmj20a9fOHJE1GCRSsCZMmCA7d+40IyJyJignvnXrVj0uUaKEpE6dWo+JiIgi2969e6Vw4cIyf/58iRcvnpkNu9OnT5sjsgaDRArW4cOH2f6CyEkVKFAgaG8GitegyikREVFUgC0R2Ivo6+sryZIlM7NhlyJFCnNE1mCQSMGaO3euFCtWzIyIyJmgeE2jRo3MSGTGjBnauJiIiCgyXbt2Tbp06SI+Pj4ya9YsM2sfK1asMEdkDQaJFKw2bdpItGjRzIiInM2QIUPkypUreoxGxdyXSEREkW3Hjh2SO3duWb16tfz0009m1j7eeecdc0TWYJBIr0FvmosXL5oRETmjkiVLBu1LbNasmZQpU0aPiYiIIgsyXcqXLy/btm1jRlskY5BIrzl+/LgUKlTIjIjIGVWvXl3y5s2rxygM8MUXX+gxERFRZEF/7hw5cuj7U758+cysfdSrV88ckTUYJNJrUOnwxT5qROR8kidPHtQzCkVsTp48KU+ePNExERFRREPbi++//14L1uDmJfok2hML19iGQSK9plOnTjJ58mQzIiJntWnTJrl3754e16pVi2nmREQUaZBiiq0QBw8e1B6J9jZ+/HhzRNZgkEivwYrCu+++a0ZE5KxKly4t+/fv1+MmTZqIv7+/HhMREUU0FFFr1aqVBohly5Y1s/bD9zjbOHSQuGrVKtmyZYsZBTSAR/+vxo0by+3bt80s2ap27dpStGhRMyIiZ4Uy42hYHKhbt27miIiIKGINGDBA+yO2bt1aKlasaGbtZ9GiReaIrOHQQWLv3r3l7t27eoy74T179pQPP/xQTp8+LT169NB5sh2+pzFixDAjInJW2PdRt25dPcbeD7S9efTokY6JiIgiysOHD+Xs2bP6vtS9e/dwuQ5lgTbbOHSQiGAwV65ceoy7A9WqVZNvvvlGVxRXrlyp82QbPz8/mTNnjhkRkTPz8PDQDxQLgK+//lo/ExERRaQLFy5IzZo1Zffu3ZI0aVIza19HjhwxR2QNhw4ScZcBdx7gr7/+kg8++ECPEyVKFLTCSLY5fPiweHl5mREROTuknAYGiXhj/u233/SYiIgoImFvPIqp1ahRw8zYV8KECc0RWcOhg8RSpUppWumQIUNkx44dUrVqVZ0/duyYpEmTRo/JNtmzZw+XilJEFDWhSNU///yjx0mSJJH58+frMRERUUTp2rWrtmNC6wt71sXwffhIHp44Kw8OnZANcxeIj3dARW96O4cOEn/44QfdQ7Nw4UKZOHGi9vcDpJpWrlxZj8k2o0aN0nRdInINMWPG1NdSQBPj3LlzB7XFICIiCm/Yi5g2bVp59uyZDB482MyGjr+vr9xav02O9xwm/5VrIv/k/lD2VGwuez9sLbkKvyM78leXXe/Wl6OdBsn139eK35On5k/Sqxw6SEyXLp0sW7ZM9u7dqyVzA40dO1abcZLtdu3aJbFjxzYjInJ2uHOLG2yXLl3S8fDhw+XpU75pEhFRxEBF0379+snff/8d6hZsfs985NLk+fJvqYZypOXnlgDwL3l8+gL6XphHPPf00jW5uXKzHO82VHYWqS1nR/wiPvcCtl3Qcw4XJL641xDHb/og22GZv0SJEmZERK4AmRipUqXSY6widuzYUY+JiIjCGxZ20qdPL/ny5ZM2bdqYWeshlXRftTZyZuhEeXr5esCkr2/AZ8PHz0/ei53YjCwsY/C9e18u/vSrrjbe2bJL5yiAwwWJ2HR67do1PcadB4xf/QicJ9u1b98+XBqYElHUhRQf9KUCvH6ikM2TJ090TEREFF4eP36sdUWw3QGZLNgbb4ur81fI3mptdd9hcKuGgR76+UjOGPHN6BWWgPHp9VtyqEkvOTtyMpvuGw4XJK5fv16rlwYeB/exYcMG/Uy2Q0Up/KISkeuIGzeuppv6+Pjo+Msvv9TAkYiIKDydOHFCW9gdP37c5v3wV2YtlZN9RgSsCvoGrAyG5IzPI1lw74IZBcOsLF6cMFtOf/UDA0ULh4sGypQpo8VqACteGIf0QURE1sG+7ps3b+ox+s+iIBgREVF4QvZK27Zttfd53bp1zezb3Vq7VU59OdaM3u6O7zOJ5eZhRm92ZdoiufTLPDNyXQ69ZDRo0CBt/v4qb29vadSokRmRLVCCmIhcD5oY79+/X4+xsjh37lzeSSUionCDa/iWLVtqATXsSSxfvrw582bPbt2RE72Ho/KamXm7fDHjS7dEWczo7c6N+EUeHD1lRq7JoYPEKVOmaK/EU6ee/xDR4y9v3rxy8uRJM0PWunPnDgv+ELkoDw8PGTFihAaGeMMuWbIkX0eJiCjcbN++XYslIs20f//+ZvbtTg34Tnzu3X/jHsRX7XpyR7Y9umVGb4e/+kSPb8TfbMNwRQ4dJO7bt0+b5hcoUEB++eUX6d27t3zwwQfStGlTLaNLtsH3c9WqVWZERK4EgSFeS/fs2aPjgQMHStKkSfWYiIjI3tAbEammuPbE9bs1Hh4/IzeXbXjrHsRXHX96Xy77PDYjK/j6yoODJ+TWum1mwvU4dJCICqbz58+Xzp07S7t27eS7777TRvpDhw4N2rdI1jt27JgkS5bMjIjI1QwYMEBLkANWFOvVq8eUUyIisju8t8yaNUv79BYtWlTq169vzrzZldlLkfpiRtbzsfz3Unp4mpGVPNzl8vTFZuB6HDpIhPHjx2twiD2ImTJl0j11aK5PtmvSpInMm8eNukSuCnsRP/nkEz3GymLBggVl9+7dOiYiIrKXnTt3yv3797XlEvbAo4DN2/g9fiLX5q98rQeiNdolyCitEmYwIyv5+sndbbvl8dmLZsK1OHSQWLlyZRk8eLDMmDFD5syZoxczpUuXluLFi+veGrJN37599ftIRK4rVqxYQXsRkaHh5eWlx0RERPaCLU7IVlmxYkVQa7u3eXD4pPg9siFl9AWdr+6RTQ9umJFt7u4MKOrmahw6SPT19dUnWWDJXFzcTJw4UUu3jx1rfVlcCnDo0CH9HhKR60JT/evXr+sxsjPwBs6UUyIishe8p1SqVEmzVdD6olatWubMm90/cMymiqYvuufnIymjxTQj67lF8wj477oghw4S165dK6lSpTKj56pWrRpUyp2shyIV+fPnNyMickVFihTRSseBgeHFixc1LYiIiMgetm7dKpMnT5aHDx9KgwYNrK6H8fDQSXHzCF3oUsDTS9JEt30hxN/HVx4wSHQuSZIkMUdkrR49euhdHSJybWvWrNEsDWjWrJm2FiIiIrKHmTNnah2MZcuWyerVq83s26Hthb9f6DJbMkePI7HdQ1fU0sf7vjlyLQ6fbjpq1CitipQiRQrNaX7xg2xTo0YNbWxKRK6tcePG8uuvv+pxrly5NAX16dOnOiYiIgqLDh06SNasWWXx4sVWp5oqjQ9DFyRO9z5njkLB3zWvjR06SETRmjFjxuhStbe3t66E1a5dW9zd3WXQoEHmUWQtpJfFiBHDjIjIVRUqVEi+/PLLoJRTVJ7DHV8iIqKwWL58uaaZAt5nbOnH6xEnlrhZrvEjmkfcOObItTh0kIhKnGii37NnT+2LiDYYyHFGr6/t27ebR5G1cGeHiAjtL6ZMmaL7RqBhw4ZBK4tEREShNW3aNMmZM6emnD579szMWid2toziH8qMt36Js5sj26BwTZxcWczItTh0kHjlyhXJmzevHqO/F1YToVq1anqngmxz8+ZNc0RErg4thgJb4mCPd69evfSYiIgoNHx8fCRHjhy6JQwZKggWbREnbzaRUOxJvPjskax+cNWMbIPCNXHzhi7AdHQOHSSmSZNGLl++rMeZM2fWYguASnwxY9pe5tbVsZE+EQXKli2bVjoNlDBhQvZRJSKiUDt69Khm+927d0/ef/99m6/V4+bJKm7RbS8+c/TpPbnq88SMbBf3nVzmyLU4dJCIza7r1q3T4y5dumhuMzbCohpfy5YtdZ6sg7s7SDEjIgqE1cTNmzfrcYYMGWT69OnsmUhERDbDe8enn36qdUOOHDki3bp1M2es5xEntiSpUcFy4GFmrHPL96mkDUX7C3F3kzh5s0uc7JnMhGtx6CDx22+/lX79+ukxitfgYgb76tBMH+fIevilZS80InpR/PjxZfjw4XqMolYffvhhUPYGERGRtTZt2iSlSpXSY1y747ozNFI0/QjtDczIOjXippL+SXKYkQ38/CVli9pm4HocOkh8VYkSJbTCafXq1c0MWevAgQPSqlUrMyIiCtjrnT59erlw4YKOu3fvrnvBiYiIbFG4cGF9D1m7dq188MEHoc5ei5s/h8QvUdCm1cRe1/bL8ns23uC0BLEx06aUJFXLmgnX4zRBIu54nzp1yozIVlevXmXhGiJ6zQ8//PBS39lvvvlGrl+/bkZERERvhmtMtK3z8vKSMmXKSPv27c0Z2yG4zDKij7jbsDcR6aYZosc2Iyv5+0nWMZ+Lu6fr1jhxyCDx0qVL5ug57pMJm+jRo2vFKSKiFyElqE6dOkHN9D/55BMtYU5ERGQNvGdUqFBBzp07p8FivHjxzJnQ8UybUjIO7GJGb5fP00syx7Ch16ElEE3Zqr7EL5LPTLgmhwwSc+fOraVzyX7y5csnQ4cONSMiouewF/HPP//UYxSzadGihR4TERG9DapjI8X0559/ttuWsOSNqknq9o3M6M2wiujpbuXKoyVATPRBKcnwWVsz4bocMkhEMNOuXTupV6+e3Lp1S+eaNGmiKacUOqhaiKpTRESvatq0qaRNm1aPPTw8ZPXq1fpBRET0JiiKWKlSJc1KyZQpk5QsWdKcCbt0fdtKmq7NAwbuIe9xnOl9zhy9XZLq5SXbDwPFLZrtrTacjUMGiR07dpR9+/bpHrpcuXLpHe6JEydqw2cKHfSsiR3bxnxtInIJCRIk0D0l+/fv1zHe8HFHmIiI6E2GDBmi6aX/+9//wlSwJjj4u9L1+ERyThsu0RMlwP4Ic+a5e34+4vG2/6aHh7jH9pTMw3tL1u++sGm/ozNzyCARMmbMKOvXr5cvvvhCateuremS77zzzksfZL333ntP24gQEQUHPWi///57PU6WLJnUrFlT+6sSEREF5/Tp09pjN3HixDJs2DC94RgeEpYrJgXXzZQUzT4KKDSDoNAEhtEtH4MS59Tj1yCotASIqGBa8K+ZkrxBVbsGsY7OYYNEOHv2rCxevFhznXHB8uoHWc/b21s8PT3NiIjoZShshZR+X9OfCimov/76qx4TERG9Ctfn48aNkzNnzki2bNnCXLDmTaJ5xZNMg7pK4Z2LJeNXn0q8wnnEPVZMWfPguux/4m0eFcAtejSJkyerpO3eQgpvmy/Zvv9SYqZKZs5SIIcNEn/55RfJmzev3pU4ePCgLmcPHDjwpQ+y3pIlS2TLli1mRET0OjTWP3TokB5jf8nSpUvZN5GIiF5z8eJF6dChg75XoPXF2LFjzZnwFS1eHEnZ9CPJu2C8FDu4Uk4UzyZeH1WQHL8MlZzTh0v+FZOl2KFVkn/ZL5K2SzOJkSyx+ZP0KocMElFdr2/fvtq/CyuJSZMmNWcotJA2Fo2bdInoDfBm361bN3n27JmOu3Tpoq/BREREL8I1eqdOnTRYRF/EyEjjdLO8Zz2xRDplG9SRRO+XlIRli0mcXFm459BKDhkkIt0JhWuaNWtmZiisxowZoxd8REQhQZBYq1atoMCwdOnS0qhRI3n48KGOiYiIAO8VqGSKveyReX05a9YsqVKlihmRLRwySFy7dq2kSZPGjMgeRowYEdQHjYgoJK1atdI3XH9/f70zjFYYU6ZMMWeJiMjVTZ06VeLEiaPvEWhXZ8+2F7bKnj27OSJbOeyeRLIvVKC6ceOGGRERBS9WrFhasGbNmjU6rlu3ru5pfvLkiY6JiMh1PX78WObMmaPFziZNmhQULJLjYZBIKmXKlJI8eXIzIiIKGe4MY78JYC8zComhyT4REbk2LDp8+umn4ufnJ/PmzdOqppHl6dOnUr9+fTMiWzFIJDVgwAD56KOPzIiIKGSJEiWSli1b6hswZM6cWdq1axdU0IaIiFwPMkpOnTolNWrU0DZ1KFgTmTcQd+/eLRUrVjQjshWDRFItWrTQ9AAiImvgptLEiRPNSKREiRIyc+ZMMyIiIlczY8YMuXbtmhaYPHLkiGadRKbJkyfLpk2bzIhsxSCRFH6hmS5GRNbCHpPDhw9rpWlAtekYMWLoMRERuRYUM0MhsyZNmsiCBQvk5MmT5kzkOXDgQKQWzXF0DBJJofhEgQIFzIiI6O169+4dVMAGAWLZsmVl5cqVOiYiItdx/fp1WbhwoUSPHl0WLVokbdu2NWciD1YS2f4i9BgkkkqQIIH2QCMishb2IjZv3lz3nkCyZMlk5MiR3JtIRORCsD+9YcOG+tqPYBEFa1AJO7Jh73zs2LHNiGzFqIAUStpv3LjRjIiIrHP//n3p27evHseMGVPTTrdt26ZjIiJyfmh1gRuG2LaEYDGwqFlkevjwoZw7d86MKDQYJJJCGfuo8EtNRI4lY8aMkjhxYtm7d6+OUQQLK4oIHomIyLlhL2LVqlV1L+L8+fOlZs2a4unpac5GnmPHjknhwoXNiEKDQSIppIhhWZ6IyFZ4/ciePbsZiRw9elTGjRtnRkRE5KyGDh0q3t7euoqIKtdt2rQxZyIXWjWh2iqFHoNEUihdv2TJEjMiIrIe9nzgQuF///ufjtEj6++//5a7d+/qmIiInA/aXWB7Qf78+WXatGm6ehcV9iICgtXffvvNjCg0GCSSQuEJNEAlIgqNrl27yvDhwzX1CO0xUOUOaexEROSccCMQNwgfPXoks2bNknLlypkzkQ99GqtVq2ZGFBoMEkmlTJlS4sePb0ZERLZJmjSp9OvXT/z8/HSM1cV27drJ6dOndUxERM4Dr+07duzQ9mk3b96UQYMGafuLqAJbqNKlS2dGFBoMEkl9+eWX8umnn5oREZHt3n33Xenevbv4+Pjo+PPPP5cBAwboMREROY/+/fvLO++8oy0v0C+3dOnS5kzku3XrFoun2QGDRFJDhgyRjh07mhERUejkyZNHpk6dqse5cuXSoJGIiJwHCtUUKlRIcuTIIV9//bV+jkr+/PNP2blzpxlRaDFIJIVm+rzrQkRhhRQf7EkMVLBgQWnatKn4+vqaGSIiclTIFFm3bp307NlTj+PGjSslS5Y0Z6OGDRs2SLFixcyIQotBIimkiZUvX96MiIhCB8VqGjdurJXuAAFjqVKl5JdfftExERE5LjTORzonrF27VgvXRDWTJ0+WwYMHmxGFFoNEUmnSpGHhGiKyizhx4siyZcuCita0bt1akiRJosdEROSYUJgMLS8++eQTXa3DXsSoCOmvMWLEMCMKLQaJpE6ePCljx441IyKisME+lZUrV+oxmixXrlxZm+4TEZFj2rdvn7a6wGs69p6jomlUg0AWrTnc3RnihBW/g6Rwlx99boiI7CFnzpxSt25d2bt3r46xb2X//v16kUFERI4Fr+WBiwlomj9jxgzx8vLScVRy6dIlef/9982IwoJBIqls2bLJlClTzIiIKOyQ7tOjRw95+vSpjr/99lv577//9JiIiBwHquAPHz5crl69GqVbpp06dUq++uorM6KwYJBIChdzAwcONCMiorBD1eRWrVrJggULdJwqVSqpWrWqLF68WMdERBT1XblyRebOnSspUqTQgjDYThBV0zm7desmR48eNSMKCwaJpPDLfuDAATMiIrKPRo0aaWCIiwxInDixVp67ePGijomIKOo6f/683uyLHj26tkobMWKE9kiMqi5cuCAffPCBGVFYMEikIAkTJjRHRET2gRYYCBAD05NwQ2rUqFFa/ZSIiKK2vn376ms2eiLWqlVL/P39zZmoaeLEidqKicKOQSIF+ffff80REZH9oBx5lixZ5K+//tJxrly5pE6dOrJ161YdExFR1IOChuPHj9dCZGPGjJFmzZpJvHjxzNmo548//pAdO3aYEYUVg0QKkilTJnNERGRfAwYMkBIlSgRVUUa10y+//FJLlRMRUdTi7e0tH330kWaZ+fr6Sv369aVJkybmbNT022+/cRXRjhgkUhD0vUG+ORGRvcWMGVPv8Pbr10/Hnp6eWixr9uzZOiYioqijd+/e8sUXX+iWAWR+JEqUSI+jMuxHbNCggRlRWDFIpCC4S/T48WMzIiKyr3LlyumNqG3btum4TJkyemeaqe5ERFEH9h9iL+J7772nTfPLli0bJXsivgorifny5TMjCisGiRQEqWD37t0zIyIi+8O+lrx58wb1TkTFvD59+sitW7d0TEREkefmzZtSt27doC1IBQsWlC5duuhxVHbu3DkpXry4GZE9MEikIGimv3btWjMiIrI/FD1AQ/3AtNNYsWLJsGHD5Mcff9QxERFFHlSiRpopoPUFgkVsR4rqpk+fLkWKFDEjsgcGiRQkadKk2g+HiCg8lS5dWlcOt2/fruOiRYvq/pfdu3frmIiIIp6fn598/vnnUrhwYZkzZ45kyJBBEiRIYM5GbdmzZ5fu3bubEdkDg0QKgkqDLVq0MCMiovAzevRobYuBqnmAgghIOw1suk9ERBHn0qVL0rRpU8mdO7eO06RJowGjo9i8ebOUKlXKjMgeGCRSkMuXL+t+ISKi8Iay6idPntTAEGLEiCFjx46VESNG6JiIiCIGVhA7duyoQSGOsWCAOhWO0k4CmSlLliwxI7IXBokUBCXqcSeGiCgiFCtWTPsmrlmzRsd58uSRkSNHyj///KNjIiIKfwgMBw0apK/B33//vb4245rQUcydO1fy589vRmQvDBIpCFIM/P39zYiIKPyNGjVKsmXLpiXXwd3dXVcUd+7cqWMiIgo/uCmHFcQCBQroGHv72rdvr8eOAqugixYtMiOyFwaJFCR+/Pja7JqIKKLEjh1b22B8/PHHepMKexMnTpwo3333nXkEERGFB29vbw0QUW0abYlat24tlSpVivJN81+VOXNmh0mNdSQMEuklGTNmNEdERBEjderUWrp80qRJOsZ+xVmzZsnGjRuZ3UBEFA7w2orACq+7eM3t37+/VKlSRbM5HMnDhw912wL2tZN9MUik1yA3nYgoIvXo0UPKli0blHaKO9nbtm3T/q1ERGRfkydPlnnz5mmVaQSM5cqVkzp16pizjuP06dPSoEEDMyJ7YpBIL8ELxOPHj82IiChi4O51unTppEaNGnpXGPr27SubNm0KGhMRUdjt379fli9frlVM0R+7W7du8uGHH5qzjmXXrl3awo3sj0EivaRChQpy9uxZMyIiijixYsWSrl27BjVERuCItFMUVrh9+7bOERFR6D148EBvyCFLA31q27VrJ507dzZnHQ/aKHl6epoR2RODRHrJwoULNf2AiCgyVK5cWVcQsc8kUNy4cbWgAlPhiYhCD0EhGuZfvXpVEidOrOMBAwZI1qxZzSMcy5UrV8TDw0PfI8j+GCTSS3LkyCFHjhwxIyKiiIcCWm3btpW9e/fquHDhwlK9enW2xSAiCoPhw4drSj/aDq1cuVJ++uknKV68uDnreBIkSCCrVq0yI7I3Bon0EqQdfPHFF2ZERBQ50CsRaaeB+xGxdyZJkiS8ICAiCoULFy5Ip06d9LUU24rGjBmj13yODAGvo1VjdST8ztJLcFcmcD8QEVFkSZo0qcyfP1/TTgPbYKRJk0bGjRsnR48e1TEREb0dMsSQnYG0TPRDxGfsScQ+cEf233//Sa5cucyI7I1BIr0Em3/37dtnRkREkQcrhwgUR40apeOYMWPqhc3//vc/HRMR0ZvhJhv2eaPlBVbdsL/78uXLWrzGkd26dUu3InAlMfzwO0uvwYUZEVFU0L59e70LHrgfEY33W7ZsKZ999pk8e/ZM54iI6HV4jUR16EWLFkmqVKnk+++/l4IFC0qePHnMIxzXgQMHZObMmWZE4YFBIr1m69atmo5ARBTZ0FR/4sSJWmjh1KlTOoc7x7iD/OmnnwalohIR0XN4bezSpYtcvHhRokWLJjdu3JCGDRtqT0RngL2V169fNyMKDwwSQ2Ho0KHy7rvvSuzYsXUPn7OpWLGi/PXXX2ZERBS5YsSIoQVskCaFFCOoW7euVKpUSXx8fHRMRETPYetQlixZpE6dOnqD7eOPP9ZMMdx4c3SPHz+Wu3fvSu7cuc0MhQcGiaGAVbZ69epJhw4dzIxzyZ49u64mEhFFFSlSpJDRo0dr1dNANWvW1FXGP/74w8wQERHaW8SPH1969eqlK4rIuvjll1+0p6AzQM9cppqGPwaJoTB48GCtAJo3b14z41yaNWvGalFEFOVgL81XX32l+2sCYc/ipEmTZM+ePWaGiMh1oeLnjz/+qPu3sSdx9+7dsnDhQocvVPOi5s2bO9W/J6py8+eGjlCbPn265nbfuXPHzITsyZMn+hEIy+Rp06bVHHHc7YlKUHJ+/PjxWg0rvOCFa+3atfL+++9L9OjRzSyRbfg8ck0IFNEiIzCbAymovr6+uu8mYcKEOmctPofIHvg8orCy13MIFaBr1aqlr4UdO3bUtPyPPvrInHUOKVOm1L2WrljZFPED0oa9vb3DPX5gkBgGtgSJgwYN0hXIV82dO1f3NkYlWMb/5JNPZMaMGWaGiCjqwNsWXjuR9o/9inDv3j0ZMWKE9OzZ0yn3ihMRvQmuRZFl0apVKx2jnyw+0HDemVy9elUXMr7++msz41qwkNO4cWMGiREJ5dSHDx9uRsE7fPiw5MiRw4ycdyURkKaAuzThhXddyR74PHJtS5Ys0TvKxYsX1/HBgwfl22+/lVmzZunYGnwOkT3weURhFZbnEG6SNWjQQHvKYrvQn3/+Ke+8845eyzkbtPTInz+/9vV2RVxJjAQoo3vz5k0zCl6mTJmC7lqDLUHiq/BD9vLyipAfcmigKla+fPnMyP7wYrhixQr58MMP+YZKocbnkWvDhREq9/3www/aIgNQ7XTz5s1SsmRJbb7/NnwOkT3weURhFdrnEBYgUFDx7Nmz2v8QhQfHjBkj8+bN0xR8Z4Mbg7ghmChRIjPjWiIyfmDhGgP7W7BK+KaPFwNEZ4elfGx0JiKKquLFi6dp8bjBF3i/ExdFKI+OhvvYp0hE5KzwGoftQch0C2yQv3fvXl3EcMYA8dy5c1qh1VUDxIjGIDEU8CRFJT18xi8ojvFx//598wjHh4B4/fr1ZkREFDXhrjKqnqIwQ+BrMO7EV6lSRav8ERE5K+zLw+td0aJF5fTp07p1CsVqcAPNGSHw/emnn8yIwhuDxFAYMGCAXpQMHDhQL0pwjI9du3aZRzg+VMNC+gIRUVSHvSl9+vSRJk2aaOEtwHHGjBn19Zq7KojImeA17a+//tIq9HitQzEXFKxBgOjMWrduLeXLlzcjCm8MEkMBy/j4BX31o2zZsuYRjg/VsJz9xYaInAf2IKKx/oULF3RvD2BzP8rA4+46XqOJiBwdXsvwmrZ//369QYbFCnxGs3xn7h2IVkf//vtvlOsI4MwYJFKIKleubI6IiKI+pJ5iPw726ATuR+zevbve9Hrw4IGOiYgc2fnz5/W1Dq9teF1DKyAUX8ycObN5hHMKLOpDEYdBIoUId2uw75KIyFFUr15d9yP+9ttvZiZglXH27NnahJ+IyFFhDyKqmaKyPiDdFB9ZsmTRsTNDEDxt2jQzoojAIJFC9OWXXzJFi4gczscff6w9w9AaI/A1rH379rq6uGDBAh0TETmSb775Rl/DsmbNqjUjli9fLmPHjnWqrU4hQau5mjVrmhFFFAaJFCK0/fj999/NiIjIcaAKHi6k+vfvHxQoDho0SFNPscrIG2BE5AjwWoV0UmRIoBAXXtdwIwzzrtKTc+TIkfLee++ZEUUUBokUInd3d5k0aZIZERE5lh49ekju3Lm1byIuqNzc3LTB/qlTp+Tzzz9noEhEURpeo/Ba9euvv2oVfbyGoZF88+bNpVq1auZRzu/999/XlVSKWAwSKUTFihWTGzdumBERkePBHffNmzdLr169goLCfv36Sc6cOeXevXtBLTOIiKIaZHOlSpVKunbtqiuILVq00NY+rhQg3r17V0aMGCHZs2c3MxRRGCRSiLCSePbsWTMiInJM6PuaIUMGLfoQCHfiT5w4EbRXkYgoqvDx8ZGhQ4dqejwCRNzgatasmdSuXVsSJEhgHuUaRo0apRkgFPEYJNIbVa1aVcsOExE5si5dumj66fr164NWD9955x1tzDx58mQdExFFNqwYIiBExVIPDw9Nl0f/12+//VaDRleza9cu7QtJEY9BIr0Ritf88ccfZkRE5LjixIkjp0+flg4dOgQFig0bNtQLso0bN2pTaiKiyIKAEC0ukOGACs1ItUQfRGQ9IBvC1aCBPjJAsP2JIh6DRHqjxo0bS/z48c2IiMixtWrVSkqVKiWHDh0yMyKxYsXSaqh16tSRq1evmlkiooiD1x6sFmLVsHTp0jo3c+ZM3UNdrlw5HbuaL774Qr7//nszoojGIJHeCE2oUeCBiMhZNG3aVNKlSyeNGjUKWj1E4Dhu3DjZvXs39ygSUYRDix7cxMI116VLl7R9T+fOnaVEiRLmEa4HhXu++uorM6KIxiCR3grllx8+fGhGRESODxkSnTp10nTTZ8+e6RwuzlDkBhVRt2/frnNEROEJrzVocTFx4kRJmzatnDlzRpo0aaKVTF3d+PHj9YYeRQ4GifRWKLe8bNkyMyIicg5YPUQ6F1r9BFZyRh+yn3/+WXtyHT9+XOeIiMLDn3/+qSmmKBIIV65ckYQJE+rrUtasWXXOVbVu3ZpVTSMZg0R6qwkTJkjx4sXNiIjIeSRKlEjb/bRp00abVIOXl5csXrxYkiVLJlOmTGHTfSKyK7ym4CZU5syZZf78+ZrZsHr1apk0aZJWNE2TJo15pOtCqimqT1PkYZBIb4VGrigfT0TkjJInTy6zZ8+WDRs2BAWEKGSDC7dr165Jx44dg1JSiYjCAi0u8JqCIChXrlwSI0YMrWq6du1abfUQN25c80jXde7cOa1oGjt2bDNDkYFBIr0V7qb//fffZkRE5HzwOociEcOHD5epU6fqHFJPsScb+xZRlh5pqUREoYWbUJs3b5YPPvhAevfurWMUqNm/f782jUfASAH7NJcsWWJGFFkYJNJbIRUrffr0cufOHTNDROSc+vTpo2lg06ZNMzMiZcqU0fL06FeGizkiIlvt27dPbzhVqFBBatWqpXMonoXCLEWKFNExBay0opctsjkocjFIJKvgzheauhIROTPcFBs2bJhWF0S1wcDKztg7NG/ePJk+fTr3KBKRTY4dO6ZZCT/88INmKFy/fl0ztNAovl27duZRBCNGjNCgGa/FFLn4EyCroLpp/fr1zYiIyLlFjx5dsmfPLh999JH2LAOkpI4ePVpfDwcOHMh+ikT0Rn5+ftp/FbUdsAcxadKksmfPHmnQoIHuPUThLHoZWn9MnjzZjCgyMUgkq+BC6dSpU2ZEROT8UFnv+++/Fx8fHzl//ryZFalevbq2BuratauZISJ6mbe3t9SpU0cLYCEgxI0nZGSh3Q4qmubLl888kgIdOHBA0/pZ3TVqYJBIVsFmahR1ICJyJTly5NBVgJ49e8ovv/xiZgPudmOFAMUV2HifiF7033//aSuLof9v707gZarfOI7/ilK02IuEKNpTKmtlSRLRQtKmSNFGixDaS0IqlSXabClZ2oRCiZIoFKUkkizZt4jmP5/nnnP/c8e919xt7syd7/v1mhfnzNxZzpyZOc95nt/ze+op16ZNG6s6eOihh6zctFmzZq548eLeLSUUY8IbNWrkLUluU5AoEaN5zcSJE70lEZHEQAOFt99+26bDoDW7PyaRzADZRoLF0ABSRBIT3w0vvPCCjavj/0xxAb4/KlWqZIGipI2sK9OASGxQkCgRo0zilVde8ZZERBIHTRRoVV+4cGErN121apWtZ+L90aNHuzp16rg5c+aowZdIgtq+fbs1uipUqJB9Jxx55JFWPnnfffe566+/3qoPJG1UZbRv317TgMQQBYkSMb7kFi9e7C2JiCQeznSTOWzbtq3btm2braNb4UknnWRjFxm//dVXX9l6EUkMlJw3bdrU5lK99dZb7Tvh888/txNLXbp08W4l6aGkv0CBAt6SxAIFiRIxunAtW7bMunWJiCSqE0880X388cfWmIIxR36X01q1arlx48ZZ8Pj7779b0CgieRef/d27d7tRo0a59957z4bl7Nixw/Xv399Vq1bNvg+OOeYY79aSFjpIMz9ijRo1vDUSCxQkSoYwEeyAAQO8JRGRxERTiuOOO84uZA//+ecfW0856iWXXOLmzZtnmQWCRRHJe/hsU3pOgEMX5CJFirhffvnFPvdnnXWWO+yww+x7Qg6MJMRPP/3kLUmsUJAoGcIX4tixY70lEZHERUkZ44xoWrNx40Y3adIk7xpnre85ofbFF18kl6WKSN5A9pBOnHQrZToczJw508Yojxw50hpaSWSoTitbtqwF1RJbFCRKhjAukQmmRUQkybHHHmtnwilBfeCBB5LLTCtWrOhuuukm62x444032nglEYlfGzZssM802UPmOqxQoYLbtGmTa926tfvss89sagu+DyRydII944wzrIu0xBYFiZIhdJ2qWrVqcmc/ERFxdhaczCGlp3Q5/Pnnn71rnGvXrp3r1KmTdTzctWuXt1ZE4gmf3RtuuMHdfffdydlD+jRQRdChQwf36KOPWhdkyRjGbFKuK7FHe7NkGB27Bg4c6C2JiIivdu3aVopGR0PmS/MbfXFyjYNLGllcd911NueiiMQ+PqtkDykbp1rgvPPOszHITG3Rr18/yyZWr17du7VkxLRp02ws4mmnneatkViiIFEyjLKKDz/80FsSEZFQnBlnzi/+JfuwYsUK75qkkv3OnTvbOEa6+fkT84tI7CFLSPaQgLBkyZI2DpnyUgIb5kZl7mjWSebwXXjqqad6SxJrFCRKhjVs2NBNmDDBWxIRkXAcONINmuwDpWjDhg1LDgjPPvtsmz+NRjctW7Z0K1eutPUiEhsYUsMJcYbYfPLJJ65KlSo21rh3797urrvusu6ldDGVzKPKghNlbGeJTQoSJcOoub/tttusa5+IiKSNJhYffPCBHQzt3LnTrV271rvGuWbNmrnHHnvMDR482MrX/v33X+8aEcktjDNs3769dS894ogj7Jhn69atbs6cOa506dJuxIgRyh5mg+nTp9s2ldilIFEyhfp7zZcoInJgzJVGNpEgkSkzBg0alDxW8ZRTTrEJ+RcvXuwaNWrkvvzyS1svItHFFBatWrWypjSc2GGcHCdvHnroIde1a1dXq1Yt61KsADHr+P5r0aJF8vegxCYFiZIpHTt21CSxIiIZUKJECffRRx/ZQebmzZtTTLR/zjnnuHfffdd9+umn1vhG02WIRAdl4GS1mNKCpnxkDvmMkj2ksUq1atVs7KFkHxr+ULJLplZil4JEyRTmArryyivVoU9EJAM4AL399ttdwYIFXbdu3VyPHj0sW4EiRYpYG33mYqPBDdUaKkEVyRmMMST4I8tft25d+7wVLlzYTuAw7rBPnz7usssus7JwyV7XXHONe+ONN7wliVUKEiXTxo4day3eRUQkY5hXkXkTaae/Zs2aFPMqMu6JVvtHHXWU27Fjh5XBqQuqSPbgs7RlyxY3atQoa0zz8ssv23pKH/ks0qiGUsgnnnjC1kv2ev/9923u2HLlynlrJFYpSJRM8+f8EhGRzCFLwcHSkCFDLHv4xx9/2HrK+en6V6hQITd16lSbpJ+GGiKSeYsWLbIqqPfee8/mPrz11lvts/bdd9+5xo0bW3kpXYkvuugi7y8kuz3wwAPunnvu8ZYklilIlEy78MIL3WuvveYtiYhIZjD+iTE6TIvBlBmfffaZNbnBIYcc4h5//HH30ksvWYkqU2mEdkgVkQMjQ8hUM/PmzbOy0jZt2th65jxkbDCZfI5nrrvuOlsvOYNsbc2aNV2TJk28NRLLFCRKlnD2m8HeIiKSNUwqzYUSUw6iJk+e7F3j3PHHH+9KlSrlzjjjDNe2bVtrwy8i6SMoYZwvGcPt27dbd2E+S+CEC2WlTJhP9pDPl+SsTp06ueeee85bklinIFGyhKkwOMMtIiLZg0m6GZNYoUIFN2HCBLdgwQLvGufOP/98a89P+enQoUNdr169LKgUkf8jIGTie5pA0XyGzwwnYBiPyGeLyfLLlClj4w/pLCw5j0zu22+/7YoWLeqtkVinIFGyhDPalEOJiEj2obHNSSedZI1tKI/r0qWLd01SeSqt4/n+ZZ5F5nFj2gy/S6pIoiII/OWXX+wkSuXKla0TOydW+MzQrIYxwF9//bU7+uijXcOGDV3+/Pm9v5Sc1rdvX2tYI/FDQaJkCV+wzzzzjFu4cKG3RkREsstxxx1nGcOePXu6WbNm2Ry169evt+s48OVgmC7Tv/32mzXeYKJ+AkaRRMI+z75Ps6eKFSu6KVOm2GeDzwgZLKa04MQLnyXG+B555JHeX0o0MOfkbbfd5p566ilvjcQDBYmSZRy43H///d6SiIhkNzKHtWrVsvnF7rjjjv0yh2QUKZ3j4Hffvn3u1VdftSY4InkZ+/jSpUutLJsgkOYzzEXKhfGIZA3vvfde1759e1egQAFXsmRJ7y8lmuhmSnMuiS8KEiXLOGChfbSIiOQsAsV3333XgkSa2zz//PNu165ddh2l/0yjwcFyiRIlrCkHGRXNsSh5EeNxmzdv7v7880/XsmVLa0pDddO6detc586d7eR1tWrVbLqL008/3fsriba9e/fa3IiaVzv+KEiULGMyWs2XKCISPUy0T/dTOjJSTkcWkWYdIItCqd2kSZNsvjcaeNx3333JczCKxCv2dTpkMmXF1Vdfbft93bp17bq///7bxiNyYoTmT/3797dyU8l9nNjiO0vii4JEyRbMNcQZbBERiQ4mASeDQoMOSk+ZJHz06NHetUljFimx69q1q5WpklEhUGSIgLKLEi/YVxlzS8bwwQcftLkM2ecrVapk+zjXP/zww5ZJZOzbDTfc4C644ALvryU3kUXkvfIDeYkvChIlW9SvX9/O3omISPSROSSz2KBBAzdq1Cj3xBNP2Mk7H9MVkYEhaPzwww/dpZdeapkXBYsSy6ZOnWr76htvvGFNnJhCgW6lYBJ8xroRPLZq1cqmuahatapdJ7GBoJ5SX6obJP7oXZNsQVMFWrUzKa2IiEQfB2K0/OeA+dxzz7UM4r///uuWL1/u3cJZ4w7Gco0fP94VK1bMMpGPPfaYW716tXcLkdzFvkhmkICQaWDYV+lI6lu7dq01q6HjL9lD5jukcZNKS2PTsGHDvP9JvFGQKNnmnXfesTPZIiKSezhYbtSokRs8eLCV3z366KMWODKey1ewYEG73ZgxY1zt2rXd4sWLbXwX2RhKxESiiX2OMbSc1GCahHr16tkJjPLly9u+iq+++soy5jRrotR0+PDhmgg/hvXp08fmouTElcQnBYmSbWhgw1xEtJ0WEZHcR7bwzTffdM8++6xNIM6k/GPHjk0OBAkUGS5w8cUXW6kejT8IKPkeX7Fihd1GJKfQpffLL7+0kxo//vij7Zcvv/yyq1Onju2bNGNi/kOyiYcffrhN7UImXGIb7yNzaJ999tneGolHChIl2xAknnDCCXZmWkREYsfxxx9vQWKPHj1sDBcH4mQW+b+PaTPogkonwp07d1oZarNmzdz333/v3UIke3Ci4vLLL3evvPKKTVNBT4MHHnjAAkFwsoL5PpmAna6Yl112matSpYrtoxL7qEgg0Ne8lPFNQaJkKwJEygtERCT2MNl+x44d7UIpKvPJXXvttZbRCcU4cyYmf+utt1zZsmVtImy6Rn788cfeLUQit2fPHgscbrzxRutUSgkiDZaY6J75Pcka4ocffrATE2S+mf+T29DNlIZLEh+oQuBCN2WJbwoSJVtVrFjRxrfwgyAiIrGLroMchJNVZDqNxo0b28H5+vXrvVs4yz4WLVrUJiZnjBHBJI1FyPDMmDFDwwskTWQCp02bZicbfv31V7ds2TKbs7NChQqWZeKEBWhC061bN+vIy7yfdDKlrJQTFRJ/unfvbu+fxD8FiZLtaFM9YMAAb0lERGIZ4xbz58/v3n//fXfaaafZQTslp1yYf9HHATxzMZYuXdpa23/xxRdu3rx51oWSpjfh2UhJPJwgpnSUEw2UNtNs5qKLLnKnnnqqTcHCvoMtW7ZYIME0Fp999pllD7k9+2KRIkXsNhJ/OGnE+8qJAYl/ChIl2z3yyCPWolpEROKHn02sVauWdZdkHsU77rjDOk7OnDkzRdbwxBNPtGkKmPqIeetoOkJTHA7+CRr5VxLD5s2b3XfffecWLVpkJxEWLFhg07HQYIasEhVGoJkJJyAYb3jTTTe5QoUKuWOOOcZ16NDB5vH0S04lfnFSiRNH/skAiW8KEiXbUW7KAcS6deu8NSIiEk/I6HDwTkaADOGnn35qE/WTGSIADJ2En/JBylGZmoCM5I4dO1zbtm2ta+Xs2bNtnJkm7c87eC+XLFlizY1439u1a2dzcZ5xxhnuo48+snGu7D+g5JTs4nPPPeeaNGli+xFzH06cONHGGvqNaiT+0Ym2XLlyVk0meYOCRMkRc+fOdQ899JC3JCIi8YqxYXQ65QCfeemYE/eSSy5xTz75pAUMoQEg2SECRLpXcsKQjNLrr7/ubrnlFgsWRo8enWLMo8QHTvoS7H/99dfJc3Bu27bN9e3b18qSr7rqKu+WSXiPmRKLrqQElIxhpSSZzLTkTTfffLNlkjlRJHmDgkTJEUyG++GHH3pLIiIS7ygHpMskmSPGndHtlGCAjtZMnUHXynCUEdIZlWYklKuSlWRsGp0uGdPI/HcKGmMPpcaMUaVEtE2bNjY9BdOlMF0FwR5ZY0pFQ0tEP//8c9e+fXt355132okF/p08ebI766yz1IQmAVCi/tJLL3lLkhcoSJQcwdw4CxcuVOc7EZE8iOCgfPny9l1PIEAWgakMCB6Y5iC1+XIPO+wwu93IkSNtjjym1iBAZCwjwQili0z8/8cff3h/IdFAJphxggTydCOdMGGCBfKrVq2y8aj+VCicDAgNCik7HjJkiGvevLmNQyNrTKkp3XIpIz3llFO8W0peRwbxzDPPtPmyJe9QkCg55ptvvnE1a9b0lkREJC8icOAAkQn7CS4oQWQCdOZhpNyQUtXUsowEmZQhEoRQosbfcpDJ5P1kGTnwpDkOgST3pXGNWcc25OQtY0V5X9j+BIJkgAjs6G57xRVXuBEjRlhpaPiYQf6OZjRdu3a1rDDTo/D+Va1a1V1wwQXJTWokcVBOPGvWLB3v5UEHBb8w9K2bC/jBY/4pzsTxY5oX8UNUokQJOytcsGBBb20SfpSYlJkDCM4+i2SG9iPJKu1DOYsMIScMmdaApjeTJk2y7qn33HOPBZehmalwBCF0zDz55JMtiCFwrFy5so2FZDgDmapKlSpZhjK3xeJ+xBhQMoT8S7BHxpbnyfZj29LNlmYz6TWPIZtIFpGxiP3797cutnSuPPvss+3vJfvE63cR2WSyyLfeequ3RnJSNOMHBYm5JBGCRDA2kVIUfthD6cBMsoP2I8kq7UPRRbMTGpvVrVvXXX311ckHlxdeeKFlEQ/U9IKTj7t27XLjxo1zixcvtnFQGzZssGY6/M4wBROTtnOCkkt6QWh2yq39iEO4jRs3WsD2008/2RhPAkMaBN177702FpBtXb9+fdsW6T03utLSeOiFF16wgLxGjRru2muvtSwwYxEZjyo5Jx6/i8gg8nmmCkCiQ0FiAkiUIBGUs3CmKZQOzCQ7aD+SrNI+lLtom8/vIIHIs88+a0HPsGHDLNApU6aMtdSPJNBjfraff/7ZMmMDBgywMfEnnHCCBTk0XeG++C3iPd60aZM79thj7frsCiJzaj/ida1Zs8YulHSS1Zs/f76VedIk5vbbb7f/M10JQTG3ZwqqA2VX2c5sc4Jy5jUcOHCgBYjDhw+37cg0FSxL9MTjdxH7yTPPPGMnfCQ6FCQmgEQKEplDi0YFnJX06cBMsoP2I8kq7UOxxW92RqaQJiqUqRIAvfrqqxYAXnTRRRYMZQQlr5RN8ptL9pEs2dq1a23uPqbroJMn46latGhhgSq3Y7J3sp5M/s5y06ZNbewVh0yFCxe2hj1MC8E+wzKPwX508cUX23NmgnlKOgnC+I1fuXKlLfPc+f0nMOP+W7Zs6UaNGuV+/fVXV7x4cesYS/dYHod/ybTSGIhOomRrCOx4PEo+MzLVAIEfJaOM7yS45HH5bW7durVtV7K40cq6Suri7buIfer666933377rbdGokFBYgJIpCDxlVdecVOnTrUyGJ8OzCQ7aD+SrNI+FPsYU0dQxfhEyh5pnkIHTgI1mqYQ9NEplcY5GQmcwhHoEfjx+0xQRvaOwJDfaYIpMpRcT/aE8s1evXrZ/kPH1hUrVthvHRlLnhPXcdtTTz3Vspm9e/e2ck3mE6Q0lEznkUce6Ro3bmwBInjMjAbAoSjDpdSWwJJDOx6TUlwaCTHHIQE4YwkZxymxJ56+i9iXaG7EyRSJLgWJCSCRgkS+TPix5XX6cyXpwEyyg/YjySrtQ/GLsXiUWhKcEczR4Ob888+3xiwEjYzJI3ACwRu/uTklGvsRv6UEnjSDozMsZafMN8k6phwhkCXDeMkll7jzzjvPSk+zEnRKdMXTdxGNpzi5wfOV6FKQmAASKUgEP150UBs0aJAt68BMsoP2I8kq7UN5DxlBAikCpJkzZ7rp06e7nTt3WiaQaTW4noweE/0zMTwZPOYA5PeY/YHAkyxlRmR2P9q3b59l+7gwTnL58uUW/BEAM+cg01DwWiiz5b7pMErGlLJUkJVkWZ1G41+8fBeR2edkBKXPiXD8GmsUJCaARAsSGfPBWV7+hQ7MJDtoP5Ks0j6UmAgUGRPInIyMT6RLKmWrc+bMsVLNPn36WEBJ9o6S0CpVqrinn37ariNTyXhJyl4JKDn52aZNGyv1pLSUKT782z744IN2nwSjlMIy1vLGG2+03346unLflIMyHpGyVRr5/PXXX65YsWI2TpLgVg1kEkO8fBdRWs24WwWIuUNBYgJItCARb731lrvuuuvsh1IHZpIdtB9JVmkfkswgeKQRDVkVfss5AcrY+yZNmti8wFxHIxgawijLJ5GIh+8imtTQxGn16tXeGom2aMYPB3v/iuQ4fjwbNGjgLYmIiMQnmsMwhIKDNfAvwSFTTxAU8n+uV4AoeUmrVq3c888/7y1JXqcgUaKGshzaidM2WURERETiA9lzSquvueYab43kdQoSJaruv/9+N2nSJG9JRERERGIZAWK5cuVsChpJHAoSJaruu+8+mwaDiYZFREREJLbdfvvt1rzJn8ZMEoOCRIk6Or0RLIqIiIhIbDvppJNsLk5JLAoSJeqY54mSU8oXRERERCQ2XXDBBa5FixbWjEkSi4JEiTrKFX788UdrHS4iIiIisWfYsGE2vcsJJ5zgrZFEoiBRck379u29/4mIiIhILKEb/YQJE7wlSTQKEiVXMB1GkSJFbIJ9EREREYkdd9xxh5WZVq5c2VsjiUZBouSaDh06uKOOOspbEhEREZHcNn/+fDd27Fh39tlne2skESlIlFxTqVIlN3PmTDd58mRvjYiIiIjkphEjRrhXXnnF5c+f31sjiUhBouSqiy++2N19993ekoiIiIjkliFDhrgrrrjCNW/e3FsjiUpBouSqRo0auWOPPdZt377dWyMiIiIi0UYn0y5durgTTzzRWyOJTEGi5LoZM2a4oUOHeksiIiIiEm29e/d2HTt2dKVLl/bWSCJTkCi57uCDD3bPPfec++qrr7w1IiIiIhIt7733nmvZsqV79NFHvTWS6BQkSkx4+umnNTZRREREJMq2bt3q2rVr544++mhvjYiCRIkRN9xwg/v000/dxo0bvTUiIiIiktO6du3qbrnlFnfSSSd5a0QUJEoMmTRpkqtfv763JCIiIiI5adq0ae7ee+91/fr189aIJFGQKDGjVatWbt26dW7u3LneGhERERHJCf/8849r0aKF27Vrl7dG5P8UJEpMGTlypCtYsKC3JCIiIiI5gV4QV111lTvzzDO9NSL/pyBRYkqdOnVc9+7d3dSpU701IiIiIpKdvv32W/fEE0+4wYMHe2tEUlKQKDHn9ttvt4uIiIiIZK89e/a4yy67zC1fvtymIRNJjfYMiTmNGjVy1atXt1p5EREREck+N998s2vSpImrUaOGt0ZkfwoSJSaNGjXKdejQwVsSERERkayizPTFF190Q4cO9daIpE5BosSs7777TrXyIiIiItmAuagvueQSt2HDBpWZygFpD5GYRafTYcOGeUsiIiIikllXXnmlu+eee1zlypW9NSJpU5AoMeu0005zn3zyiXv//fe9NSIiIiKSUZSZjh8/3j366KPeGpH0KUiUmPbff/+51q1bu+3bt3trRERERCRSy5Ytcw0aNPCWRCKjIFFiWvHixV3Lli01JYaIiIhIJjRt2tT17dvXFS1a1FsjcmAKEiXmvfTSS+6FF15wf//9t7dGRERERA5k4cKFbvr06a5t27beGpHIKEiUmJc/f343btw468glIiIiIgc2Z84cV69ePWUQJVMUJEpcuO222yyTOHXqVG+NiIiIiKTlqquucqNHj7aT7SIZpSBR4saECRPciSee6C2JiIiISGrIIjLftBrWSGYpSJS4cc4557gePXq4Z555xlsjIiIiIqGeeuop16ZNG1eyZElvjUjGKUiUuNKnTx/37LPPakoMERERkTAbN250/fv3d59//rm3RiRzFCRKXCldurR7/PHH3dq1a701IiIiIrJnzx73/fffu99//92mEBPJCgWJEnfuuusu17lzZzd37lxvjYiIiEhia9iwoRs1apQ74ogjvDUimacgUeJS69at3TXXXOMtiYiIiCSuSZMmuT///NMNHTrUWyOSNQoSJS41a9bM1apVy2rvRURERBLVkiVLXIkSJWzifJHsoiBR4taIESNcp06d1MRGREREEtLevXtd/fr13YoVK9xhhx3mrRXJOgWJEteOPPJId/XVV3tLIiIiIonj3nvvdZdccomOhSTbKUiUuDZgwAArOaWjl4iIiEiiYPxht27d3BtvvOGtEck+ChIlrh188MHW5ZRJ9v/77z9vrYiIiEjeNXXqVNe1a1d1MpUcoyBR8oSff/7ZtW3b1lsSERERybt69uxpHU2POuoob41I9lKQKHnCmDFj3JdffmkDuEVERETyIqqm2rdv777++mt33nnneWtFsp+CRMkT6Oj1yy+/uEGDBnlrRERERPKWJk2auPXr13tLIjlHQaLkKUyL8fDDD3tLIiIiInnD1q1b3bZt29y7777rrRHJOQoSJU/5+OOPrduXmtiIiIhIXjFr1izXvXt3N3PmTGvaJ5LTtJdJnlK0aFG3cuVKN378eG+NiIiISPxiqq+mTZu6Fi1aeGtEcp6CRMlz8ufP73r16uUeffRRb42IiIhIfPr8889tuosLL7zQWyOS8xQkSp40ZcoU98orr7h//vnHWyMiIiISXxo2bGjTXHTu3NlbIxIdChIlT/LLTmfPnu2tEREREYkfd999t1uzZo2rX7++t0YkehQkSp7FtBh0Or3//vu9NSIiIiKxj3mfy5cv7+bMmeOtEYkuBYmSp33yySfujTfecOvWrfPWiIiIiMQuOplWrFjRTnJzwlskNyhIlDztiCOOcMuWLXMrVqzQtBgiIiIS0/7++293+eWXu+HDh3trRHKHgkTJ8woXLuwef/xxd9NNN3lrRERERGLLnj173I4dO9ykSZPUyVRynYJESQjMm/jZZ5+5b7/91lsjIiIiEju6dOlindmrVavmrRHJPQoSJSEwd+KSJUustn/z5s3eWhEREZHc1717d3f44Ye73r17e2tEcpeCREkYlJ2OHTvW1atXz1sjIiIikrveeust17FjRxsaIxIrFCRKQnn00UetrfSQIUO8NSIiIiK5Y9iwYe7BBx+0SieqnkRihYJESThMsH/ZZZe5n3/+2VsjIiIiEl10XX/xxRfdN99844466ihvrUhsUJAoCYdpMebNm+fq1q1rWUURERGRaPr+++/drbfe6hYsWODKli3rrRWJHQoSJSE1a9bMXXzxxa5NmzbeGhEREZGct3LlSuuP0KJFC2+NSOxRkCgJ64033nDPPfec+/jjj701IiIiIjnru+++c/369XONGjXy1ojEHgWJmfD777+7tm3buhNOOMHaFVesWNE98sgjNgmqxI+DDz7YxgPccMMNbv78+d5aERERkezHEJeTTjrJjh9vueUWb61IbFKQmAk//fSTBReDBw92P/74o+vfv78bNGiQe+ihh7xbSLwoWbKkGzlypGvdurW3RkRERCT7Va9e3V100UXuzDPP9NaIxC4FiZlw6aWXutdff91dcsklrkKFCq5p06bugQcecOPGjfNuIfGEcg8Gjg8YMMBbIyIiIpJ9fvnlF9erVy83dOhQb41IbFOQmE22bNniihYt6i1JvKH0lLmKunXr5q0RERERyTqGtVCx1KBBA2+NSOw7KBDk/V8y6ddff3VVq1Z1ffv2de3atfPWprR79267+LZu3eqOP/549/fffyfk3Dj//vuvmzp1qn1hHnLIId7a3LV9+3Z3zjnnuIULF9qkthL7YnE/kviifUiyg/YjScvbb7/tnnrqKWtWk95k+dqHJBLED8WLF7fkVE7HDwoSQ3Tt2tX17t3bW0rdkiVL3Mknn+wtOffnn39afXmdOnXSLSF49NFH3WOPPeYt/d+oUaNcwYIFvSWJBWPGjLEvaWWGRUREJLPeeecdV6tWLXfMMcekGyCKRGrnzp3uuuuuU5AYbevXr3cbNmzwllLHGMRDDz3U/r969WoLDhmIzHQKlCymRZnElGL5jBkNiThZsHTpUn2pxzideZWs0j4k2UH7kYR74oknrH/FDz/8EFEyQPuQREKZxDhABrFu3bpWZjpixAiXL18+75rI8CYfffTRUXmTYxFfhsxPeNlll8XklyGT7PPcmjdv7q2RWBTr+5HEPu1Dkh20H0m4Zs2aueHDh0d8jKd9SCIRzfhBjWsygQCRDGLZsmVtHCIZyDVr1thF8obXXnvNxiV2797dWyMiIiKSvoEDB7rGjRu7iRMnJmQSQPIOBYmZQDkAzWo+++wzV6ZMGVeqVKnki+Qd9erVs3Gm7733nrdGREREJHWjR492Dz/8sHv11Ve9NSLxS0FiJtx8882OKt3ULpJ3MIZg2rRpbsaMGd4aERERkf39+OOP7owzznDffvutK126tLdWJH4pSBRJx2mnneb69evnzjrrLJsiQ0RERCTUpEmT3AUXXOBKlizpypUr560ViW8KEkUOgG62DCQ/99xz3X///eetFRERkUS3Z88emyObyiOCRJG8QkGiSAR69erl2rZt6/755x9vjYiIiCQyehY899xzbuXKla5KlSreWpG8QUGiSIQ6d+5sE5h27NjRWyMiIiKJaMyYMZZBvPLKK9OdJ1skXmmvFsmAt99+27377rvuzTff9NaIiIhIIqGq6JdffnFz5851lStX9taK5C0KEkUygLkT6VxWt25dt2TJEm+tiIiIJIJhw4a5U045xfXo0cNVrFjRWyuS9yhIFMkgWltv27bN1axZ0y1btsxbKyIiInnZl19+6bp16+ZmzpzprRHJuxQkimQCU2O88sor1vVURERE8rYhQ4a4EiVKuKVLl7oyZcp4a0XyLgWJIpnUqlUrt2jRIvf444+r66mIiEgexXzJDz/8sCtSpIgrXLiwt1Ykb1OQKJIFzKG4ZcsWm2xfcyiKiIjkPZ9++qn74YcfNA+iJBQFiSJZxBnGatWquU8++cRbIyIiIvHujjvusKqhSZMmueLFi3trRRKDgkSRbPDWW2+5AgUKuBYtWnhrREREJF61b9/effHFF5ryShKWgkSRbOJPi8GZRxEREYk/DB3p06ePdTFduHChDSsRSUQKEkWyycEHH+zmz5/vjjvuOLdz505vrYiIiMSDPXv2uDPOOMN99dVXrly5cva7LpKotPeLZCPOOHbv3t1Vr17dPfPMM95aERERiWVkEKdPn+7q1Knjxo0b560VSVwKEkVyAOMYnn/+eTdx4kRvjYiIiMSi1atXu+OPP96deOKJ7uWXX/bWiiQ2BYkiOYB5lBYvXuyqVq3q3nnnHW+tiIiIxBJKTKtUqWLzIFasWNFbKyIKEkVySNGiRe1fGtmMHj3a/i8iIiKxYdasWTa9Bf0Ebr/9dm+tiEBBokgOKlOmjJszZ4578cUXvTUiIiKS20aMGOEuv/xyV6xYMfutFpGUFCSK5DDKV+iUds0117gPP/zQWysiIiK5gQ7kM2bMcPPmzXO1a9f21opIKAWJIlHCeIebbrpJzWxERERyAR1Mr7jiCnfVVVe5oUOHuhNOOMG7RkTCKUgUiZLTTz/dxj8cccQRbsWKFd5aERERiYZbb73V7dq1y3388cfeGhFJi4JEkSg65ZRTXI0aNazr6ZgxY7y1IiIiklNWrVrlmjRp4oYMGeImT56sSfJFIqBPiUiUFSxY0JrZdOrUyW3cuNFbKyIiItlt7ty57swzz7QmNfnz5/fWisiBKEgUyQU0s/nzzz/dBx984F5//XVvrYiIiGQXTsgefvjhbuzYsZriQiSDFCSK5BLKXerWresefPBBN3jwYG+tiIiIZFXPnj1d06ZNbXqLevXqeWtFJFIKEkVyUdmyZd2CBQvcr7/+ai25RUREJGsYg/j++++7ZcuWucKFC3trRSQjFCSK5LLSpUu7Pn36uIsuusjdc8893loRERHJiHXr1tlwDjqIcwKWbuIikjkKEkVixMyZM92UKVPcc889560RERGRSOzZs8emmrrzzjtdrVq1vLUiklkKEkVixGGHHeYWL17sbr75Zte+fXub9FdERETS9+yzz7rx48e7pUuXuvvuu89bKyJZoSBRJIbQzIbxE4yjqFatmgJFERGRdFxxxRXW/K1+/foafyiSjRQkisQYAsWpU6fapPuMr1BDGxERkZT+/vtv9+2337qGDRu6X375xRUvXty7RkSyw0GBIO//EkVbt251Rx99tNuyZYs76qijvLWJ499//3Uff/yxu+yyy9whhxzirZVwzO10991322TAtPGWlLQfSVYl8j60b98+e/2SdWzHL774wl144YX6LoqCefPm2dhDmr1dd9113tr4pn1IwHufL18+b2l/0YwfFCTmEgWJOriP1JAhQ2y8BdNkSErajySrEnEf4md/zZo1bvPmzd4aySq26a5du2zi9oMOOshbKzmBbb1+/Xo7dmIsf16hfUh8lE0fe+yxqe4HChITgIJEHdxnxN69e1337t1dzZo1XbNmzby1ov1IsioR96G//vrLAsSSJUu6ggUL6oA0GzB+fPv27TblAkMGJPtxuMrUFihfvrz9m5doHxL2cYYYMdSIQLFUqVLeNf+nIDEBKEjUwX1G/fjjjzaXYo8ePVynTp28tYlN+5FkVaLtQ5SY0gGSALFYsWLeWskqDvD5Xef3XAf4OYNxh5ThnXDCCXnyxIb2IfFt2LDBAsVKlSrtV3oazfhBe6FInDjttNPcTz/9ZF8OBIwiIhlFUAwyiCLxgNJShluceOKJrkKFCsp8S57nfz/739e5RUGiSByhe9stt9zi2rVr5+rWrWtlqCIiGaUDbYkHlJdSHl22bFnts5IwYmVfV5AoEodmz55ttep9+/b11oiIiOQN//zzjwWINO8444wz3KGHHupdIyLRoiBRJE6NGjXKPfDAA1azzhQZIiKZtWfPSrdz5/yoXXi8jKLssEOHDpZVKlCggAUQzJE3a9Ys7xaSF/A+L1myxB155JH2PiuDKJI71Lgml6hxjRqOZJfPPvvMtWjRwr3//vuudu3a3trEoP1IsirR9iEyNMuXL7fmH/70AQRsP/xQ2QUC/9hyNBx00GHu9NN/doceWtZbc2DMH7dnzx7Xq1cvG5u2du1a+/5jvHbTpk29W+UONR3JOg5HadjB55BpIBIte6h9SHypfU/71LhGRCJWv3794AHeD9YSnGkyREQyYu/ev6MaIILH43EjxZQdM2fOdL1797bx2OXKlXPnn3++69atmwWIv//+u2Wcvv/+e+8vkv6GdTNmzLBl/mWZwPLcc8+15hBMK/Tzzz/b9ZJ7mB9w4cKFbtu2bXYArPJSkdynIFEkDyhdurQ1tfnkk09crVq17Gy7iEhewdxxXCZMmOB2797trc0cTqb169fPffvtty5//vyuTZs23jWSG8iakB05/vjjLXMiIrFBQaJIHkFJwrx586wka+PGjW7ZsmXeNSIi8Y1g7o033nBvvvmmTTLNybCHHnrIsk8Z9dRTT9mcs6eeeqrr2rWrNQIjUJHoYs7OxYsXW1ndMccc44oWLepdIyKxQEGiSB7DeB0CRMqpRo4c6a0VEYlvV199tVu9erWNv7700kutfPScc86x4DEjzjzzTO9/zrpEg4mrJXoIENesWWOlpaeccoq3VkRiiYJEkTyIs+yUUj377LMqPRWRPIOKiQYNGriePXtaBvDmm292jzzySHKjj9BefGlNRB3aoMjvnEnTEMl5vD+cxPzpp5/ccccdZxcRiU0KEkXyqIoVK7oFCxbYWfbTTz/dxnyIiOQllIzu2LHDlShRwpaZeN0X2sRGch8B4qpVq+xf3jcRiW0KEkXyuNtuu81deeWVKUqsRETiCVMj1KtXz40YMcLGITKO7d1337VqiWbNmtmUCdWrV3fPPPOMzbH3+eefux49enh/LbmJoJCJ8Rl/SHOaE088MTmDKyKxS0GiSAJ44oknrLyHA6iHH37YWysiEh/obFqtWjXXv39/a85FdQQlp+3atXMvvfSS3ea1115ze/fudVWrVnWdOnVyTz75pK2X3LVy5UprDKSxhyLxRZPp55JoToYZizQJeu5gv+MAiwOuL7/80lsbv7QfSVZpMv34mUw/lmki9P1RWsq8hwoOI6N9SHyxMpm+gsRcoiBRB/e5ac6cOVb6wxdQnTp1vLXxR/uRZJWCxCQEihmZ3D6r8ucvnmcCROgAPyX2Mfa1SpUquXz58nlrJT3ah8QXK0Gi9kKRBETZ1kknneSaN2/u7r//fm+tiCQqAraCBc+J2iUvBYiShJzDH3/84ZYuXerKly9vGUQFiCLxS0GiSIKqXbu2jRVhEuNZs2bZBPwiIiKZ8euvv7qdO3daZ201phGJfwoSRRJYwYIF3YMPPujmzp1rHefGjBnjXSMiIpI+soe///67zX3Ib0jlypWVPRTJIxQkioh1AiSbOGnSJKuD1wT8IiJyIHTNZlwvY6eUPRTJWxQkiohh/AgT77/11ls2lxVBo4iISKh9+/bZuEOGK5x88sk2vl2NVkTyHn2qRSSFRx55xI0ePdo99dRT1kWLjmsiIiJYsmSJK1CggJ1MVPZQJO9SkCgi+6lXr55NC0CgSBOCX375xbtGREQSze7du92PP/7o1qxZ40477TRXrlw5BYgieZyCRBFJU+/evd2jjz7qWrdurXGKIiIJhsY0XH7++WdXvHhxd+yxxyo4FEkQChJFJF0EiLNnz3a9evWy5gSUGomI5GV07CQY+v777701iWfz5s1uwYIFbtu2be7MM8+06ZJkf8OGDXOXXHKJtxSZ6tWru/fee89big3Mbfn88897S7FhxowZ9jlkX5ToU5AoIhFhrOKTTz7pWrZs6fbu3auxiiJ5yKZN/7pVq3ZH7cLjZcTNN99sB4vhl0svvdS7ReZx31dccYW3lDU0/+J50Qgs3LvvvmvXcTCe2/yDb/9y+OGHWxnpkCFDrDENlSNMjM+0FkcddZT3V/ElGgHGP//843r27Gm/j75x48a5c8891xUuXNgVKlTIValSxQ0fPty7NkmPHj1c165do/I7WqdOHetgLpJRChJFJGLXX3+9W7hwoR1IkFXk/yIS3wjY+vT+w734/KqoXXi8jAaKBIR//fVXigtNtjKLYCgnDtIJDNatW+e++uorb00SMk5ly5b1lmIDZaRsx8WLF7vbbrvNdejQwb366qsWXJ1xxhnuiCOO8G4ZOabEyEsot+XEaGrGjh1rQXStWrW8Nc4VLVrUde/e3d5/fiNvueUWu0yePNm7hXONGjWyDC3TTonEKgWJIpJhd9xxh+vXr5+7+uqrlVUUiXM7dvwX/BwHvKXo4PF43IygoyZj4kIvRYoU8a517rnnnrPAhiCNzpt8T23fvt27NinLR3bn/fffd6eeeqrdX5s2bdybb77pJk6cmJxVIwPl++2331zdunVdwYIF3VlnnbVf4Jea/Pnzu+uuu8699tpr3hrnVq1aZffL+nADBw60BmGHHnqoTUYfnnViqolmzZpZwEZAcs0117i1a9d61zobN+5nq8hSHn300e7aa6+1IORASpYsaduRUlKGFpQpU8Zt2bLFHXLIIXb9J5984mrXrm3brVixYq5JkyY2cb7PL8sdM2aMu+iii9xhhx1mJxF5ngRQoSZMmGDvjf+82CatWrWyoIr1ZN/mzJlj14H35JxzzrH7rFChgnvsscdSBGs87tChQ92VV15p7w9TcfDegufF+wb2EW5Lxhj8XvXyhk+QQeV9DX2ufgaSAK5q1aq2n3z55ZfetSm9/fbb7vLLL/eWkpC54zmRTeZ97dixo5Xrht5Hvnz53GWXXWZ/nxUbNmywbXjcccfZNmD/Dz1xwmv+/PPP3QsvvGCviQvbJhIH+jz5+10oylVDM+V+lr5v376uVKlStg/deeedKU4k0BSpS5cu9hhsa7LXnFAJNW/ePNs/eI01a9a0kxuS8xQkikimNG/e3Lqe0gW1dOnSOiMqIrmKufpefPFF68JJ4Ddt2jT34IMPetcm2blzpzXkIrjgdtyeoCs0S8lBqI+M0AMPPGBjEytVqmQH5GlllUIRfL7zzjv2eCBA5THCx/WNHz/egoj777/f/fDDD+7222+3rNP06dPtegIaAsSNGzfawf7UqVMtcKXsPxSBG0HYhx9+aBdu+8wzz3jXpm3Xrl32uNwnATCvv0aNGt61nEDY4e677z737bffus8++8y2MQFQ+IlBSid5HYxZv+qqqyxIff31171rk7DM78aRRx5pwQZB5Z9//mmBHWMfea/8+505c6a76aab7D7Jcg4ePNi2IR23QxE48v6RsSPootqFbUXA4Y/587OlBEogQGQ+4EGDBtk+cO+997obbrjBtlkoXhPbkNdEkJcaAj+Cl7SQhWS78RwuvPBCb22S888/315nVlDuSiD70Ucf2ftINvjGG29033zzjV3Pa+b9bNeuXfL+zbaJRCSfp0iwL7N/8i/3w/vIxcf7TGDLY7Gtea/DM9h8DjkxzX7ISRg+XxIFwR1YcsGWLVs4bWv/JqI9e/YEgj9o9q/Ev+APZaBixYqBTZs2BYIHFd7anKf9SLIq0fahYFAQCB5027++P/74J9D5/l+jfuFxI9W6detAvnz5AoUKFUpxCQYN3i329+677waKFSvmLQUCwSDFfneDAZ+3Jgn3HQzEvKUky5cvt9sGg0lvTSAQPFi2dcEDWW/N/+3bt8++/4YNGxY4+uijbV2VKlUCwYPiQDDwse/HiRMnBvr37x8oV66cXY9gQBoIHsB7S0latGgRCAY89v8pU6bY6165cqUtw38ewUDAlh955JFAwYIFA1u3brVldO7cOVCtWjVvaX+ffvqp3Qd/xyV44B0IBgWBJ5980rtF6tavX29/t2jRIlv2t9Pzzz9vy745c+bY8169erUtr1271h5jxowZthwMBALBYDGwYcMGWw5Xv379wNNPP+0tJRk+fHigVKlS3lIw+go+bo8ePbylQCAYeNq6SZMm2XIwKLFl3hdfMKiy1zt79mxvTZK2bdsGWrVqZf/3/47vhfRwv9zuiy++8Nb83+bNm23/5DUXKFDA9otw7A9sc/Yd+PuQv5xZjRs3Dtx///3eUiAQDMYDwWDbW0ob+yX7Z1rCP0/sd2eddZa3lCR8/+azxfLevXu9NUn7d8uWLe3/weDZtuHUqVNtOZz/XrC/+oIBsa0L/Q7La1L7nvZFM35QJlFEsozxGL/++quVQFGu1KdPH+8aEZHsQfkgGb3QS/v27b1rnQseSLpgcGGld2SryKhQjudn80BJZ1pZodSE3pZyOTDeEGQ7/Atj+cKR7SB7RoaKjByZrnBkTkLHs4Fl1oN/yfyEZn8olaX8078NKPHjNft4rv7zDBcM3CxzCDJhZPHYlmRXg4GZlb/6qBYhe0q5JyWkfikhJbChwrNpZMlohEPmCCNGjLC5Ff1sGo939tlnW6lpanhOjz/+eIpt7GfDQt/P0PcnGJTZc0zrdYPfKf6+QYMGKe6bzGJoGS3SyxAieABv/1IOG473gtc4d+5cy36SjQ0tYwalrmROKbfMLMbVPvHEE1YWyrbktTD2Mfz9yYxIPk+RYD+gvNYXum+yjbiOrHJ60vscSs5RkCgi2YbxNJS8MD6FL3/KfkREsgNBAOOVQi9+kME4K8bLcTBJmSFjmF5++WW7bk/IHK8cmDMuK1L+2Dz4f+eXRPId518oewxH6ePXX39tY7c4wKZMLqeEPk/wXMNLQv/++28LsvwxfmBcHtuRA3nKXHmeoSWdjLfje5xmNowX9McMhm5T8N6Eu/XWW5PLCgmWuX9/G/I+pIdyVLZp6DZetGiRBa2hQVkkrzuUP6aO8szQ+6akNXwMZWqvKRTj63i8TZs2eWv+j1JNtitj9iglpsyWMtdQbFce40DbIj2ckKWklDF9lHPyWho2bJjleY0j+TzxGgOW0P2/1JoWpfceRfra0/scSs5RkCgi2YrxiYwb4Afy5JNPth9Hxk2IiOQUDmI5aGTcEnPQMX6QjFkkyC6SkckoP1DlQgOYcASwTZs2tUxiWmOoaG4ya9YsbykJy2QLwfVMRcHFR0DDtA7+bSLBuLI1a9ZYBpLnFZrZCcV6P0NG1oixdEzXQEaJ55JaQJQWxvmtWLHCxprxnGmM4yP4IKBJ60QiDWt47NBt7F8ITiLB+4rQ99ZvWESmLfx+Ix2r5+P+uT9e24Gwb4ZnDDmhSjY1K9hXGLPKtqYBD8H/0qVLvWuTZGb/juTzVKJECdunQgNF3tOMIAPK44SPB5XYoCBRRHIEZS/8qPhd7iLpCigikhYOsjkoDb2QHQMH+WQxBgwYYKWUdPqkMUkkKKGk8QlBCfeXnVM4kEnjPjlhlprOnTvbbSjxJEtGR0nm2aNZDi6++GI7kCYrOX/+fGtIQqMPyvMOVA7JwTsBDIEY2+f000/fL3NDyR7bkWCOeRzZbgQdoCso2TK6lVKmSeMSyiYjxd/TxIbXyGTzDEXwUcJKV1U6XxLo8J6RsfJ/Jx5++GErASWbSIBLaS2dQAlYI0V5K1knGvmsX7/esoiUTbJtaVZDKSwlpmxX9hu/NDYjyNqFdz4lY+g3GOJ5E2ixXQnkQtG0JqOT8IejoyuPNXv2bHssGh+Fdr4F+zcZYLKD7IuRZOAi+TzRxZXt+uyzz9p2JNOY0QZ2PDdOHnAShcZLy5cvt7Jcmj5J7lOQKCI5hvIq2sDz40hXNH60w39QRUQiwXQMjEcKvTA9A8iiEGDRuZRgaOTIkfuV96WFsW6UyhN0kR0Jz+xlBUEZgVZaCJIoF2SKAEo+6exIaSYH4CDIYSoIAi7G8xE0ki2ipD8tZI3owMpBfvHixS1zSPYsNbxutiNBASWLBBkEBiBjR2BGVoltSmCV0fHmbdu2tfLE8Ewq2a0pU6ZYBpaxmgTCdBL1M5wEXwR33Oa8886zbFb//v3tNyRSjKUjyKRLKV1l77rrLlvPGD4mwGf/IDtK11nKTym9zSheHx2+mTbEx/hTpovg/WR8KcEvYzIpv/XR1ZXAjhJcH0Ec73P42MX0EDSTdWV7sc/4gXcogmK2K1lP9u9IxitG8nli273yyisWHHJ7TmD4JzcyghMkVByxzTiZwueRbSi57yC613j/lyjaunWrzWXEFwuZlkTDjxdfrPw4hNerS97Fe84PIeMwGjdubAcwWaH9SLIq0fYhSr85W88BsT+2y59MP5pzJebPf5Dr3OX44EFx3tjmZGf4Xef3PNJyyOxGcEhGkOdB0JVWSWk0kYEiuKSqxC//zGtatGhhgVq3bt28NQdGQE7pLllaH1NlMPcwWbn0TixI3pfa97QvmvGDgsRcoiBRB/eJjK51nBVmTifOVGaW9iPJKgWJSQgUMzq5fVYUKnRwngkQkZtBIo9NwMHhHCWVZcuWzbVA1UcHTJrkMCaTzFb4/IZ5CSc+P/jgA3f33Xd7aw6MElQqbELnzSQLx/5DdjC33z/JXQoSE5yCRB3cJzo+A4xf4ECCM+B0gMso7UeSVQoSJTvkVpBIho4xaJQp+tNTxAI6uhIYUiJLuSxj1CV9sZCNltgQK0Gi9kIRyRV8ubVs2dKaJDDuhXE2/EiKiEjaOLe/atUqu1C6T2lpLAWIIEjkBAwllAoQReKTgkQRyVWcKWPCYQbxM2CfwfAZbaMtIpLXERxyYb5AyjkpVSSjkJPzL4pI4lKQKCIxga5s9erVc927d3eNGjWydvD+xMciIomKwJB5Ejl5xncimUPmrVOJvYjkJAWJIhJTGMzPOEVandOWnXmkmMdLRCSRUH7PeEOyhswRyVQEzPPHtBgiIjlNQaKIxCTapdOUgTmyxo8fb3OHMSm0iEhex4mxBQsWWOawYMGCdsJMmUMRiSYFiSISs+jwRoe8Dh06WPkpB0p33nmnd62ISN7BpPN8z/3222821vDMM890FStWVOZQRHKFgkQRiQtPP/20nV1nsuHHHnvMXX/99dYKWkQknu3atcs6gf7666/u8MMPt2Ze/BsLk+GLSOJSkCgicYMSVJrbdO7c2UqwaOCwd+9elaGKSDIybxMmTPCW9sfk59wmt7soMxfajz/+6JYuXWpjDk899VRXpkyZA2YOmXtw1KhR3lLedfPNN9tE/BKZQYMGucsvv9xbSt+GDRtcyZIl7bOQV8TK5zoc08FUqVLFW4ovChJFJO4QIL766qtuxYoVbv369TZtRsOGDW3eMBHJuN1/rnXbf1gatQuPlxEEDBwAcmFsHtM/NGjQwL322mv7za9K4ys6JMciOpXSjGbx4sU2dUWpUqXcWWedFfFcgu+//779/bXXXuutyTnxfHAbD5jyif158+bN3pqsadOmjZs/f76bOXOmtyZtDONgjmJ/fk3Gv7Zq1codf/zxlsXmN/WFF16w60LxnM855xxXoEABG/7xxhtveNfkLLZTeid+JGcoSBSRuMZBFgeF559/vo3luf/++21cj4hEhoBtfr0b3cImt0XtwuNlNFC89NJL7bNOxmDSpEmubt26rmPHjq5JkyZWUeBjOh0OYmPJvn37rEspJ7Y2bdpkB+cEiUWLFvVuEZkXX3zR3XLLLTZeWzKH0t68hBMP7P9U2lx33XW2j6SH/XDYsGGubdu23hrn5s2bZ5nFESNGWHabqai6devmXnrpJe8Wzi1fvtw1btzYPndk6zp16uRuvfVWN3nyZO8WktfoW0ZE4h4HTE888YSVYXGAeMEFF9hUGuEZBhHZ37+btrjA7j3eUnTweDxuRhD48fk+7rjjLJvx0EMPuYkTJ1rAGJrRCM86fPPNN+7ss892hx12mDv33HPdd999512TdIBNRqRv377emiQcBHM/jBME/x88eLAFpFQykGn56quv7Po6derY1BRM17Ns2TK7vW/gwIGubNmy9tiUx5PlOfnkk+0+eGyydVzPaytdurS75557vL/cH1UT06ZNS1FSmN59PP744zZtRjiygz179rT/kxniBFuhQoVc4cKFXa1atSyQZXsy9psME6+di7+NyXwRHJQoUcIdddRRNgSA2/n8DCRZXp4XWdI77rjDAuVnn33W3kMCErJZkeB5+I/Vvn17a/Dj++STT1zt2rXtuRcrVszen9D3wC9BHDNmjLvooovsfRgyZIjd19ixY71bJWGfYTts27bNlqlMIbtGIM969p05c+bYdWDfYz/kPitUqGDPM/RkBY87dOhQd+WVV9r7fdJJJ1kmGDwvgi0UKVLEbkvwD363evXqlTw2lUxz6HP1M5Ds91WrVrX3/csvv7Tr2Dd4DMa5puXjjz+2v6levbq3JikLSeaQbcRr4feT5zNu3DjvFknlrDynfv362f5/1113uebNm7v+/ft7t8icuXPnWlVA8eLFrWETz4GMqM/PdrIded3+8oGwvxEI+9uxcuXK+2VH+ewS7IaixJnKBR+PR08EthGfc/Zp9qFQB9pXMHz4cLsvXiOVAP5+FssUJIpInsJ4RRrccDa1S5cuNt8iZ01FJO8hQOEgOvRgNhRTSBA4MN6PbAkBzAMPPOBdm3Qgz8EfU+yEYpmTTgSQPk5E3XTTTRZAEuiRtbn99tst40Igirvvvtv+/fvvv93zzz9vmU7W/fDDD9aZmQPv6dOn223ee+89O8Am+KT6gSCFQDItBAJ+gOpL7z54XUuWLLGDcB8B8sKFC+15ENBwQMxBOesIem+77TbbJi1btrSqjNNOO82yt1xYhxYtWrh169ZZkMI2JVCqX79+irHhBGpcTxA3evRo+w4mC8XB9Oeff+569+7tevTosd+BdLjPPvvMXgOBEffD+0ww5tuxY4e777773Lfffmu35YQhwUT4CcKuXbvae8F9XXXVVXaQntp7TtBDIMB+w3b5888/LegiCH7wwQeT75dgn32B+6R0mO1PEB0e+PJcr7nmGtu+l112mTVcYztR1sl7h59//tm2L/sLnnnmGffWW29ZUEZW795777Wgje0WitfEbXlNdMIFwQnva3rbledOcHkgW7ZsSZHpZv+4+OKLvaUkDPNgfVYQLLVu3dr276+//tqCabaVH0T5+y/vD9spdH9OD+8VY3zfffdde48efvhhO7H0zjvveLeIHIGxf4KJEx50XOd9w4H2FfB54LP54Ycf2oX3kvcu5gUkVwQ/fAE2P/8moj179gSCHxj7VySzItmPZs+eHQj+sAU2bNgQCB7MBXbv3u1dI5J430W7du0KBA+Y7F/ftkU/B2aVuyjqFx43UsGDyECzZs28pZSCwUsgGDh5SwH7bR0/frz9P3jwHihWrFiK1ztw4EC7TfCAz5aDB3eBfPnyBYIH1rbMvlC8ePFA8KDflsHtg0GNtxQIBA+MbV0w+LHlffv2BYYMGRI47LDDAsEAMRA8uA9Uq1Yt0K5dO7veFwywAsEDYPt/8MAzUKlSpYj3vWAwGKhQoYK3lORA99GoUaNA8IDWWwoEggFroE6dOvZ/vhN5DcEAzJbDPfLII4FgAO4tJQkGGIGjjjoq8M8//3hrklSsWNG2Nfi7YDAb2Lp1qy0jGEwEypcvb9vJV7ly5UCvXr28pf3xngeDlEAwEPTWJL13RxxxRIr7CbV+/Xp7TYsWLbLl5cuX23IwALNlH+817/nq1attee3atYH8+fMnbwteSzBYtG2UmmBQHHj66ae9pSTDhw8PlCpVylvaf58JBhO2Lhg82/L06dNtedOmTbbMa1qzZo1tO363QrVt2zbQqlUr+7//d3xvpaZIkSIp9t1wfI7atGnjLaVu1qxZtj0mT57srQkEgsHbfq/5o48+sueyc+dOb03WsR3Y9h988IG3JuVnOi3+e+1/rlNz5513Bq6++mpvKRAIBneBYKDvLSVh+7Dv+cqVKxcIBuneUiAQDP4CJUuWtH0RB9pXUvs8dO7c2b4f0pLa97QvmvGDMokikqfVqFHDTZ061f4fPHCwUifOJIae5ROR+BU8lrHsV2r8LAslgT6+E0JRokmWi/JIBA9OrdsoGbNQfrYGNM4BWTsen/HQfKfQsZTGOmQu6VpK+WYolnlO4P6DB4FW3hcMJl3wIDhFuWI4bhv6OnCg+2AdGTieVzCQtK6oZBhBloiyOrJBlClSikemJj1kScicUNpJGal/YbxaaJknZXVk5HxsL7ZJ6FhK1pGRTA9ZYrKnPt47Hv+PP/6wZbKnlPnx+ikh9UsRV65caf/6yAKFosSWLOmbb75py4zFo+qE7DHIFlOiHJpJC8V2oJw3dBuwrdl+jPnzhe4zlCHyHNN7zexH/D3ll6H3TWYxvJQ5/DX5KK0MfQ7hUtuPQpH1pqlNMLixEuqcRiMmth0ZREox2Ua8x+HvYWa8/PLLljWlXJntSJloZu439H3ku4bjCP99PNC+gvDPA70UDrTvxwIFiSKSEPgC5+CPcid++DhY4wDPHyMiIvGJoItxR1nBGLu3337bDqApa6O0MjQ4AcGfzz/JxEE9YwUZJ0mwiUhPQFFySMnaK6+8Ygf2lLERpKTVWIUxWzS9CXWg+yD4Y/wZwSPff6ynpNLHa6VcsGbNmjZur1KlSlbylxYO3jnA5cA49MJzoNTfF7qtwIF1auuyerKO10f5Jt2uKbH0yywJiEMRoIXjPffHWbIdKMH1TzawLdPDdqCUNHQbcBKSoDU0AMvoa6Z8Fh999FGK+6ZcMnwMZWqvCWwPgqK0pLYf+XgcSocpO6YcOBSBEQFdKJYJ6g60vdJDqSmvkZMUs2fPtv9zEiL8PcwoPs+UljMuccqUKXa/vMeh98tJC07yhErt85fe+xjJa8+JfT8aFCSKSELhwI8mBxwYMT7p008/tbEhjCHgbLuIxA8auXBwfvXVV3trUmL8HuPBQj/bqQVBjIHioJtGM4yj87Nt4RinRSDgH+ARnNKEhUDMDzB8PPasWbO8pSQsk1HzcYBJoMMYasbd8b3E60kN2QrGW4cf4Kd3H3RQ5SCcIIgLY/HCD2q5X8ZVcoBOoxt/Dka6Ze7bt8/+72P8Ic+B+2W8ZuiF4CO7kbEjcPfx3pERIjhmrj+CU4IZAhu2d1rBT2oY50eTHrYbwRHbyUfmiKAirTl42Q48dvg24BJp51m2L0K3Mc1V2JfIdoXfL6/5QMg2sq/znqaF63i94Rj/SDMdtkNqTYXI4jLuMxRVOuGZ+YziM0GzJT6DZHd5/YzpDUWQFb4vHgj3y8kPTpzwmtmG4dlYgunQ7DmPQSY1Iw60r8QzBYkikrA4sOQA4bzzzrMuhWQC+HFevXq1dwsRiRWUgBKg0CCC7od0HKQsjsY0NBFJDc1lCN4oZ+PAmM6O4Z1MkS9fPiu9JFii7C30wNfPPFAeRpkjJ5kIkuAf6KeGzBqZKgJPAsvnnnvOGq/4jXO4joYuHJSSkaTkkQCOssfUcKBLIBYaeEZyH2TMCKbDg19KRHm9BJUES2RbeJ5+YxxK5LgNB8ActLP9aVzCtqHhDbenSyfBJVMm0Dwmu7HtyQT57x0lkHTVJBCjKygZJ0oI+f7mNdLEJlL8PU1seJ+oLqHJiY8SVjJnvE62N9uWk4lsK9AEhRJQsokEV2SzyVyFZ9/Sw3vEvkkjE7LRZCcpSaRhEM1qKIUlqGFfHzBgQHJpbHpoSkPpbcWKFb01+6O8mOccGlCz/xAgsh3YhnzOuPC8fHSWZTtwQvWnn36y7DVDN3iuWcHnjc6fbEMywTT3CT+Rwb5IgJraSZK0cL/sk0zRQek3HX3Dm97Q+IqsLRdeEw1pMjpv5YH2lXimIFFEEh4trTl440CIAwWm0OCsrbqiisQOghxKHTlgZM5EuoRykoepCAjyUkPWiTJLMmsEWQQzdNZMDcEIQQklaZSgceHg2R9DSMaQTBvZh/CsYWo4aKSEjqCUDAkdMMnm0XYfBJuUSVL6TjaCqgaeK4FPaniNPLeRI0d6ayK7Dw6WyajQkbVatWre2qSqCg6MOVlGmSklhnRgpWMrWM92JnjgNTO2kddNsEZJK8+FvyM7SZDpj9PMTmQIef48HiXATZs2tQoQECgSmNFhlfeFYKVPnz52XaT89zw8c0zwTxDMe06Gi6EJdKP09zMCLYI7bsNJRqaToMtsWgF+aihRJsikSynbzu+My1hHAhqmwSBg5z0giImkpJr3iBMi6eG1kAkN7fJJKSsBIScZ+Iz5F16bj8fneZA9ZKwoHT+Z4oNt4eOkRSSfjVD8zhL48ZxuvPFGyyqy3UPxWDwuv8vpZUlDsR9zEoD9hv2ezDNZxVC872ROOclEh1ICbH9qkkgdaF+JZwcFvwRTFuNKVGzdutUG6FK6Qj13oqHmmx8aPlDhtdoikcrJ/YiDQzIWtK3m/5TfcKAieUuifRdRikZ2iAM+f+yUP5l+NOdKPKjAoe6cacNdgeOyP7DILLIwBCUEn5SeEniwf4RnNVJD+Sm/6/yeR1pumBlkUgg4yS5FGpBwmEegxQFyRjJtiYAMFsEl1SPpZYWjIav7ENlBMmNkzTi+TA/BHhlUftuyc38l08v0DpQ9S+al9j3ti2b8oCAxlyhIVJAoWReN/YgfbuarovMhP3yc4eWHkDP4Ev8UJCYhUMzo5PZZcUiRo2MmQKS8jINlyujI7tARMdJsoS9aQSI4cUWmkIqHAyE7RLaNslJKZSmxFGfdPxmLRmaSjG+kE/vnpKzuQ2SRGVMXmtlLD/Myki2OZKxjpOga+9JLL9m/knkKEhOcgkQFiZJ10d6POJikHIuyF87C8rg0GvDHJ0n8UZCYmCgxJEhgHPKzzz5rY8yqVKli3Y4JFDMqmkFiRhDoMo6RslfGZ0oSSlb96hDKlSlLzm2xug9J9MVKkKi9UEQkQmQPGQ9EAwuaC9BMgHEIzGklIrGNEwIcWNG2n3GGHJQTRDFOkQwMY9syEyDGMvIAZBMVIKZEkMj+QDOUWAgQRWKRgkQRkUzgTC9lqDS7oQSVMUKUgNFtkdboIpL7CAQIlBivRYdMOkjSJITGG5ylVxWAiEjqFCSKiGQBwSIlS3RmY8wPndcoY6N88corr9yv5baI5CyCQkrDmR+RwJDSLcrCCQzzWqZQRCSnKEgUEckmtJSnjIkW9zSLoBU2TW6Yq4nmCMwBJSI5gzE8TL7OnHl0JGV6BgJD/q+MoYhIxihIFBHJAQwoZ74rmqIwPxlNMZgkmHmomMuL9SKSeZSOUtrNZO+7du2ysWWnnnqqTfdQoECBhG7MIyKSVQoSRURyGAevZBjJcNxwww22TEt6shzMe0YDHEriRCR9zF3KdBXLli2zxjM0k2ISebKFTFuhbtkiItlDQaKISJR16NDByuK4kAGhBTtzVQ0ePNgyjCtXrvRuKZLYyBZycoXPCk1o6ELKJPIVK1a0bD1NaDRdgIhI9tM3q4hILqLDIpMg06a+Xbt2btasWa5WrVrWaIPs4uuvv25zuonkpD3r/3K7li2O2oXHSw3ZwRUrVrhFixa533//3fb9QoUKWRkpWcKyZcu6I4880rt1zuGxmR6DUlaR9AwbNsxdcskl3lJkqlev7t577z1vKW/i8zNhwgRvKetmzJhh90lTKokOTaafSzSZvibTl6zLy/sRB8uUorZs2dLGXd1zzz2uatWqljmhk6pkj0T7LkptkmYCtqV3NHaBf6N3MuKgQw51lV75yB1aopRNI8Pco7wXlI7SJZjpZAgOfTfffLN78803vaX/a9iwofvkk0+8pczhvjnwDD2gJUhkG3333Xc2nvhA/InQx40b59q2bWvjkJmLMdS7777rrrnmGsuEcv+5iQPuunXrekvO9oUKFSq4jh07uttuu81bG9/817hp0yYrS84JfJ7Ybry3nNwD+8DTTz9tGXD2acbIMq/ujTfeaNfjww8/dPfee699t/uZcH8fyu7J9Gmkxj78/PPPe2uig9+vIkWK2Pjg7BCN9zNWpPY97dNk+iIiCY6DhNKlS7uZM2faAfRDDz1k47AIGmnjzwEF65j/TSQr9m3dFNUAETze4rlfu9WrV9u+XqpUKQsQyRSQLQwNEH2XXnqpTS8Tehk9erR3bcZRusrnKLvx3PnMfvXVV96aJGSceG2xhCCF7chUIbfffruVwjPBfFYQGOUl5FL27t3rLaU0duxYO1D3A0QULVrUde/e3d5/pmG55ZZb7DJ58mTvFs41atTIbdu2zU2aNMlbE3/S2i5+5cuxxx6bbQGi5A4FiSIicYAD6bvuusv98ssv1ryDH2cO7po2bWpn/umaet999+2XvRCJVUxRwYkQDqrJOBAgpocDTg48Qy/8ne+5556zaWcI0hjje8cdd9iYRt8bb7xhGYj333/fyle5vzZt2liGknHBPD4XMha+3377zbIXTG9Do6nwwC81TLdx3XXXuddee81b49yqVavsflkfbuDAgTbG8tBDD7Uy8+HDh3vXJGGMcrNmzazhFQEJ2ci1a9d61zprikWmiL8rX768ZRmuvfZaC0IOpGTJkrYdyVhQrcC/8+fP9651lqWtXbu2bTeyu02aNLGTVT6/LHfMmDHuoosusqzHkCFD7HkSQIUiU8t74z8vtkmrVq3s/Wf9ueeem2KaIN4Tqib8LOdjjz2WIijhcYcOHWrz0fL+kLHjvQXPy8+U+vsWGWNwYqBXr172Wml4xPsa+lx5n7g9ARzVG+wnX375pXdtSkx1dPnll3tLScjc8ZxOOeUUe1/JznICJPQ+8uXLZ9UL/H1WbNiwwbYhJw7ZBuz/oSdOeM2ff/65e+GFF+w1cUkri83+w3tAOTf7BPsqJzt8aW0XXi+/TZ06dXLFixe37D64rZ+dr1mzpuvSpYv938cQC6o3vvjiC1s+0ONL9ClIFBGJQxxQMl6RAzYOyk4//XS3ceNG17hxYxvTxQFS69at3dSpU72/EIktHERmJ06kvPjii5ZdJ/CbNm2ae/DBB71rk+zcudP17t3bggtux+0JukKzlBzQ+sgIPfDAAzY2kaCWA/K0skqhCD7feecdezwQoPIYlIuHGj9+vAURlCPStZVsHlmn6dOn2/UENASIfLY52OfzTOBKRUEovgc4IKeMkQu3feaZZ7xrD4ysEAEhAWm1atW8tc7t2LHDTj4x1ysZRrYxAVB4BrZr1672OjhJddVVV1mQyvdTKJabN29uQQDBO0ElJ7wI7GhMxHvl3y8VFDfddJPdJ1lOmnqxDZ966im73kfgyPtHxo6gi2mG2FacJPDH/PnZUgIlECC+9dZbbtCgQbYPUPZJ12m2WSheE9uQ10SQlxqCJAKbtLBd2W48hwsvvNBbm+T888+315kVlCUSsH300Ue2/3DCkLLWb775xq7nNdeoUcPGu/v7N9smNWSAn3jiCXsv2JcIJv3AOlRq24XPG79JjKlnu4bjfSEgDh3hxokFThJdcMEFthzp40sUBd8wyQVbtmzhk2L/JqI9e/YEgl8C9q9IZmk/Stu8efMCwYPbQKdOnQLjxo0LHHvssYFg4BgIHjwEdu/e7d1KEm0f2rVrVyB40G3/+nb++mNgYbPTon7hcSPVunXrQL58+QKFChVKcQkGDd4t9vfuu+8GihUr5i0FAsEgxX53gwGftyYJ9x0MxLylJMuXL7fbBoNJb00gEAwobF3w4Nhb83/79u0LbNq0KTBs2LDA0UcfbeuqVKkSCB48B4KBT6BixYqBiRMnBvr37x8oV66cXY9gQBoIHsB7S0latGgRCAY89v8pU6bY6w4Gb7YM/3nwWcYjjzwSKFiwYGDr1q22jM6dOweCwZ63tL9gEGr34W/H/PnzB4IBYODJJ5/0bpG69evX298tWrTIlv3t9Pzzz9uyb86cOfa8V69ebctr1661x5gxY4YtB4O+QDBYDGzYsMGWw9WvXz/w9NNPe0tJhg8fHihVqpS3ZNFGoEePHt5SIBAMPG3dpEmTbNl/jbwvvmBQZdtq9uzZ3pokbdu2DbRq1cr+7/8d3wvp4X653RdffOGt+b/Nmzcnb9cCBQrYfhGO/YFtzr4Dfx/ylzOrcePGgfvvv99bCgSCwXggGGx7S5GbO3euvb5t27bZclrbhfs/++yzvaX/47bjx4+3/69bt862Rei2CgavgS5dunhL+0vr8UPfz7wqte9pXzTjB2USRUTyIMq0mLQ/eFBqZ/45k83ZfUqSrr76aiszozSJrAgNDTTthsQ6suNk9EIv7du396511iU4GFxY6R3ZKjIqlOP52TyQ7UgrK5Sa0NsybhJ+CRzln/6FsXzhyCaSPSNDRUaOTFc4sjGh49nAMuvBv2R+QrM/lMpS/unfBpSZ8pp9PNdISvXIZPnbkuwqDVcof/VR3k72lHJPSkh5HIR/X4Rn08iSnXbaacnNhiiHp2GPn03j8YKBhZWapoZs0uOPP55iG/vZsND3M/T9CQZl9hzTe900k+HvGzRokOK+ySyGltEivQwhmL4I4Y1FwHvBawwGOpb9JBsbWsYMSl3JnO7evdtbk3GMqyX7xnc525LXwtjHzHyfz5s3z0pn/Q7CZHpxoPcaZDPTwxymdIAdOXKkLdOUhdJtMoy+SB9fokdBoohIAuDgiVIkDtw++OADO5CaPn26HTBRwsbBG6VdjOviYJYDNLqoicQKgoATTzwxxcUPMihNY7wcQQNlhhxwvvzyy3bdnpApZDgwz0iZa2jHW//v/JJIP7jiQtljOA6Av/76axszSMDKWMWcEt6Zl+caXhKaGsblsR35XqDMlecZWtLJQTvlm6+++qqNF/THDIZuU/DehLv11lutRBQEy9y/vw15H9JDOSrbNHQbMy0KQWtoUJbR1+2PUaU8M/S+KWkNH0OZ2msKxRhNHm/Tpk3emv+jLJftylhRSokps6XMNRTblcc40LZIDycCKSllvB/f57wWxgSGvz8HwkkM/o7fCQI5gltKoRHJe32gbQU+D2xjykpHjRplgS0XZOTxJXoUJIqIJCiaDPCjzAETB9kcbDC+hzO+HJARQNLUgXFUHIDTaOKll16ys8AS3zhQ4yAVaTWyiCcEhQQH/fr1sznoGD9I59RIkF0kI5NRocEqmflwBLA0liKTSFYxNTQ3YRxXKJbJFoLrmRKEi4+Ahik7/NtkJxqq+BkysrBUIPTo0cMytDyX1AKitDDOj/HRjPvkOTNG2kcwT0Dj74PhqITgsUO3sX8hAIsE7ytC31u/YRHZqfD7TWusXlq4f+6P13YgqWUMGUNINjUr2FcYs8q25ruajO/SpUu9a5NEsn//9NNP9n4z1pAxgkzhEkkmOiN4noyhZOwrQWJoFjEajy8ZpyBRRESSlSlTxrrUMW5DJsUAACRaSURBVO8XHeYo+6LEi6wMZ3tpilGvXj0rUaWpAAfjtHOnbJVGIco+xg6yJjTm4HLFFVdYcyM6HzIvIc1P6C4YCARc8RIlvL+IbRxkM/da6IXXAg7yCXwHDBhgr41Oiak10EgNJZQ0PiEo4f64n+xCJo375KA3NZ07d7bbUOJJloxMPvPs0SwHF198sWVbOKCm6ygNSWjoQinegcohI8GBONuRYI7PPNuNg3nQFZRsGY2xKNPk803ZZKT4e5rY8Bo58cR3i48SVr5f2C8JdHjPyAD73WMffvhhKwElm8j+S2ktjU8IWCNFeSuZPr6z2Nf5PFDGyLalWQ2lsJSYsl3Zb/zS2Iwg+xXe+ZSMod9giOfNiQu2K4FcKEp9MzoJfzg6uvJYs2fPtsei8VFo51uwf5MB5mQQ+2JqmVZKPAkm/c8PzYQoY81OZBt5v3v27GnPlX3AF43Hl4xTkCgiIunizD0HXLTn5ywwmUQCSVr8c0BLtoRSOsrqOBimRI3Ojtyeg1wOojgQpENiJJ0hJTKclWe7ElxwgMu2ZvuTZSLrw/bngJVxqIxzo2SwRYsWlkHmOi4cRB8RQalYLGDfY6xd6IXpGUAWhQCLzqUEw5SshZf3pYWxbmwLgi7GTrFNswulhARaaeGgmQx+3759reSTLp6UZjKtAHh/mAqCgIuScN5jskV0hswOvG62I0E2JYsEGRyog889gRlZWrYpgRXljRnRtm1bKxcMz6QSEEyZMsUysJS3EwiTRSKTCYIvgjtuc95551l2mPHVfA9FirGpBJl046QagmkaQPBBoML+weeErrNUU1B6m1G8vo8//tgmNvdxMo3pV3g/+dwR/DImk/JbH11dCewowfURxPE+h49dTA9BM1lXthf7jB94hyIoZruS9WT/Tm2MH+s5WcGJAm7He8E+md042cGJR7KFoXOGRuvxJWMOonuN93+JIs62M5cRXyyUeyUaztTyxcqPQ/iYApFIaT+KXZytpgyLMVkcEHAAwMEuJawcDJFVILAkwOSMMgejHLBygEMQw0FkNMTiPsS2I5imBIssAVkcgh9KgdmmHFyRnfC3FZkaDrI48KRhCAf0aZXkEVgS5HNA7I/t2rP+L7f0jsZRnVD/oEMOdZVe+cgdWiKpGUy84z3jd53f80jLIRMBGTSCS0p/o/WZjjZOvBCodevWzVtzYATklO6SpfUxVQZNxchupndiQfK+1L6nfdGMHxQk5hIFiTq4l6zTfhS/OKjmwJGz7pQRUm5HyRtzpVHKStkZWRg/oGQcEXNAUr5GBpOgiDPzlJGROeM2HKhxvxk5SM/JfYhAjywKGVRK+sgs8BrJWvC8OUDkAJMxRDx/Mkq8Rtx9991WGkczCrInZD+4HQFiauPfIpXWwQeB4r6tkY83y6p8RxXJMwEiFCSmxMkgytQ5CcTJjPD5DfMSvqM++OAD+8xGipM8lJ+GzptJxo/9h+yg9qHEpiAxwSlI1MG9ZJ32o8RAsEXjDv7lQukWQRbdWinlYqwUjRkIxgiiCDopQ6SjIFkMkImbNGmSlXLxo8uBHc0zOJilLI2SNLoQUpb10EMPue+++85uz/0yXo0JqWmy4ZfdcYDHcyGLR6bP78RHMwrKvhj7Q2aUwI+xmwR8TNdA9pRyRgI9SnYZf0OJGBnBaBwYpnfwIZmnIDElSs8JDCmRpYKAqRkkfdqHxKcgMcEpSNTBvWSd9iPJKP9AjHnmyOqRySRrSYaSMi/2qYoVK7pt27ZZUw/2KzKU/GBz4Eawx9/yI85Yv3g7mFOQmDN0gC9ZpX1IfLESJGovFBGRhMHBF0EeKOOkOyBZPDIdNC4hY0iWj0CR/7OOv2GZH2xuSzaQ2+tATkRE8ir9womIiIiIiEgyBYkiIiIiIiKSTEGiiIiIiIiIJFOQKCIiIiIiIskUJIqIiIiIiEgyBYkiIiIJbuN/69zK/36N2oXHyykHHXSQmzBhgre0P+bI5Dbff/+9tya+MPfgqFGjvKW8i/lFmYhfIjNo0CB3+eWXe0vp27Bhg3Vx5rMgqWNOXb4nNm/e7K3JOuYPrVKlircU+zRPYi7RPIma306yTvuRZFWi7UOpzb9FwNZzd3u31/1ry9GQ3x3inigwyBU9uKS3Jn0EDG+++ab9nylIihYt6s4880zXqlUruy50OpI1a9a4IkWKuAIFCnhrUuLAmNf/3XffZdsBW7TmuHv//fdd586d3ZIlS3J8ChYOaAm2cyuY5n3lAD29gD+eEYTUrVvXbdq0yablyeo+tGfPHtuv3377bXfBBRd4a1N333332Vywr776qi0vWLDAPfPMM+7LL790f//9tytfvrxr376969ixo13v4znztz/++KM7/vjjXY8ePex9ymkEa+PHj4/qSQO258aNG90xxxxjj58dIv1MaZ5EERERyXXb3daoBojg8XjcjLj00kvdX3/9ZUHepEmT7ACbg9gmTZq4vXv3erdy7thjj00zQIx3L774orvllls0R2cWcGIoLyHXw/5/6KGHuuuuu872kfTs3LnTDRs2zLVt29Zb49y8efMsszhixAgLALt37+66devmXnrpJe8WzoKWxo0b2+eOIKdTp07u1ltvdZMnT/ZuEX8IBFPDPsL25LskuwLEeKRvGREREYl5BH4ctB133HHunHPOcQ899JCbOHGiBYxvvPGGd6v9y02/+eYbd/bZZ9sZ+XPPPdcyiD4OsE888UTXt29fb00SDoK5n19//dWW+f/gwYMtIC1YsKA75ZRT3FdffWXX16lTxx155JHukksuccuWLbPb+wYOHOgqVqxoB5yVK1d2w4cP965JemwyC2XLlrXXVrp0aXfPPfd41+5v/fr1btq0aSlKCtO7j8cff9ydfvrp9v9QZE979uxp/yczdP7557tChQpZNqtWrVpuxYoVtj0fe+wxyzDx2rn425jsHsFBiRIlLJNRr149u53PL6l77bXX7HkdccQR7o477nD79u1zzz77rL2HBCRPPfWU9xfp43n4j0V2K/TA/pNPPnG1a9e2516sWDF7f0LfA7+0eMyYMe6iiy6yfWDIkCF2X2PHjvVulYR9hu1Ahg2rVq2yTDVZa9az78yZM8euA/se+yH3WaFCBXueoScreNyhQ4e6K6+80vaZk046yTLB4HkRbIGsN7cl+AcZxV69elkW6fDDD3dnnXVWiufql0Gy31etWtXedzKAYN/gMXbt2mXLqaFygr+pXr26t8a5Nm3auBdeeMG2Ea/lhhtusOczbtw47xZJ5aw8p379+tn+f9ddd7nmzZu7/v37e7fInLlz57oGDRq44sWLW4aM5zB//nzvWmdZTbAded3+cmq6dOniKlWqZNub18F+HnpSwN83eV9Cs3TcL5/Vpk2b2nvNvhlabkr2jveCbR6K7CaffQJvHOjx442CRBEREYlLBCgcRIcezIbavn27BQ6nnnqqZUs4SHzggQe8a5MODjlAfv311701SVhm7B8BpO+JJ55wN910kwWQJ598smVtbr/9dsu4EIji7rvvtn/BASSZzvvvv9/98MMPdlsOvKdPn27Xv/fee3aATfD5yy+/WJByxhln2HWpIRDwA1RfevfB66IslYNwHwHywoUL7XkQ0FC+x0E56wh6b7vtNtsmLVu2tOd92mmnWfaWC+vQokULt27dOjtgZpsSKNWvX99K83wEalxPEDd69GjLXJGFIvD6/PPPXe/eva1UMTToSs1nn31mr4EDdu6H95lgzLdjxw4rf/z222/ttmRYCSYItEJ17drV3gvu66qrrnLXXnttqu85QQ8H/ew3bJc///zTgi6C4AcffDD5fmfOnGn7Ave5ePFi2/4E0eGBL8/1mmuuse1LSfv1119v24lSTd47/Pzzz7Z9n3/+eVum7POtt96yoIys3r333mtBG9stFK+J2/KaKL0GgSzva3rbledOcHkglDMSIPvYPy6++GJvKUnDhg1tfVYQlLdu3dr276+//tqCabaVH6z7+y/vD9spdH8Ox3vH+8B7QtBLOW14EMuJHbY9+1Jo2SffDew7ixYtss9OKE4q8D0SPhZ45MiR9hnic4lIHj+uBCRXBD98jAW1fxPRnj17AsEfM/tXJLO0H0lWJdo+tGvXrkDwAMb+9a3Y90vgtp1Non7hcSMVPIgMNGvWzFtKKRi8BIKBk7dkfRYCwQDN/h88eA8UK1YsxesdOHCg3SYYMNlyMBAI5MuXLxA8sLZl9oXixYsHggd7tgxuHwxqvKVAIHhgbOuCwY8t79u3LzB06NDAYYcdZsuoWbNmoF27dt5SkmCAFQgeANv/+/XrF6hUqVLE+17wYDNQoUIFbynJge6jUaNGgQ4dOnhLgUAwiA3UqVPH/r9hwwZ7DcEAzJbDPfLII4FgAO4tJQkGGIHgAXPgn3/+8dYkqVixom1r8HfBg+bA1q1bbRnBYCJQvnx5206+ypUrB3r16uUt7Y/3PBikBIKBoLcm6b074ogjUtxPqPXr19trCh7o2/Ly5cttORiA2bKP95r3fPXq1ba8du3aQP78+ZO3Ba8leMBv2yg1waA48PTTT3tLSYYPHx4oVaqUt7T/PhMMPG1dMHi25enTp9vypk2bbJnXtGbNGtt2s2fPtnW+tm3bBlq1amX/9/+O763UFClSJMW+G47PUTAI8pZSN2vWLNsekydP9tYEAsHgbb/X/NFHH9lz2blzp7cm69gObPsPPvjAW5PyM50Rffr0CQQDYm8pad885JBDAuvWrfPWJOH+O3Xq5C0lCX9/eHz2PX9/5Pidz7v/fqYmtccP/0ylJrXvaV804wdlEkVERCRuBY9lLPuVGj/L4peVoUaNGt7/klCiSZaL8kgED07d7t27LWMWys/WgGYWCM38UUJJwwlK08BjU74ZimXWg/sPHgRaWVowmLTMY2i5YjhuG/o6cKD7YB0ZOJ5XMJC0TIifJSFLRNMRskGUKZL5IFOTHjJqZNko7aSM1L8wXi20zJOSQLIqPrYX2dzQsZSsIyOZHrLEfpYGvHc8/h9//GHLZE8pCeX1k+3xSxFXrlxp//rIsIWixJYsqd8MibF45cqVs+wxyDBRohyaSQvFdqCcN3QbsK3Zfn7pIUL3GcoYeY7pvebffvvN/p7yy9D7JrMYXsoc/pp8lEWGPodwqe1Hoch6BwNJFwxorIQ6pwUDdNt2ZBApN2Ub8R6Hv4eRoKyYzxglzWw3stXh98P7TPlyuLS2p89vbuaXDJON5LmGZlcjefx4oiBRRERE4hZBF+OLsoIxdnSF5ACasjZKK0ODE4R2v/WD0tTWhZc6poWSQ0oNX3nlFTuwZ9weQUpaY5gYs0UnzFAHug+CP8afETwS/LKekkofr5VywZo1a9oBLuOpKPlLCwfvpUqVsiAq9MJzoOuqL7xTMNsmtXWRbqu08Poo36SsjxJLv8ySgDgUAVo43nNKA8F2oATXfw/ZlulhO1BKGroNKFMkaA0NwDL6mimfxUcffZTivilfDB9DmdprAtsjtSDIl9p+5ONxKB2m7JgAJxSBDwFdKJYJlA60vdJDqSmvkZMUs2fPtv9zEiL8PTwQ9mPKeQnmPvzwQyutpgFPJPsC0lrvY1wxnx2/5JR/+Z6g2zIiffx4oiBRRERE4hKNXDg4v/rqq701KTF+j/FgZNJ8qQVBHNhxkEjzCsbRhY9Jygwee9asWd5SEpbJqPk4uCbQoSMl4+440OT1pIbMFtN7hB/gp3cfHMByEE4QxIWxeOEH9Nwv4yo5QKfRjX8QzEHxvn377P8+xh/yHLhfxmuGXgg+shsZOwJ3H+8dGRqCY+b6IzglmCGwYXunFfykhnF+NOlhuxEcsZ18ZAAJVkLHWYZiO/DY4duAS6SdZ9m+CN3GNDciqCf7FH6/vOYDIdvIvs57mhau4/WGY/wjzXTYDqk1FSKLy7jPUFOnTt0vM59RfCZotsRnkOwur59pOEIRbIfvi+HYf8kSEpiRFSQzyfubnQgC+X5gW/Hdw7IvGo8fbQoSRUREJOZRAkqAQjMRuh8+/fTTVhZHQwmaiKSG5jJkbyhn48CYzo7hnUyRL18+K70kWOLgLqsHviCzRqaKwJMM03PPPWfNMvzGOVxHQxfK+ygzpOSRAI4DzdRwcE8gFhp4RnIfZMw4oA0PfikR5fUSVHIwO2XKFHuefmMcSje5DcESB+1sf0rr2DY06+D2dOnk4JgDY5rHZDeyMEzV4L93lEDSVZNAjK6gZJzoVkozEl4jTWwixd/TxIb3ibLKMmXKeNc4K2Elc8brZHuzbSkvZFvh4YcfthJQsokEDGSzyUSHZ9/Sw3vEvknWic61ZCcp0aVhEM1qKIUl6GNfHzBgQHJpbHpoSkPpLR1100J5Mc85NKBm/yFAZDuwDfmcceF5+egsy3aggc9PP/1k2et33nnHnmtW8Hmj6y/bkEwwgVf4iQz2RQLU1E6S+LgfgmveB7YbwT8Z9OxElp79gudI9UK1atW8a6Lz+NGmIFFERERiHkEOpY4cMDJnIl1CORBjKgKCvNSQdaLMkswaQRbBDJ01U0MwQlBC2WF2IMCghI6glAwJHTDJ5jFlBpi2gTJJxjCRufr000/tuRL4pIbXyHOjo6Ivkvvg4JVyUjqyhh7UUk7LwT5ZWMpMKTG88847rQsrWM92JnigfJGxjQQ1BGscLPNc+DuykwSZ/jjN7ESGkOfP41HaxxQFdKEEgSIH5HRYJQNKsNKnTx+7LlL+ex6eOSbLRxDMOFMyXIw9pZOov58RaBHccZvzzjvPppOgi2VaAX5qmMqFIJMupWw7vzMuYx2ZOoFpMAjYeQ8oP42kpJr3iBMi6eG1kAklwPNRykpAyEkGPmP+hdfm4/F5HmQPGSvKVBhMJcG28HHSwi/ZjRQnOQj8eE433nijZRXZ7qF4LB6XbGpaWVL2DfYBTiIwzQUnL/ypXrILr40TCGS4Q7OIiMbjR9tBdK/x/i9RxMB2Buhu2bLF6rkTDeMi+KHhyze8Zl8kUtqPJKsSbR+iFI3sUOgcYRv/W+d67m4f1Qn187tD3BMFBrmiB6c8GMxNZGEISmiKktGAh3Fm/K7zex5puWFmkEkh4CS7FGlAwmEegRbjFTOSaUsEZLA4sF+9enVy+Wduyeo+RHaQKWGWLl1qx5fpIdgjg0oGMTv3VzK9TNVB2bNkXmrf075oxg8KEnOJgkQd3EvWaT+SrFKQmIRAcbtL6soZDUe4o2ImQKSMkiwKY7EoJQvN1EUqWkEimAuRTOEFF1zgrUkbr4tsG2WlBL+UWIqz7p90IiX7Q8Y30on9c1JW9yGyyIzbC83spYd5GckWRzLWMVJ0jX3ppZfsX8k8BYlxji8W6vRpZcyXLnX6lLDQSjsSChJ1cC9Zp/1IskpBolAiR9khJWK0t6cMMKOiGSRmBOVxjGOk7JXxmZKEklUCQ8pYKVemLDm3xeo+JNEXK0Gi9sJMokafem66WzGYmUGqoW2lRUREJPbRsIYMDGPbMhMgxjLyAGQTFSCmRJDICSKaocRCgCgSixQkZhI17AxUZkwAA8IZeExrZr50RERERERE4pXKTbMB8+h06NDB2nJ/+eWX3tqUGPPAxUe6mDpw2konarkpnaoaNGigMkHJNO1HklWJtg9RxsTYNDqEqtw0+3AotW3bNpvCIKPdHUWgfUh8fE8zvQxxQmrlppSQa0xijOvSpYsN0GUANFlF2iGn1bqa0gZaHYdj0lraUIuIiOQ0JkGnOQtzwjFptYiIxBaSSqtWrbJuxnv37vXWJiHmoHxcQWKUUTKa1vxJPib7ZK4hkAUki8j8QASADCQlUEztDJAyiSkpAyTZQfuRZFWi7UOMvWNCbOa9S+ukpmScskCSVdqHxLdhwwYbS1yhQoX95oBVJjGX8IbwxqSHNyy1uXSI+An6mDyzRo0a3tq0RbM7USziwExdKSWrtB9JViXiPkTr/82bN9uE1VSy6IA06+hMuX37dmuCos6Ukhnah4SQjEwhMycULlzYlSpVyrvm/6IZPyhIzCYrV660JjbTp093derU8damTUGiDu4l67QfSVYl4j7Ezz5lTASKkj3Yprt27XKHH364gm7JFO1D4iNAZFhAavuBgsQYN2fOHDd37lxXu3ZtmyOR6S969uzp1q5d63788ceIxnkoSNTBvWSd9iPJqkTehyg95fVL1rEdv/jiC5t3T99FkhnahwS89+ElpqEUJMa4RYsWuY4dO7oFCxa4HTt2WDr40ksvdT169Ih4jiUFiTq4l6zTfiRZpX1IsoP2I8kq7UMSiWjGDyp6zoQzzjjDTZs2zcYv0qZ2+fLlbuDAgXluEl4REREREUk8ChJFREREREQkmYJEERERERERSaYxibmEWmK6F/3xxx8JOyZxypQp7pJLLlHtvWSa9iPJKu1Dkh20H0lWaR+SSDAmkSn36E7N2MScpCAxl/jzKoqIiIiIiESKJFOZMmW8pZyhIDGXMGnq6tWr3ZFHHpmQ8+H4Z0ISNZMq2UP7kWSV9iHJDtqPJKu0D0kkCNu2bdvmSpcu7Q4+OGdHDSpIlFzBl2EiTwEi2UP7kWSV9iHJDtqPJKu0D0msUeMaERERERERSaYgUURERERERJLlezTI+79IVOXLl8/VqVPH5c+f31sjknHajySrtA9JdtB+JFmlfUhiicYkioiIiIiISDKVm4qIiIiIiEgyBYkiIiIiIiKSTEGiiIiIiIiIJFOQKLmuadOmrmzZsu6www5zpUqVcjfeeKNbvXq1d63Igf3++++ubdu27oQTTnCHH364q1ixonvkkUfcnj17vFuIHNhTTz3latas6QoWLOgKFy7srRVJ38svv+zKly9vv2HVqlVz33zzjXeNyIF98cUX7vLLL7fJ0Q866CA3YcIE7xqR3KUgUXJd3bp13TvvvON+/vln995777lly5a55s2be9eKHNhPP/3k/vvvPzd48GD3448/uv79+7tBgwa5hx56yLuFyIFxUqFFixauQ4cO3hqR9I0ZM8bdd999dlJq/vz57qyzznINGzZ069at824hkr4dO3bYfsPJBpFYou6mEnPef/99d8UVV7jdu3e7Qw45xFsrkjF9+vRxAwcOdL/99pu3RiQyb7zxhuvUqZPbvHmzt0YkdWQOzzvvPPfSSy/ZMierjj/+eHf33Xe7rl272jqRSJFJHD9+vB0DieQ2ZRIlpmzcuNGNHDnSSr4UIEpWbNmyxRUtWtRbEhHJXmSe582b5y6++GJvTfCg6uCDbfmrr77y1oiIxCcFiRITunTp4goVKuSKFSvmVq5c6SZOnOhdI5Jxv/76qxswYIC7/fbbvTUiItnr77//dvv27XPHHHOMtyYJy2vWrPGWRETik4JEyRGU2VA2kd6FcWS+zp07u++++85NmTLF5cuXz910001OldCS0f0If/75p7v00kttbFm7du28tZKoMrMPiYiIJDqNSZQcsX79erdhwwZvKXUVKlRwhx56qLf0f6tWrbIxHbNnz3Y1atTw1koiyuh+RFfcOnXquOrVq9u4Mkq/JLFl5rtIYxIlEpSb0gl37NixKcaQtW7d2vYdVcRIRnHSSmMSJVYoSJSYQ7lpuXLl3PTp0+2AXyQSZBDplFu1alU3YsQIy0iLZIaCRIkUjWvOP/98K28HjWuY0umuu+5S4xrJMAWJEkt0ml1y1Zw5c6wr3Pfff+9WrFjhpk2b5lq1amXz3CmLKJEiQOSEAgdnffv2tewRY4I0LkgyghNUfBfxL2PN+D+X7du3e7cQSYnpL1599VX35ptvuiVLltj0KUxpcMstt3i3EEkf3y/+dw2WL1+e/D0kkpuUSZRctWjRItexY0e3YMEC+2FlMn3Gk/Xo0cMdd9xx3q1E0kfmJ62DMn3FSaRuvvlmO9gPp6oGSQ8nOplyh5NSVapUcS+++KJlGEUiMWPGDKuCCUfZMr9tIrlFQaKIiIiIiIgkU7mpiIiIiIiIJFOQKCIiIiIiIskUJIqIiIiIiEgyBYkiIiIiIiKSTEGiiIiIiIiIJFOQKCIiIiIiIskUJIqIiIiIiEgyBYkiIiIiIiKSTEGiiIhInJoxY4Y76KCD3ObNm701IiKSW7744gt3+eWXu9KlS9t384QJE7xrIjd58mRXvXp1d+SRR7oSJUq4q6++2v3+++/etdGjIFFERCSL9u3b52rWrOmuuuoqb02SLVu2uOOPP951797dW5O9eMy//vrLHX300d4aERHJLTt27HBnnXWWe/nll701GbN8+XLXrFkzV69ePff9999bwPj333/v99sSDQcFgrz/i4iISCYtXbrUValSxb366qvu+uuvt3U33XSTW7BggZs7d6479NBDbZ2IiOR9ZBLHjx/vrrjiCm+Nc7t377aThqNHj7YKkNNPP9317t3b1alTx64fO3asa9Wqld3u4IOTcnkffPCBBY6sO+SQQ2xdNCiTKCIikg0qVarknnnmGXf33Xdbdm/ixInu7bffdm+99VaaAWKXLl3s7woWLOgqVKjgevbs6f7991+7jnO4F198sWvYsKH9Hxs3bnRlypRxDz/8sC2Hl5uuWLHCSp2KFCniChUq5E477TT38ccf23UiIpK77rrrLvfVV1/Zb8PChQtdixYt3KWXXup++eUXu75q1aoWHL7++utWoUI1yvDhw+23IJoBIpRJFBERySb8pFImlC9fPrdo0SILGHv06OFdu78nn3zSbs/4FW7frl07d99997kHH3zQrv/zzz/dGWec4R555BHXsWNHd80111ggOGvWLJc/f34LEuvWres2bdrkChcu7Jo0aeL27Nnj+vXrZ0Hi4sWL3VFHHeUuvPBCuz8REYmO8EziypUr7WQg//Kd7yMAPP/8893TTz9ty59//rl912/YsMECxRo1atjJPr7jo0mZRBERkWzCQcHAgQPdZ5995o455hjXtWtX75rUEUAyrrB8+fKWAXzggQfcO++8413r3HHHHecGDx5s99OtWzc7UBgxYoQFiKnh4KNWrVoWWHIwQtCoAFFEJPdxIpCgj+qRI444IvlCULhs2TK7zZo1a+xkYevWrW2YAtdRidK8efPkipJoUZAoIiKSjV577TUrH6UBwapVq2xd+/btUxwU+MaMGWNB3bHHHmvrCRoJ9EJRjnTllVdaKWvfvn3dSSed5F2zv3vuuceyk9wn2UfKmUREJPdt377dqkzmzZtnTWn8y5IlS9wLL7xgt6HhDY3Inn32WXf22WfbST5ODHLicc6cOXabaFGQKCIikk1mz57t+vfv7z788EMrH2rbtq2d/X388cdTHBSAcSk0uLnsssvs9t999501NKBcNNTOnTvtoIKDC3/cSlpuvfVW99tvv7kbb7zRzlqfe+65bsCAAd61IiKSWwj6yCSuW7fOnXjiiSkunCgE3/d+wxof3/3477//7N9oUZAoIiKSDfhxv/nmm12HDh1snOCwYcPcN9984wYNGuRKliyZ4oAABJTlypWzwJBgjgwh4w3D3X///XbQMGnSJPfiiy+6adOmedekjik3yFyOGzfO/pZuqyIikvPIFoaeDKSihP9TIUKZKScG6XrN9zPX8RvRq1cv99FHH9ntGzdubGWmnFjkpOD8+fPdLbfcYr8VBJnRpCBRREQkGzBmkKwhZaFgnCHloTShSW0iZIJCDhzocsd4FAJAmhyE4sCB8tWRI0e6Bg0auM6dO9tYFRrVpKZTp042rxYHHxxcTJ8+3Z1yyinetSIikpO+/fZbC+b8gI5GZPzf70hN11KCRE7gVa5c2ZraEBSWLVvWrqeR2ahRo2wSfv6OzqcFChRwn3zyiTv88MPtNtGi7qYiIiJZRHOB+vXrW7fR2rVre2uTMIXF3r173aeffmqNbUIRQBIEMv8VZ5CrV6/uHn30UZvSYv369daAhq6mBKBgegw63VWsWNHGM4Z3N6WbKhlHxkLS1ZQDDMpfixUrZn8vIiISCQWJIiIiIiIikkzlpiIiIiIiIpJMQaKIiIiIiIgkU5AoIiIiIiIiyRQkioiIiIiISDIFiSIiIiIiIpJMQaKIiIiIiIgkU5AoIiIiIiIiyRQkioiIiIiISDIFiSIiIiIiIpJMQaKIiIiIiIgkU5AoIiIiIiIiyRQkioiIiIiISDIFiSIiIiIiIpJMQaKIiIiIiIgkU5AoIiIiIiIiyRQkioiIiIiISDIFiSIiIiIiIpJMQaKIiIiIiIgkU5AoIiIiIiIiyRQkioiIiIiISDIFiSIiIiIiIpJMQaKIiIiIiIgkU5AoIiIiIiIiyRQkioiIiIiISDIFiSIiIiIiIpJMQaKIiIiIiIgkU5AoIiIiIiIiyRQkioiIiIiISDIFiSIiIiIiIpJMQaKIiIiIiIgkU5AoIiIiIiIiyRQkioiIiIiISDIFiSIiIiIiIpJMQaKIiIiIiIh4nPsfw9pzcYQeJAoAAAAASUVORK5CYII=;" vertex="1" parent="1">
          <mxGeometry x="-100" y="30" width="905" height="856" as="geometry" />
        </mxCell>
        <mxCell id="u9gYeWFBhmN_tFq3CWo4-3" value="" style="ellipse;whiteSpace=wrap;html=1;rotation=-29;fillColor=none;strokeWidth=4;strokeColor=#ff0000;" vertex="1" parent="1">
          <mxGeometry x="30" y="130" width="702.98" height="612" as="geometry" />
        </mxCell>
      </root>
    </mxGraphModel>
  </diagram>
</mxfile>
